<mxfile host="app.diagrams.net" agent="Mozilla/5.0 (Windows NT 10.0; Win64; x64) AppleWebKit/537.36 (KHTML, like Gecko) Chrome/134.0.0.0 Safari/537.36" version="26.1.1">
  <diagram name="Page-1" id="K2aVXaEBtYGWisZeF0IQ">
    <mxGraphModel dx="7854" dy="1648" grid="0" gridSize="10" guides="1" tooltips="1" connect="1" arrows="1" fold="1" page="1" pageScale="1" pageWidth="2339" pageHeight="3300" math="0" shadow="0">
      <root>
        <mxCell id="0" />
        <mxCell id="1" parent="0" />
        <mxCell id="ZweK4gNvfimo4R74DKea-2" value="" style="shape=image;verticalLabelPosition=bottom;labelBackgroundColor=default;verticalAlign=top;aspect=fixed;imageAspect=0;image=data:image/png,iVBORw0KGgoAAAANSUhEUgAAApwAAABYCAYAAABYrScuAAAAAXNSR0IArs4c6QAAAARnQU1BAACxjwv8YQUAAAAJcEhZcwAADsMAAA7DAcdvqGQAAJsaSURBVHhe7J1leB3V1oDfsaPxtE0qqbu701IqQHF3d7i46wXuh7u7UxwKdXd3d0vbJI2f5Nj4fD8mLZdQoHCb0pbz8uQBss+c7Nmz9tpr9l4iLFu2zOnQoQOyLPNPwLItKisrSU5K/sfcs23bVFRWkJSUhCIr1ZsT/AVM02THzh00bdwUURSrNyf4E1iWxbYd22nRrHn1pgQHCdu22VO4h9q1aqMoCR1wpFBRWYHf50dRFARBqN58RJGXn0ed2nUS8vcnKCouIjU1Da/HU73piERYunSp07ZdWyRJqt52VGJZ/2VwKv8Qg9P6L4MzMdkPCoZhkLsz1zU4pYTB+b9gWRbbtm+nRfOEwVlTJAzOIxCnyuD0Hx0G5+68PLJq10HxJOTvQCksKiItNRWv11u96YhEWLhogSN6pCNemA8U0zTRNA1Zlo+ah/hH7L1nSZLw+XzVmxP8BTRVQzcM/H7fP2anvKYwDYOKikoya2VWb0pwkLAsi3g8jizJ+PwJHXAk4OAQi8YQEPAH/Ef8Gl1ZUYniUfD7/dWbEvwGkUgEAYFgUrB60xGJUFhS6JSZhYjikS3MB0o8Fmfx/KV07NqBtPTU6s1HJWpcZdH8JXTo3J70jLTqzQn+AqHyEM89/hIPPXk//sQC/j8Ri8b4vwef5smXH6/elOAgoakaX37yDaeefTIZmenVmxMchti2zaJ5S2javAmZtTOO+FPI917/kDPPP53MWhnVmxL8Bj98+SN9B/Yhu15W9aYjksRZYIIECRIkSJAgQYIaJWFwJkiQIEGCBAkSJKhREgZnggQJEiRIkCBBgholYXAmSJAgQYIECRIkqFESBmeCBAkSJEiQIEGCGiVhcCZIkCBBggQJEiSoUaS777n70bgd3W+OL8cyicU0sE0ilVFi0RiqqgMikizu9xoA29QJlZRRURnFQkTEIhaNEglHicc0LNvGsmxMw0JWZBzLQo3FcRAIhyqIxePE4xqOICJJIlosRiQSJRbTsBwbyzTRVR1BkhFxMDQVzbDRYlHC4QixmIpu2kiKjFQt3ZNpmOTvLiCrbtZv56OzLWJRDcdxiMdiRMNR4nEV03KQZOl3U0hZukZlqIJQRRhNtxAlGUkSsE2DWDhMKFRJvKrvsiSix6JYgoQkitimiqbb2IZGNBIlGomhGyaIEtgm0cpKQqEwummjKAp6LExFZRQ1ruGI7ljt75mYpkne7nyysuv8uRQ+joOha4QrKgiFwqi6haQoyJKIY1vEKisJlVcQixsIooQkgqbpWLY7TpZhoKkalm0RrqgkHosT1wxkj4KITSQUIhSqRDcd9znH40TCEVRVx3ZAlmX2czto0TCqCZIkIdgWqqYDIEkCWlxFjf9SNmJxC49XRgBwbMKVERxBQIvFiEVixFQd2xGQpQPPR6uqKvNmLmDA4GNQ/rCAgEMsEsVBIBqOEI3GiMc1LAdESfwNeXKwTZNIVEMSbCIRFUmWEUXQYiq2DZZpEA5VUFEZw7IdRAFi4bA7z+IahungGHHC4RixaBzLAUkU0NX/eka6jq4ZIIpYhkZleTmhigi64cqYY2pEKiOEq77TQUAUHLRYjIrySiJRFRt37CxdpaK8knjcnY+yovzGvf0SwzCYNW0Og08YVL0JcNBiKpZloakapmkjyTK2ZaCrGjYCRjxCWWmIaNxA9niwtBiRygiRSAxVM7Cr9EskHEPTdRxEBBw0VUWQXBkz4jF0W0QWIR4JU14eIhJVcRARBQc9HidcESYai2OYNoIkITgWkYoKyssriWsmsqIgCQ6RyjDRiPuM947Nr+XKfb6VFREkj9d9LvEYpoNbucqxiUVjP9+vaaCpKqYjoshi1fUGlRVRJFkkUlFJLBZH0013LkqiK+9VWKbFmpVradW2Jf7A/vMgWoaOrpuYho6mG1Vzwn0+mmYgYBMOlVMeqsS0BRRJIBoOE6mMEI+pmLaDqWvEo1GiURXDsBBEAcc00QwbRZFwLJNIOI7sVcAyCYcqXJ2oGYiiBJZJPPqzvFmWgySLGGqcUFmIyrC7piiKjGPqhCsiP+tJQUSSpV/cN7h6zNRV4rqDIksIAtiWQaQyTEWokrjqyr8sSTi2iRqLEiqrIBJx1yQ36bq7HlZWhhFEGUkUMfU40XCEcCRGXNWxLBPHtjFtkEQHNRIhVCVHiDKyLGLEY6i6jSiJCI6NphtYtoO8n5RHjuOQtyuf9Ix0AkH/n6poZlsmkcoQ5aUVxDQDUZaRBIdoOEIkEiW+V+fJEgIOuq4RjcaRFI87H2JRQpUR4rE4hmG5657j6rFoOIqqGTgIyMp+xvs3WLZoOW3atybwG/K3d00pKwuh6hayLKJG3bm8d023LRPbtnAEEREbU9fRNAtLi1ERjqLG4uiWgyy7zzJSuVc+LBzHwtQNDNNGViRs0yQeVbFti3BFmEgkihbXQaqaP9XmrGXoP89BScA0DWKagUeRwbEIh8LYgnvtXtvJcaiSSQdD01HjKpZjE68ME42pqJqJ7FF+ZafsZf2aDeQ0ziEpOal602/j2O5zs1zdIQhgmwZqPI5hCyiyiG2ahEJhJMWDKAr7nqGhxjEMG0QRxzKIhn+eI4IkIYsCWsS1O+KxODaiK0O/0m/75/cNTj3K9C8+I9CkPiMfeJkNpSGWzZzBnNUltG7TCL/XFc5fXGPbhAu38vELH7N6yybGTlhCj36dWD5uIjMnTmTm0q2UF0ZITdH49PPV9O7bDEvXmP36C1iNOjH6zbfYsKeUNXNmMHX2djp1a0G0PJe33vyRwj172JkfoU6Wwwd3vkagZ09q+0ViubMZtx7EXauZOmoso6etpbKsgqwOLUgSf6l4D8jgNDU2TfqGwuzGxGZ/wdeTN7Br/WomTFhEcqNm1E4N7FdAbFNjz5b1vPfKZ2zYuZsZP46n1F+PxnUCxMr3MPLdj5izager5kxlyZ4g7ZrXpnTe1ywsrUPzBsnokXy+eu5bGrWuy4tPfUR+8R5mjp5ISKlDdrLFt8+9waKtuYz/aTLNu/cgvvArPhi7nuK8XZTFFJo2rL3f5/hXDU5djVG6ZSVvvPIVW3btZNpPk6nMbEqLesmES/IY/cnnzFi0iXUL5zJ3vU7nNnUIr5rAwopkmmSnokVL+emDb2nQsBaPP/w+4WgZk78bhZnVinoBnZ/eeYvZK7Yx66dZZHfvBKvH8MGYFRTm5VGuearup3qvoHDetzw9YjV9erRGcnTmff4Sqc2741OgfNs8/vPwSJof25V0BQo2z+SxF9dw3JA2KKKAqYb55rWX2GA1xLNnPp+PWk3h7lx2xgK0bpSBuL8/uB/+rME5/8O3KE5tyfLvPmb+pt1sWTyXCRNW07pTS3w+z6/lyXEwtRj/99wkenZP5YU7XqJWt57USpLYuXoaM/NrUZudvP7052zZvIoZy4vp2K42c36czOxxo1iQW0pprkGweCqfjlnPrvXLGTt1LZ26NKdo7k/kZjYhO+hFjRTx1ddzaNaiAbuWTuOd90eTt2snE0ZNJK1JO2p7Q0weOYWx345lY2EJ5SUi2bU8TPnkXcbP28impQtYuD5Es2b1iOWv5ak3JxMt2cxPIybRsGt30oPKH47p7xucFutnjmFZRTbqrDf4YlMKnZvVwjE1vvr8B5o0b8Kcj19l7KJcFv00HqV1V/x5y5gweTYjv51JaWkpRiCZ6c+/xfrCEuZPmEABtWhQW+LHT8fQsksHZMGhbPbnrAg0I9MI88P7HzB1wUbWLVzAolWltGtXn7VjJjFrzjQmzFxLeUmEWk1yiOau4q1XviB3926mj56MntmYnAwP37/5Lku37mbV9GnMz/XQsVUWXk81GXEczFAet938JO369SUt6KVo7tfML0yjcb1UrHiYcS89yqTKFnRploqjRfnoqaeIZ3WhcVYQHJvy3JXccftHDDy+O2898Ra7iorI3VpIZvPmpHj/vMGpx3L55r0ZNMiSePzxd2jRrTMpPoXyZaOZvkUgS9jN889+xq4dW5gwcRO9+rdn5tixTPzyB5ZtKSIUtwlEdvDWiFkU5q5l/Mi51G/ZnD1zx7Baq0eLukGcygIefngCA4e2oXz7Mt566XM2bNvF3PETqAg2JStoMmn0RCZ/MZK1O0sI2wFyanuY9PEHjJm9ge2rljBxbhHtOzVGNLbw1rMj2bV7K5N/nIa3ZQeyUnzI0i/lzXFsdi6fwJS8erRv4AXHomzHaj549VPWbNnNwknTKA80ol66B0ON8fHzrzB/zQ5WzJ7Lup0qLVvl4PfKaKFC7r/5ERp07EVmqp/orvWMHzedsV+NZ3dhKZVKFus+fg+pWUcCVhGfvfwuC9ftYvXc6awqCdK6aW1KZn7Iq1PK6NymAYpoMWHEJ2Q3b0vA/+siJH/V4LRMgz3rF/Lai1+wfttOZoyZgl23JfWSBT57+W3Wb89j0eRJbFHr0LxBOoposXvSRzz2bS59u7fCrwis+O49flicS97KRUwYt4wGrVoSUGxGvv0OyzbtZtf2fAKNW5Dp3/+mwP74XYPTsTFCO3nh0TfYsjOXiePn0r1PN2ZOnMSMH39g0erdFFRaNPRW8PGoXDq0r48smEx59Q2iWW2Z99mbLNpcxIb5c5i1JI9WrRohWiW8/PyX5O3aTW5+hJzGPj6771XM5m2ok+LHKVnO97ML8VTsYM6U6Yz4cibhcIQ6HVuTup8NtWj+Jh5/7B1adWxPMOBl1/QvWFSWTquG6VjhXTxyw1Ok9OlJdsAHRjHP3vMh2V3bkh70Izomu5ZN5om3N9C9m8M7z31PflER24vitGuZ82v9X8VfMjgtnREvvcBuqRENs1PwSBAp3cO/73yMpj0HUitZpnzlZO5+dix9+nYh4PtZRxfP/pKpuzzk1AqSt3IOb739Aztzc5k4bhp1mzYn4Pfyw6svs3hrEStnTGFlSQrtmtfe9yL3R/yuBDu2SVlhIXE1TmlhKcefcRpX3nodJ7Qz+fjjaeimXf0SHMehYu1cSrJ7ctFlF3HDxccQtrz0P/UEju9Rj+wOPTjt7GMIajHy94Swq97GQvm7iakGRQUWgy84g0tvuoGz+qXyyNNTqKgIo2a24YRTT2D4Cd2QTY2ywp188/wXhKMqeixEaVin3YBBnHRMC+SMlpx2zjCyqr3lHzCORaS0iIiuEasoo23/QZx71aVce8UQ5nz0NoVxd0etOmplMaM++5HhN9zE9dddyp0P34y4fiHb8kPM+HIkaYPP5+ZbLuPa226iS3giY5cVECsvpDyi4zhgGXGK8orQYnEKi/wMO3M4F115IssmTCe0fT1raM1Fl5zHXTeejGbaxMr3ULd9L048/USO6dPygB74AeNYxCKlfPPVLM665V9cd/1l3PXw9RRPHEsoHGPG++8hdTqFW+64kmtvv54+6Zv5eE4B4bJiyiMqDmAaOiUFheiqSnFZCieffTJXXTeUn0YuQi/dwJrybC6+7Byuue0MtAoNrbKU+t16Mvz0E+nfvdlv3k+8spTyjcv5Yspm1LhGqLAAzbAw4nFWjJ2FJxBi1txdmJaNGilj14pR7CyOAA6VBeuYMGoexaE44YoyUjsP5sTTTmR470a/UjAHD4eKPfmEYzplRRr9zj6F86+/jqvO68DTT4+lLGZUvwAcB8fU2bmrDMOIU26H+emTMcRUlUhFOSVhlT0zv6PtaSdz3pVXcMYxjTCUTIacczL9mwfodMbJnHFuD6xQEQ279OWsS8+nV3YFo5eFiJQVE9bcv2nqGkUFRYTzNvLZD5u54cE7uOL6y7nnzvOZP3UxeqA+w889icbpQfqedTJDBjejYPbnlDcezM23X8XVt9/I4IaVvPPpPKLRCFbT/px+zrlc2Etk2rLtWLZT/c7+JA6RUCnlYY1IeQmxGe+wbmcxcVWnqLAYtWI3s1faXHTp2dz40GVImk2djv057czjSE6vzSlnn0ynHIWKskqGnTqci6+/lFU/jqcoHqekoAjTdsdaK99DRSzG/I/fQGp3IrfeeTU33HUjx7a2mLddp+tZJzF8SCuy2nTj1HMGk+4U8/W7Yzjrtlu48rrLuPuRG1j1+utszKukKF+n3+nDOfeqsxEWfu/uoO0Hx1DJ3x7j2RcnEorpxMqLKA+r2LZNuGALs1Z7WffVd1RENCzTpKBgNzMnzSeumViGxvLv32Hz5t3ohkF+OMhxJw9l+BnHkR34ecfiz2CbcYoKy9CiUYp2hnn25emUVUaIV5ZSUhZh85Kl1B1wLhdccQnnDGmKKEocf+ZptK8j0Wbg8ZwwuCtGPIKnZX9OPutsLuojMm35dsJlJZSFNcDBMTVydxSixsK88OxUTr3pJq676XJuvftq1HXzMJPSOOWs4bT0R+g99HiG9GrMurFfsSO9P3fc5crbhb3DvDtqPfF4JVZaE0466wzOO7UDIz+e/htrkqsHiioNVy+pUd54cSLHXXkt195wKf+66wpCUz5lbUExc958mpzB53HzLVdyy/030zZYxIpdMcChZN0ksns0Y9yCHeiGSUrj9px61lCygjLDTx/OgDZJlBcUUFEZ46e3vqDeiRdy082XcdPdt9CicBzTt1QQKd1DdPlYpi7dRTwWp6yoEE3fv3z8JRwbM76Hz96dxFm33coNN17KHfdcyvpR4whFdYoifgafdiKXXHMquaO/Ja7qGJrGNyM349u6lFW5FdiOQ6Skki6nD+eca67hlhuO5c3nvqM4HKOoUuSYEwcz/PShNE4Wf1NH/1kcx6F4/VLiDXpy7iUXcvW5/YiIMseffgq9m0g07zWAU4/vCabKnsJKTMvBsW1CewqoiGqURgQGn3kql956I+cdk8rjr84hGg0TTm7G0JOGMvzEXngdk8rSfL5+5nPKy8NoaoTi0jBNe/TnzBO7ogv1OP384dRX9r9jZ2px9hSpPP/5csoqosRDxZSG4jgO7FyxhGiDhnz25Vo0w8AyVIp3L2HWnG3EVR09XsGkN79i645i4loUu3Zrhp16AicN7nJAp0B/CsemNL+I6ZOmE4nEMQ2dvLlfsGHdViJxE9uymDFxCbU8lUxeV475X3NGrSiitCJC5c5VfDNuG5fdcROXX38599xxPh+/8gU7iiKUhiUGnTqcK246lx3ffYqmmTgHqOZ/1+D8byRJxuP1EkxJoV6b3oil64nuZ3ILgkB6iy4EipcyfvxMysimbkBC8cjIsoyiKCiK9Ju7HoIo4fF68SclUb9tW2ptnkpcNYjuWMfMabNZsSEPQZJIrpPDuUPT+GT6NgzLAUFA9nhQFBlZUfB4/nhn5UAQRBFZ8eAPBkmrU4+OLVNYsGP/BqeWt4mtTmta5aQRCPhJrVWbs264hHpJBlsjCoM65hAI+Akmp9DptFOYNn1T9a+owsHQKti2cRsbl68htUEOafWb0FjcyPgx09geqUWDFAVw2LZyCTOmzmZTfhT+0jLzG9gW+u71VKa2pkXDdPyBAKm1srn6gWtIlU1mb/ExoH9T935S02jZpRcrRs5G249MOI6DHi9n26ZtrJy/kqYt6uPNbEojXyk/jZrOlhJoVdcLjsOWJYuZOW0O2wrC1b/mZwSZjsNORlw+jq2lcUzLrjqCjLOgKJXzLjuBvPlziesWkiTS7qyL+HzSBnRNZeGPU2ncpSOSKILjsHPZbGZNm832Mu1gjt5vIogSiseVp8xGLWhaMp/iUq36x35FSuMe9MouZdS8nVXHpjJ1ug5i7bSpTJ22EF/txqR7RWRF+XkOKBICNiV5u9i8fgM7CjRa1g/+apGwLYu8jRtI6jGIeplJ+P1+0hq04cbrTiDZI+PxKO7c9SgItsr079ZzTNfmpCQHCCYFaX5ML8y1C9ANm0jRbras38ziTZXkZKcflDm4F9kbYPB1VzH+qynsKY/iAHJSbTo1V/hp1GSWbonRumESoqzg8cjIitt3SRKxdI0dm7exddUy5JxGJMv7UX22wbhFFr37tCAYDBBMSaX7iWczvHNtPIqCp2pcFVlE372ZguRONK+fhs/vIyk9i+HHetmQW4hhxti1ZRub1mygwlMPr/c3dsAFkWBmS67qvI1pi3ehGRaOA46ps2XVGppdcB5ntC1lV2klpiMip7bFV7mJbcVhYkXbGLU2B6/HPdJ0YvnMmTqbWYs2HrDy/21EUus05+K2W5m3Mp+45h7TN2zfgeK5Y5gyaSHeZm1RZFeWFUVGUTwosuvGEi7czbZN21m4poRG9TL2u8gY6nqETsfRrG6VrsxuzPnXXkSdgK9qjVCqXBRg1boQA4a0ISnox+cP0rLvqWydNIeoaRELlbBt4zbWrttGvTZNUKrtbu4PQ92E0bw3LeplEAz6SamdTfcBLZg+dzffLUmmfZsGJCf5CSYnM+iCSzimRSqOGWP8R1M489Tz2D1zJqUxHQSpqq/u3HBdgBxMM8IWI5W+bXMIBnz4k9Ppddowfpq0FcsW6HvBReyYPpldpTGM/ejL/wnHQd22mlDtjrRsmErp1g1s2lZE+x5N0XQNU61k55ZtrFu5Hqd2E7yKiBYroLhxfy6/sC3LF65GM10BkhUPXp+fjEZtaKWtJq9Yw4qXMH/abGbOXY5zEFccQRDJaNKOwJ4lTBk/i3J/IzJksUoO3PFVFPk3jDMBQRBQPB58/gBNuvTCWPQTEc0iumsDs6bNZtnaXAACmfW49KwGfDd3G5URDRAQJQmvV0GSZTxez6/cUfYhiKQ27MRJ8lyWbtpDTDPdlyjbZOHMpVx+1SkE5o4kHNMxbYfU7oMoXrWUcCRC4eZ1bMw+Dq/PrSNfumUVM6fOZtWmPfxKIR8EZE8DssVCNpdEqSwr5MuR5WQnBRGwsfRSVpcEuerSwSwZMxNVN/nlvoDD9pWryezSm9rpKQQCfpJrN2JoZhE7dpbjGDF2b93OykUrEOq1QlEObHeTP2NwOlX/WKaBZRnYwm8YdIKAktmUa++8jv6d6jPxnVeYmhuvdkMCguCAbWFZNrZtY9kgVAmT4zjYloWuG5iSgiSKBOs3p3ffHrRtlo2AgOLz07DHccgT3mJjQeS/v7wGcLBtC9M0MXQLv2//wyZ5FBy1Esu0sG0bQ9PQdQMEsDWdmG5i2w6WaWJoMbzBAKIgYhomjuNgmhYIrvxZZiEzx//Et/MrOeeC4whm1uOyO27iuN4tWfrN63y3tAgEgZw2HejTryfNsgLVu/O/IQiIsoytxTF0E9u2MQ29yrdWQrZiRGN778dANy1Ejx9JdN0qbMsdA8fB9fmL72LGxJ/4bKmHy8/qhuzL4Jybr+XkQe3ZNHYEr4/fhWlD446d6N23B43qJO9/0lfhTa7DsNN68807o1z/KUMjsnseZkYDRCmDZG0z28riCJJEUt3WpM76lk07drAs3oS+rTJdxSUI1G/fg159e9Io7ddHWjWC44ADtm1hGCaa4/p2/RGi4qXnKcMJz/qR3aE4pg3+nK7cctvFdKgn8cnTr7IsX61+mas8Vi/l89c+ROl5Gl0a+JAFx51ze5+RILj+UpXRKl8nG1NTUVXjV8aLIIooHhvD0LEs9ztMVcNRvIiCQ2jDUiZ8+Bq7m53GoA7ZSAdgABwwgkQwpR7n97GZPH0NMc1ClJM44brrOGd4T0ILf+LJEauwrF8v4qamMmvKdF7/fD3nXjiUVK8MuHPOcWwMy0YUJfyySiyqY1s2tmWgaRqGYfHfwyAggCRhaxF03cBxHCxDJ6bZeCUZnDBLp07mww8nc/adlxLwe/7r6l8iiDLtz7yJDV+PYGtRBNOy0WIVLJu/nq45Ilk9OzJ6dh5x3ULx+BnYryETx65gzdw5DLnmHLyKgCCAEKhD93496dW56X53Z/4sksdPixOuYMtP37GlIITlCGQ068It915Jx8ZePrj/dnaFqut1V75L1y9l3EdvU9b6dPq0qYckuC81e3UfoogkeYmHQ+hVutL1xXNl6hcIIhIm0ajrd+zYtut76/EjiQIVu7cw4asRzMjL5qITWuJVfu0LuQ/HAcdBkDyo0UoM08SybUzDwNQNAgEFnxDFqOqHbVloahzdtIgV7GBcYSvseIyO0ibWbyvHMK3qfwFwN10czSCm6di2u5apsRjeQABBEPAEszh9WEPG/TiXSEz79Rj+r8gKjq6iagaeQDJBv5fNYz5nx54IVryY+ZPH8Nn3G7nwupPwKQ67x39Bs9YZyDlt2bN8JWWRqhdgx3GPunUdzZFRJAHBm0aXPj3o1b3d/tf//wFPraZcf8+/6N+lPlPefI6FeRGMavIgCMK+tdLVYfY+I9RxHBzHRldVTNH1TQxkN6VX3x50aNUAQQBRUqjbaRCZi79m/Y6S/e6I/x6y4qPLZTez+Osfyd1TgWU7mGUbmb/ewW8JDOgSZW1BJbphoQTq0K1ujLmr81k8ayUnn9ySoN99+Uxv3JrefXvStmnW765zfxVBUuh7bFsWTFzM5mVLqXPGWaSnBnAsm+IFE9HS6yKkZJG6exGlUZVYJFLlTwwgoCgS8aiKYRjuOJsmUdXE4/WAXsrCaRP54MMFXH7nufg8Mvt9D9gPf7DSCUiSiCiK2KZBpKKS8qIiti2cgad5F5IU0TUu/uvHsW32LBvPxz8sJz2nOQMGt2T3Hg3HERDFqgAJUUROSSVF30FhUTnh8lI2VaaQkexBwCIcqqC8pJj1i1dD7zNJSvIieb14fV5kUQRBQJJl/MlpXPDIzXzy0UzsKl9NQZQO2NfltxGqgjlc5/14NEqorIz8HZtYtlViQI7XNYr/+74dB39OB7rV3sPiDTspL6+gcMdWXnnkBXZHA3RrrjBh1kbKykOUFe1h6ttfceFpbcjIacquLVspK6+geHseFXWaIiseUjI6cMXN/6JXWgnrcyso3bKU196fQaB2A44/tyd78qOIoozX68Xn9bi7HL9YFv9HRBl/TmcaODtYvmEnofIQhVs38MjNTxIyPZwyMIOpE5dRUlZBWUE+y2ZO5NQbh5PauBG7N+dRWhKiLG8rUSULr9dDZnZ3rr/9DlqFl7GjOI6et5I33p2AklGPvoOPoWhnCYIo4vF68XgUBMHGdtwF5hfjDIiihChK1G3TnVM7aUzebmOoGotHzyNJjrJu1Ro8SX7GT88FUULx+bniuq6MfP8D2h3bh0CVk7YkSSheH16vu1t8UMevGpLkBpsJgk00HCZUUsq2NWspb3U89Wr5fiVPtlO12EoigiAiiSK+1AacfEZvvvt6HqZpsm3cG8xaW0Tdlp3o0jyZsnIdQRAQRNH1CRJAlL0cc8b53Hv3+exYsBjDEfA3qMuaZXsoLw1RvGMN/oz6NOveHd/maWzeXkhleYjta5fw2KPfEbXsn+eDICB7Uzj5msFMmr+OwuIQ5cWFLBg9k3qDTyDg89B02Lnc+szj5M6aS1hzd+z+V0RRRJDcPiheH437n4V3yzzWF5nYoVxeeeZzLH8GA087jdDuQlyd6c5fAXf3JCmzNlfeeCUXt1PZklsKYoCAN8augmIqykpZsCqPZqlpXHBaA+bNWEpRSYiyPQVM/vgtflgewnZcY1sURRAlgk060dq3nVUbd1NREWbP1k18s8JD5zYNCCY15Lybb+Cq01syd00I03L1wy/1pIMgCEiyhOxL4tZ7jmX0pPU4jkMkdzVrw0lsXbmOTTstisaMoSSiI3s81O08gJS8SUyZVcaxLZOrdtVEJNmLz+fDI0nuwlt9EA8EoUpHV+k+f1IS1956LBOnrse0bFZP/JpRi0qo16YLg1qnEqoyBkRRRBBx5U3x0OqEc7jx8QfYOnsRUd0io146RTtcHZe7dTu1OrcnmNSWertnsmJTPuXlFeRtWcmrD79OuWZWfaeAKArIikLfga2ZOXYhRSUhKkqLWTLyXQZedgJJiodG3Qdy88O30Di2kYq4+wL8K53huIaKoUapKK8EuRk5ZYtZvrmAUHkFBds2Mn3qTs44tilXn57MshUbKC6toLQgj69feokp6yvJXTGDFn0bsHLJCgLtmjN/6YaqQCV3zATBNfxFUcLrS6V3I4MZCzZTVl5BacEuxr//E9ed2cQ9eRMlcroNob13J0vyTZw/Wob/DKJIoHkPGuobWbRmF97MOmQkS6y3WtK8YSaBrDZccsttnNHNz6q8GPFIJV+PLsEu3M2q5TsI2rtZvL0SQRTQom7Q07ZVK8jP7kPjugE8Hg9+vx+vR8axnYMyv6nSvvlLJ/PeyOWkNGzF0EFN2Fnufr87vu7xvT8lDaloB6FQBeUlRWzUalGnlgcBh1ikklBpCSvnzKDW6ZeRGvCg+Lz4/H7XbsDVjZ5AMmc9eCvjR85BtRz3BRJ3Pdi7Z/ur+eq481WQJLz+JG67ugOT523FsmHL/IXY9RuwaukyIlmd+fKHDRimhSApdDnxWHaP+5plJXXJSUvCI7kBworHh8/nRRLBPuhvHCBKEunNe5IjrmTWtEWc1CkTv08Gx2bypE0k+3WWLdpAZqMAE9eXM/XFh9iys5DicpWUQBKt+vXD3jyfXbuLqAhVsHPzGhaanWjXIhMptQkX33o7lwzOZHFuBKtqXT4QfjdoCMdmz5ZN1OvYiS2T5/DdxGlMm7GcrD6nctHJXZAci2g4QiwWR41raJqBqCik1G1E8dxveePdn9hlt+a287vikQXM8t3sEbNo3agOsjeJZjkiTz34KtOmL+L0Rx6ibZaXtYsmMnLEeKZNXURypyHceH5nRCvC1I8+YMzYGcxdVkyvga3IX5tHl2N74vOl0DGwi5K09nRqlI4VLmJTsZeenXP2u/1+QEFDjkMkbwtCsw4E8lbz4UdjmTJhFnusbK6/7UJSfBJ6LEo4HEONq6hxDQsRXyBAsw5tWT/yM9589wdmL8zn8ntvom2jdOq3aoe+ZjzPvfA5s2atoN8d/6FfszS8dZrgbJ7CS698ybJtJvc9egVB2WH5snyOHd6Vtq0ymTh+Df0G9yWwexrPv/IdC7ekce+Nx0HxBj78cBRTx09je5lE727N93/PfyloSEDxeGnZsSULP3+fdz8ezbylJdz73N3UTfdTv11n2DaHF5/7iInTl9P2rFs5oWMG/rT6iJtm8vLLI1i6w+Lquy8nUzFYsrKUocM7071zKiMmFjJwYFc8hYt48cXPWb3T5MF7TsVTvpUP3hrJ1Ikz2VzhoWeHRsQiP8uXqhnIioJRmkuh0ID2LbOo3bgRpYs30qZ/L2YtMbn8jvPo3b0D7do3YNmkOXTqWp9CuxE9OrVkxuSdnH3Zceh524mkNiPHV8qP737E5PEzmF+SzuDuv+28XZ0/FzQERRvW4G3RDX3XfL7+aDRTJ89Dr9+dW6/oR9AjosWiRPbKk6pj2QIeWWTxinyOHdCYLdsq6NG1Oal16tFEKSRetwe9e3Vl9juv8fl30wh0Gc65g1sgiwKxvM1YzTpR36sQL9hIZXJr2ndojbxnITuCHejYugXxmV/y2ts/sKosk2uvP5VaGZl07tSIL194hi+/ncLyAh/3P3Qh6X4ZAYf8TVup1bkjmT4vgTrNyA6v4oWn32X8hAVkDziTi4a3w46XsyWawYAO9WkSmcNKozGtGqT+4U7I7wcNQUVBLrHUlmSrm/E1706d1CTadGnAtnXlHDO0P42DBfzf4+8xc+5mHnj0CjKTPGBrbNpUROdurZFEky2L1tNp2LE07dme8V/OpPOALnRqXpv3n3yOH0bPI/uc+xjcrjZZrbui7F7EKy98xISJS2lywkWc1qseXkXEjhWyO5ZKu6Z1UGQv7bq1Zc7Hb/Puhz8xbVkx9z1xJzkZXrav3UrTPl1p1iiHxSO+peMx3XF0jWjkl89XFnQWLS1m6Ikd8Kc1IKUiF6lhR8jbQJ1BF3Dm8B507NyWhuY8IhntCReV0bFXR7I8cUpanEDvZn7mzl7PsFP7s2rK14weOYVpk5fSqP8xZAV/GcxxIEFDjh1l87oSOnRqxJqNlRwzqC2BtHpkxPOxs9pxzIAOLPn8FT4eMRmt/cWccUxTFFmgZNM65CZdyKnlQw0VstvKomerOrTU5rPabEyPPr2IL/uJV978lhW7vDzx8JkE/D56HNuNOZ+8yUefjGLJxiiX3nst9dL8iEDB6hVkdu5L7XQ/6TktqW9s4snH3mbChNmkDLqJCwc0QJaibNlu0bV7a3Jq2/wws4xuHbLQYlFi0ThqXHWj60WZeNkuvn3zA6ZNnEXWsQM55fg+LP3qPd774EcWrS3lgntvpklWOlltemKsmcqLL33GlKmr6Xbu5QzrUou530/isttupFv3DnTs2oW14+fTvG8HgorDjrVbadWjKx5FYsfiFTTsP5Cu/XsRXvIjL7z8BdNmrmDQXY/SrUEKxp4NRNPb0rhuOo3b5pC/Mo/uA3vudxfc+UtBQwKi5KVz33bM/ehtPvx0DPO26jzy2HVkpXrZvD6Xjr070rJZHcZ+PZG2beuyWG7HzVcMo0vXdnRuKDJ3WZRGKfl89PpIpk2cQZGvBbfdMIw0v4dN88bw1RcTmTpxPqnd+9Eo3XvAu1u/FzQkCJCU3YDi2d/y5js/sMluw01ndsXvk6nMXYdeux2NspPxJmfQumGEpx99kymTF3P+XTfRtmEaWxaMZcRnE5gxfSH+Nsdz41nt8XssZnz8AWNHT2X6/Hx6DGxNwdpdtD+mO8FgCp3Sytgt5tCtTQMkrZzlW1SO6d8SSXCIh6NEq2RIVTVsRwAjypodOv16NyVYpwneop14mnShYsMmht10Bcf26kSnLu3Z+P1ntBnQi535cXp274BQWUCLk0+gYbLAio0RBvbLZMq7nzJ2/DSmrCxh2KAuyNL+/WH/UtAQDptWbqF5n040SvWwUelG347ZbFy8gnYDerAi3+aG686mW7cOdG5bj3Ffb+Ccy/vy4mOvsqisIRddeCy1a9ejU9tsvnv9ZUZ8MYFVhX7uvPscstP9bF67ldY9OtGubWO+e+87+g/qdcBBQ0JhSaFTZhbu11D5fWzilXv44PanWamZgICseDnttjs5oVN9qJow+zVk/0bisTiL5y+lY9cOpKWnVm8+IExdZePIV3l59A7AfXuu3+dUHrp+2AEYLPv3fDngsXJf16v/9ndR4yqL5i+hQ+f2pGekVW/+n3Cq+lO9Rwd6P7/5OccmXrad5+55hV17dz1kL1c+8hA9m2T+2SE46ITKQzz3+Es89OT9f8KI3z+mFmfsO68xbtEObECUZLK7n82jNw/41bjuj98cwz/gr163D8fBwd3Z+V+IRWP834NP8+TLj1dv+hPsf14dCH9hSv2CPxpHS4/z02NPMym3GKvq+bbpdy43X9uf3zkAPqhoqsaXn3zDqWefTEZmevXmP8Uf3e9v8Vev+2/+6CnHyvbw+INPUxp2/exlxcPFDz5Fv+a/NnI4CM/+j/hf7tm2bRbNW0LT5k3IrJ1RtQN35PLe6x9y5vmnk1kro3rTLzmgh+Lufv7Vsf1dbI13732c5UUhTMsBQaLH6Zdz2amdf99lowb44csf6TuwD9n1sqo3HXycqtlVbUj/Fxmuzv9gcB6ZHAyD80ijJg3OfyoH0+D8p3NwDM4Ev8fBNDgTHBr+sQZngn0cUoPzEHAge/QJEiRIkCBBggQJEvxlEgZnggQJEiRIkCBBgholYXAmSJAgQYIECRIkqFESBmeCBAkSJEiQIEGCGiVhcCZIkCBBggQJEiSoUYTtududvNAOLHv/VROONjRNZ/niFXTo3I5gUrB681GJrrv33K5j2z+ZzyvBbxGJRHnh/17m/sfudqsvJPjLaJrmRvw/cV/1pgQHCcMw+G7ED5x85kkkpyR0wJGA4zisWLKSJs2bkJKafIB5OA9fPnv/C04/9xSSU5KrNyX4DcaMHEe/gX1Izzg6MksI23N3OKUlJdV/f9SiqipLly6lY4cOJKekVG8+KtE0jaVLl9K+XTtSUv8ZqaBqmsrKSl544QXuv/9+fL5EWqT/hXg8zjPPPMOjjz5avSnBQULXdb755htOPvlk0tISqdGOBBzbZumyZTRp0oT09DRE8chOi/TxRx9z+umnkZZ+dBhPh4JRP/1En759qV27dvWmIxKhrLzMSU5yS6T9E4hGo8yaNYtevXqRkfHPyAcWi8WYNWsW3bt3p1atWtWbE/wFSktLuffee3n11VcJBA5yHft/GJFIhFtuuYUPP/ywelOCg4Sqqrz99ttcdNFFR83idbRj2zYzZ86kVatWZGVlHfF5OJ999lkuv/xy6tSpU70pwW/w0UcfMXToUBo0aFC96YjkyN6jT5AgQYIECRIkSHDYc+gMTsdGi8eorAhRUVFJXNWxLBM1FiEUClFRGUY37epXHXHYlokajxOLxVA1HV3TUOMxotEosVgcXTcwDZ1wRYhQKEQkpmLbFpHKEJGYhmU71b+y5nFsNNXt894+2s5v9cPBMs3f7qdjo6kqqqbzG5/4yziOjRaPEg6HicUPbKwc5w/6e5Th2DZaPEKoohLLBsvQqKwIUR4KEVMPbMwSVOHYGIaBZR35eulwxbEtNFUlFo0SjcVQVRVNNzBNG8exMQ0dTTNwcLAtE003sEydcGUFoVCI6H70gG2ZxKPuulIeKqe8ohLDstHjUUKhckIVlWiGiWUaRMKVhMrLCVVUEIurv6P3jl5sy0LXNHTzyIvjsG0LLR77ee0yLLdCY4IDw7HRNQPTNNDUeJWdEkP7XRvgryPde9+9j3o93hp3SLZMjZ2rZ/DEEy8wauw4dqmpdGhai1UTPuTfr37GpJ/GEWjRmxbZNetQbBgGubm5NGjQAL9///V1/xe0WCGj3xvB6m3b2bp9B8npHuaPn8SsuXNZu2UXJeUqmUkGz953B9+Nm8S8LTF6dW3JD6/dwVujN3DCcX1Q5IN7dLL3nuvVq7ff41/biLNk/JfMWraR9auWk19pUbt2LbyKhG2ZGEaVweY42JZN6cb57NaSSU/yATaGbmDaNo7tgKVRsuAzPlyq0rlFNrZlIwgCoiBg2xaGrmNaNnurIju2hWEYmLZbr1WoWjAMw8S2HQRRdOu4Og6mGmX22K/5YuRPrNsZpXHzpvhk97sFwHYcbNuu+k4T23FwLJOiNbOo9NYhyecB2zUizKp+CYKDbVmYVb9zHMe93jRxEBBFsXppWajyO5wyZQonnngiiqJUb/7bsC2dVT8+ww13P88J51yCunM+jz7yFD+OGs3maCrd2jREUaT93tPfha7rjB8/ntNOO61609+KY2qsnj0JsVZ9/Iqyr7yzY9s4VQu1oev75gaAZVmYlgkIVfL1y+/8uzBNkyVLltCxY0eCwcMnWNIyipn20wSmz5rJ6o3byS8oY8fCuaQ3boFPclg0/gfWlvtpWj+d0M7VjFql0ljczv33P8HYCaPJ1erQqUU9vMrPLmGGFuPlpx/hy+9/Yty40Xw8ZgmnntCPBV8+z+Nvf8NPo6fQtFsf0uQSHr/tZr6fMJXJ06azxmxM39ZZyIdJmWfHccjNzaVWrVokJSXV0BrtoEYr+PKjj/DVb0XtVH+N6Ya5c+fSuXPngyh/Drq6i68++J51W7ewbsM2LE8SmalBZEnEMk0M08SuqrnuOPa+31m2jSCIiEKVwa3rWJaNIIpQNb8RBPe/Hadq48Ko+j7HXb6q5pX7nRaCKCEe5Am/YsUKmjVrRkpNxZtEi/jsu6U0zQozceJspk2dzaZt29HldOrWTkE6yDJ3cL/td7BMjRUzl3H1Qy/yn8cfIbZuJNFwiNnL4bWXXuCJ/1zD9+MWVL/siEOPFzF78lyOHTKUE04YRlZmA/oeNwChNJfaPY6jX7fm7Fn2LbWvfIE333idPpGJTFgb4qRLLiWtIoptHfy3ij/CMVVWL55LlyFDOOnUU8gsmshj700gFIlSuGsz00b/wIwFq9m1aRUlFZVM/uxZPv5hEtv2lBEu3cOyudP5YcwMNu7YycbcMqKxKGUleSyeOYnR42ezs7AC0zSIluezaMooxkyZz9YN69iWX055cT4LZo/nh4kLKQrF0dQ4eds3MGn0j0xdsIbSsOYu7rZFrHIJr8+yuOmm22gr7+CHmWvZvGY1UU3HNHXK8zazc08J+ds2MOGH75m3aiPlZcWMfu9xvp8ym/yKCOGS3SyaNYmRY6awPb+MeCzMxiWLWL1sAd+PHMe6rTvZuXk1Y34YyYp1uRhH2K67KCm0Oek6mpeH0C2Dn156keNvfoY333iJlPVjWBeOk9jkPDBsS2P1vAnsLipkxbqdxHUTQ1PZun4j5dE4hTvWMe6Hb1mwYgObli4gHFVZs2Ita1YvZOX2Uqwa2CE42hClTAacOBS5LJeMLgMZNKAr3pKxrCkoJhYP8/kX7/Dx12OJagZrZ3xNhT+ZmR88wU2PPcdrL73A7ilj2RWLYViWu/hbFpLHz10PP80br77KM3eeS+vGHRHLNvGfH03efust3nrmfN79ai6xaJT05v157NH/8NQTT3LXyW0OG2PzUOHYBpW7RjF+4g+MnrsK/W9Yf/46DoZewNI8gSHDT+XkwR345v9uY9HuEPFYmC1rlvH992NYumYLlbEYpfnbWbN2PRN++JY5i9ZSHo5hmiYF2zcyceT3zFy8ipLKGMWbV1BcGcM0LaLFuWzbWUQ4VMqqhbP5btRUNubuZvXmfGJleaxcvYrpE39izNTFFFXGfrXbftgTK+Sr72ZhBppw/AlDWDxrG52OPZbOresddGOTQ2lwevypnHHr3dS1chn7yRvkBQeSkdWI2x+5lvK1c3jn0f9w3KDO1S87IrEsE03TsCwHxevDHwgQqPrxKDJFG9YwsEUqXq+ffn06snn7biRJdnfy/iYk2UMgmExG7WzaHncFvnWTmL9hGff86ykyOvUjR9nDyWddzsaQSqO6SdRr2IysIHzy/O1MLMqgX5eGfHb7qTz03Qpi8TijP/sGq1572tSq5IbrbqS4rISnzjidXWkd6NuhLo/dfDGfjFvOuA+fYY3clrb1ovzr9SkU7F7E3U99S/PO3UkpXcCtD3yGYbtvqJJci/C6OewOGfQ863quHdaS7XM+YcT6SsIVZXz00GOs3V7IUy+9T07n7uyZ9g6T9kDTbC9NmrcgXdL59+03kR9sQ4/WSTxxyx0UFe3i7VvvYG5pgJ6dG/L87Rfw6vhtdO/dlckv3Miqinj1oTqsEQSQJBlJFMDWWZ7vo0lOGoGUFJo2T2HtVpMjak05DLD0EO/cfgM7iyqJVGzlhfdGUbltNpfc/izt+w2mPps49fxL2FpQyrOP3MCYtQZNs5P5h9kufwlRkgkEAvh8PgKBAEkpqbQ+6QwmLSsjHFpJStuLyLa2UFoZZt789ZzZJpXh//6ONg3SEbCIp/gJmDoVZSUUFhZSXFpOXLeQFQ+iAJN/nMWA804kXl6Mt2tPknwKaemdqNixgbhtE940i4vPO5ezTjqFt+bkEjeOvGPl/wVDjTH5jS+49I6HWLVgCaGoXv0jhzcCSLJCUnIqmdmtuOPuq3jqs/ls+vpWXlkUp2//Hiz99D98NHElCyZ+zsPPjKRNz35o057ig5krqNg8nuv/8wVt+x9HWskcLrt/BJUlc3hp4g5isRgT332R2RsK+f6tB/hqo0D/Hq0Y++/zue39qZStHc/lD7xDw079yKqcxfXPT0TVjYPuSnYoEGWlah768QcC+Hxedw05yBwyg9NxHBwE5GAGXQYOIiO2xfXZFCR8tZpy4lnD2bwxr/plRySWobF9+3Z25O7hjzbITFOr/qu/HVEU8NhF7F40j3pDzqVr84Y0bt+XJ07PQlI8JCUlkZaZiWiWsjGUw22ndKBh42Zc89STpHlkZI+fM667kf5tm9C4/QCu6iwxryCfydJJnNK3DXUbtuDWS09AVjy07dadb565m3GrLd68rhfFs75jx6bp3HfvnTz18Sh2bp+NatgIokQwvS1ffPgIFesmc935p/Hl0gra9h7OuJe+Y09RHltan033Vtl0qRXjP//3KikDbuDkJikkJyWRmp6OoBewYn0enz93B3c99Cw7irYxvVDHl5LO8V1a06B+Q47v24teA46jbnY9hp02gCU71erDc8Ri2tYRqQz/bvwpWdx6aSvmbNnG1qkjaN69O4Ub19HpjFto3qguTbsdzwWN0hFFAa+/K2ef0pPkJN9BP177RyAoJGf0YdOMGawd/yOtenRlQKMg81etZG1lJ1KTvciKgm1E+fixe+g1/BwyfRJlZWVVP+Wuu45jocW2s7o8i0HNfpmGx8HBsSyUQH2uuu8Zxs+YyfixH1Ly9uOUhWK/+OzRjUO0rJDPd/egScMWdIguZeG2iuofOqJQFC9m8W7ee305t53UmXr1c7jk+vPYsmwBMcNh0MWXUD8nh743XEPB5jLmjJ7KsLPOpVlOXXqeej4N1n2Pv9GpLHrvIwrLS5iyJ41ezUW2Fqdw3fHtadi4Mde/9BJ1gz4EUWLo0CE0aViPfscOQ1u7DsOpOo5PsF8OmcGphkv54LlXKBTSadqiM428ZWzI3cD9j3xBSk5jWvY8mdVrl1a/7IgkkJJB127d6NiuCT75l4uOJEnUadGGuRvKUdUYi5dtpnWzRn/r7ia4ATmObaOrUUpLtrPN05WurWpTUriDWFxDi4dYsqBs74exLBtJScYbyadANdyAsC3LiRgWpqmxNXcXsZiKrsXYtruSpklBpMrFlFbomHqUDWvysEwLf60OfPrR6/SuHeamp8ciZtZjwNk38sJzL/Pifx7lirNOxSeLOLZFZPcsvpxXQt/hF3DfFcNYOmMZ6U3aMizwLavGvc4ZJ3Yh2SfQ+6zbef7hqymZ+xGfLq10Aw5sG1lJo3brPjz53Cu89Ozz3PWva+iW7UMS3R1UBAFZktjrtSn8hv/mEYPopWNWnO07y4iGQuzerdOhqYx8yGb90YGo+MgaegMTv5/LB+M0jh3QmbSUAKUbNxDTTPRwiFlFsSpfMRlJcn2KE/w1/EkpdNgzhY9/1OjQtjE9ujdl5GdfkzzkZPwS6JFSnr/tWqSBN3H2gJYEUzJo0aIV7dq1o3XL5gR9XkxdZcnXX1D/mBNI9cmkZdZGX7mIyrhGqHQt6S074bXymTxtKVpcwzAtVHxI0j9ncjiWzp61oxHSK/j+i08J2SrTps1DPdI2eR3XD1/XYsyf+ANDzxpCs8YSJZWV6JpGyc4d+FMy8Siy+3wFAUGSEEWRzFp+9uzaTVw3UYsLKPDUxp9Sm/uP2cXySR9Rp8sAaqfWJsksozAWR1U1YluWUhrXERCQRAlBAFEQEQQnMe//gEM2uzz+IH161OGtxx/k6eefIy+5By2zshmUs507H/g3Tzz5JKecMKz6ZUcckuwlVrSdxx5+kIcee5LNBZWIkozH40WRJWSvj/o9z2XL23dy7333M0s8hiEd6uDx+PD7PDWyjf1HCKKEqBfywqMPcd+DD/HWFwu5656radXjFAalbeO2u+7n6WffxN+uAT6PQlbH/kz9+HkmrirjkktP4MlbbuORx5/mu3UKycEAwUAAuWQlTzz6AI8+9iT2gJtoVTeHNx8ayv2338aDDz7OdlPG6/NilK/lP488x0+TZtOtX0caH3M5zSuX8tKrr/PGh1/gb9EZWXLPir212hOe/Qb3PPAQb0/O4+yz+5KUmsnAc8/nzWlJtGucjSTKLJn0IS+8/SmLt+n0apZEVqeBfPj8kywogtvPbs8bL7zIa6+/xvw9PuoHg/i9XhRZdJ+T14fXIyGIEorXh89zpOWnFRBEiUBSErIkc9bt/2LUqw9wz30PUlR/IG1TA4du0h/hCIKEz+/Do3gIJmfRR5uL1rUfrbPTaNznVHqK87njnvt56Kn3aJuThkdRCAYDyDXg+3RUI4j4/H48Hjcwy+MLcu65TYh07k/LOilkdeyPsi2XM4e0QsBi1ms3MalQYeviUbz40vOsLYhjCyKiKCKKbqCWYaqM353Bace2QBIFPNltuPM4kzvuuofbHviYy8/sSXJqC5oEd/Lwvx/m30+8RYfrbiUj5eAHkh6uWEaMuWOW8eJjD3Lv3Xfz0HPPI+xaQVgzq3/0sEUURApXTOSR++/m3nsfZGPt4dzYuxHXvPAK37z8JI8+dB/PjC3h/LOHUSs9Ga/PiyQISLJCICmFdqfdRHreRO67515uf/gtLn3k3yQF/PS56l988e0c+vduS3JqJudcfDof/t/jPPLwY7w1RyUjLQXFoxAMVgVZiRLBYBDpSNukEOWfdZYgVuk7ucbu4dAlfndsdF2viv4VURQFWRIxDd2N8BIEPF4/Sg1vv9R04nfb1ImrOrbjIMkKHo8HEdtNrSLKKLKAZVb5eDogyx58Xg+2pWNYAh5FRjzIRucfJX53bIt4PI5tOyCISLKMR1EQsDF0HVXVERQFWRRQPF4E2yCumXj9frAMdE1Hs8GrSCiy7Eb0WSaOZWE4IgG/D48iYeo6qqpiCRKKJKJ4vO71hoFuSQQDXmQJDF1Hi2uIXi9erxdPVdT+3n6aho2oKPh8XkRbZfWMz/hRPZZ7T2yBR/i5z6LXi8/jAdtA0y28fh+YBpqqodsCgaAf2Q1KRJQkJMHBtCwcJBRJwDQNbEHGq/w6a8DhnPjdcSw0VUfx+RGsvfIIitfrytffvJtencM28btjoemWKxuiK5eWI+Dz+RAcN5WMGleRvD4EHLxeL4Zh4vF6asTh/n/h8E787qBrOoIkIcsyQlU6KsOy8XrdsVbjKpLPj1eW0ONRNNNGEAVEQcLj8SDJv8y8YFcFEYmyB1lys1wYuoqqmwiCiNfnc9cfXUOvykihKB5X7x0m06OmE787toVpWjiCiEeR92URkRSfO2YHmZpI/L43DaHluC8akuLB61FcmVE1YqqB1+vF61X2RZ/LigfHNjENE1nxYBka0VgcWfHg8fnwyDKObaCqOpLiccfGMtFVlahh4/PISKKILCuYponP78poXDXweA+u72ONJ37f128PkgCabiBKMnK1+XSwOHRaURDxeH0Eg0kkBQN4PQqSJOH1+UlKSiIYDNa4sXkoEGUPwaQkkpOTCfhdpSZKMorHU3V/VW9XwSSSk5Lw+zzuRJE9+LzKQTc2DwRBlAgEk0hKTiYpKYjf50Wq6rfXHyA1PY2UpCCBQMDdpfX4SE5OwiNLeLw+klJSyExLISkYxOv14vNVPeeUVNJTk10FIIgoXh/JqWmkpSQTDAbxKDIen5+k5BQy0oJ4PTKSJOPzB0jNSCc5GNhnbP53P1PSUkgK+t0FQ4swe/wsruyTjadan5MDfhRZQvH4SEoKokjurmVSaioZ6Sn4PAqyrODxuC8/gihVLToSgugaxPszNg933J05P5Lw3/KYhM+jHHbG5mGNIOH1elBkCVF0dVXA70MUXFn0+gOkZmSQFAwQDAaRZRm/33fYGZuHPwIerxdFrtpZEdy5F/D7kUTBDSxKSsJbpQs8/iDJyckkBZMIBPz7XRxFScLj9f5sOAkCitfvXpcURJElBEFA2bcmBav0VLUvOooRRAnF4xpUwD4Zrwljs6ZwZSOZ5OQkkpKS8Hs9bpo8UcYfCJKZkUZS0I8iu2uwx+MGk0mSjNfnulB4fH7SMzJITk7Cq8juEbmkENgnE+6a7U9KplZ6KknBIH6/H0Vx57srs1LV3D9yxg7+u9/uDqfX657E1tRdCFu2bXUKC/Zg238Q3XKUoGkay5cvp3379iQlJVVvPirRdZ3ly5fTtm1bkpNrNs/pocYyNFTDQfEovzBOa5pwOMwrr7zC3Xffjdfrrd6c4E+gqiovvPACDz74YPWmBAcJwzD4/vvvGT58eM3l9EtwUHEch+XLl9OkSRNSU1NrKA/noePzzz/nlFNOITU1tXpTgt9g7Nix9O7dm8zMzOpNRyTC7rw8Rz7IW/WHM/F4nHnz5tGjR49/jOJVVZW5c+fSvXv3xGQ/SFRUVHD//ffz4osv4vP5qjcn+BPE43HuvvtuXn/99epNCQ4Suq7z/vvvc+GFF5KWlla9OcFhiG3bzJ8/n1atWpGRkXHEG5yvvPIKl156Kenpv8wakOC3GTFiBEOHDj2obgh/J4fOh/MwoaZ9OA9H/siHM8Gf53D24TzSOGx9OI8iDm8fzgT7o6Z9OA81NeHDebRT4z6ch5gj+5UpQYIECRIkSJAgwWHPITc4LVMnGokQjanYtoUWj1JWVkZ5qAL1KKjyYFsG8ViMaDRKXNXQNI14LEYkEiEajaFpOoahURFykxSHo3Fsy6SyooxwVP17SmM5Nmrc7XM0GkPTDbde7P6oqin7m/10bLS4Slx1S1IeTBzHRo1FqKioIBo/sLHaWwP3QD57NOE4Nmo07CbDLg+h/t4zTfBfOOhqnFg0SjQWR9d14rE48XgcVa0Zuf4n49gWajxOJBIhEom646y5mUscpyrjhGa4uXQtA1UzsAyNilA5ZWVlRGK/1gO2ZRCLVP6cDL48hG5aaLGf54NmmFimTrgyRFlZKWXlof1+11GL47jZQDQ3g4Xj2Ji6RjQSJRqNElO1I74Erm2Z6LqBdZDjUyzLRI25mRKOeBwbTdMxDR017topkWj0922A/wHp3vvufdTr8R4S/xDHtoiESvnylQf4drHNgB6N2Drrc/791mhWzRrDBqM+PVvXq7EIKaqc53Nzc2nQoAF+/8HPuabFChjx1Gusys1l05YtpNXyMWPkaCZMnsDyzbsoLlWpk6zy4F2PsHLdKkZNX0f33p2Z+umjvP7Nco4f3BflIAe/7L3nevXq7ff41zbizPn2DSYv2cjqRXNYvqWURo0b4vfIOHsnrWUDDpZtUbh0NBvjGdRJC7jpYXQd07JcAbV0ihd8yofLVLo0z8ayLARBRBTdVCW6rmGaNo7jgCDgVKXisCwbQRAQBNdA1A3XSHQT6gru4qNG+P6jV/lh4jQWLN1Go/YdSVYE9zrAst3vtS1z3/W2ZZA3/xvKgo1J9XvBruqvaYEguvdkmRi64aYIcRw3PYhhYDsgSvvPqxaPx5kyZQonnngiiqJUb/6bcbANlR9efISvZy1j/vTxbFMz6dS8HvJhmNha13XGjx/PaaedVr3pb8BixqfvMn7xejZt3EClmEZk1husrdMae+qzzK1sSKucDGzLBgEs00DTdRwHbNupkl9XflwZEw6LAgKmabJkyRI6duxIMBis3vy3YRmFjP/mR8aOG8OyDdvJKyhl86TR1GrVCb9sM+XL91heEqBNk9qUbF7AFytsWphLePCFEaxZOo05Wx16dmiMtyrSGsDQVT5+5xVGT5zCjJmT+OD7uZwyrA/jXv03n09fztjvviKldS+yfOX83133MGPhUuYtWMhmqz7dm9U+bCKNHcchNzeXWrVqkZSUdFDXaMvUWPLjm/ywPZlOTWshYTL/6w8ZOWsla5fPY9m2Mtq1bo5HEg9a5P7cuXPp3LnzIZM/Pb6ej8buom2T2sgiGFUpGG3HrTZF1bywLAsHB8uyME0bUXRT4hmGUTWnq9aJqnUpHg1zwz0f0vfYrqR4a9YVccWKFTRr1qzm4k3Cebz83hzaNYoxavQUfvx+PJt2bEdTMmhQJ/2gz4VDaHA66PEw6yZ9wJS1UaJSbQZ0q8Nn/3mde156mWP79+Lj/3uLXmefSHINdqWmDc5YxXa+ePsnLr/zVjp37khaUjoNcrLZtng2OcOvZHC7OuTN/xhj6D3cfMZgWPohG4J9GNKrHosmbWTQiQPxHORUPH9ocGphpoz8gn4X30jvrp0JlC7k1THb6NW5KXs2LWHMqDGsyy1HiW7F9Nfmu5fvZdJmg7oNcgiYxUwcPZZZS9YTlxV2FmoEQmuYuyNKxbZVzF+yHiG1LnVSfERLtjLmu29ZsCYXK1ZGUdyPEs9n7NifmLNsO+n1GxGULDYvn8O4CVNYu72EWvUbkhJQcGyLaPl8nh1t8tgdl5Iaz2VTpY/49uWk1G2I7JgUbVzA7qhC6ealjB49gS2lMbJSFD569l6WlPqo37QpUtlWxo0bx+zFq7F9tamV7LB49FjWblrL1FkLiTg+ortWMm7cVAoqRZo2rou8n0l3WBucjoMRC3HzU4t48fX76de5Md98N45Bx/TBexgmsj+8DE6Dce+8Qv2Tb+L4vp1oXsdP/qpZVOR0JGnnAnbLrakrFLJwTSHZdZJYPn0MI8fPYE9YZPOaHdRtlMyiWfNYtXgu0+cvRchoRFZq4KAr7j/L4Wpwgp/GzZuwed5ksodezPHdmhFd8yk7a/WkbkDgjbeeYfl2mxOO687K0W8RaXEc4UlvcMJ1j3LisX2Z8NGXNBvUm3SPgm1ZOI6bKqdrj34MPKY/nbJ1NpXXZ0ALm7s/2cM7L9/L4D71eO6LtRzbPo212zWuvOJievUdQL82dfEeRqnDatLgVMs288LjrzF/xnqGnTaYJMVhxoh3SB1wJacd1521I57F6TucHL+bZuhgcKgNznjlcl77sYDB3RpRmbeOMaNGs2xjPj6zmJAnBU/RKhavWMvC9QUkW0UsW7edpQt20aRpMjMmTWDKjHkUx2XqZaWDHmb+5DGMnbqI4qjEwqUbOf7EPqT5a1b317jBWbGDx1+Zzhnnn0T7Ns349J1JnHPzZXRuVg+PfPBzNh88Cf4DbFOnKHc136z3ctVZfVBEG0sNszmeRUpKEF9SkDb+HeSVcMQfWZl6nK1bt5K7cw+C4sUfCOD3+wkE/HhkmZKtm+jRKAWP10/3Lm3ZtqsASXJLZP1dSLIHfzCJjFpZtOh5CsnbZzF/5Xwe/78v6Hz8mfRq7ueGG+5nW6VG91Z1aNutH62yfHz4wkPkZXThtBN6s+j1f/H6pPXE1DjTxs8ip9dQBnWpw3P338qe0iIeOvtKvJ1O5PRhPfn0uQcYNXsdk754nbKcYxnYPYs3vl/Inq0zeXbEEvoNPYG2qcU8+OC76JZbelJS6uJsnsGi1dvI6X0KZ/RqRGjbHD5YWkJlRRkfPPsxu4vLeeOTUXQfcjzJBfNYWO6hb6tkeg04lhy/xcMPPEag9SCGH9Oar5/5N7sK8/j2+RcpTGnNScN6882z/+Lr1Q4nnnICO0Y9xaLSePWhOgIQED0+Ts9ZwfejZjD2yw/Jbt0P+SDvnB+1ODYFO7exbcdOolWy5/7aoqJoG0889QKxpAy2zPqS538q4PwLz6d5ZCIPPvAeBeU7ef3pVwm0H8gJPRvx7P3/pjx8JMrQoUGUZPwBPz6vj4A/QFJKCk2Hnc7kRYVUFi0kvfV51CeXPZUVzF+4leHNUxl825u0qJcGRiXx9DSS1RCrVixj8eLFLF2xiphmIisKogATxy5m8FnHoVWUobTtQNCrkJrWitjOrcQdh4oNs7nv/ge5/9YbeP6nlcT0I9+t6w9xbHasXIR1zHVcOjDM5pJyTMd9Ud29bSMbNqxih51G04O88fF3oVfu4Nn/vEG9HoMZ0r0eT9z9AHO27SJ/2Xf835eL6dG1LdsWjeb5T+bRb2h7lr1zM+s9jRk+fBibf3yOH+dtYeqXb/P1WoFTTjuRWru+YVdhpPqfOaIRJYWAP4DP58cfCODzHdwE9ns5RAanQ7gknxf+/QoDBg/C0WLEY1FimlV11OSAAzGbv9XoOngIJCcnk5ycvN+jNPeI2J3guh772+uoV0cQBUQrxJ5VS6jX/xQ6NM2hYatu3HtKNpLiIRgMkpaRgWiVsC2cwxWDWpPTsAln33kPaR4Z2eNn+EWX0r1FI3Ja9uS8Dl7mF+5hgecEhnRvQXaDZlx59rHIiodOfQfyw1O38vXcIu46ox17Foxm3aKR3HLzDdz/0qfkFq1CN20EUSKY1oIPP36RRp49PHjlabw7t4TWPYYy85Uv2FO0g8KuZ9OlWTb9G9k89ODTqM2GMzAniaRgEilpaQh6PuvWbOaVh2/gxjseZtn2bSwoNPClpHNM+xbUr9eA43p0o3OPvmRnZdN/SE/W5qvVh+cIwME2dKbtTKd3zw706NmHzauWYFhHgc/RIcAB/MEkkpOSUfYdvoERr+Ttx/+Pflc8zrA2tdi+cg3n330J9bKy6DD8XzSpm4woQHavIfRuVo+GrTvSr1YE0zCq/YUEv4mgkJzejR3Tp7Ns3CjadO/KwOZB5i1exlq9O2lJXmRZxlJDvP7gQww6/RzSU2vRpEkT96dxI3dXxrFQwxvYGGlAv0Zpro6t8kmzHQcbG8Vfnzufe4tPPv2Ed997BuvbFymviFXv0VGHbcRYMGMpQ45vS6eTzuLjcTuIaO6xclJqGsl+kVBpOVHzCN36cRzXZasKddM85M7H075xQxq16MyDV/XFq4hIkofTTxxCo7qZeGSRweddSr1aMt99voqRz93DdTfeyJhF21i3chWr1+3movP6kdMwh+7nPUTTrF+fFCb4Yw6RwQkWMdKb5TDjhw9547NRbFwzi7m5Nu2Td1JeHiYeCbPJaU+T2uzXSDuS8Cel0aRpU3Lq1cJTrWqDJElkte3IlNVlqFqc+Qs30q5lk7/d6HQcG9u20dUopcUb2RrsRe/2DcjbvYFYXEWLlzFtQsneT2NZNrKSRlJ0BzviOmo8SuWqmVQYFqapsWbjFvc6PcqaraV0SE5CDk2hOKRj6lFWLN6OZVoISn0+/uozzu9Vn389+gO++s0ZfNl9fPrJCD5762UuOn4oXkXEsU0iuRN49rs1tO49nHuvPYNNC1aS2rAVZ+SMY/E3z3PukPYE/TYtj7uO9199hKTdo3l7ftj1z7FtZE9tstoN4J2PR/D5x5/w8M2X0q2e+yYnCAIIglulouou9/qGHmk4jo2uVqL1OZOOTerTrPNAsp1SKkzziD89OBSIkkLdnKY0bZxDkk/ZJwOyJ8AF15zMt598TXFUJy07lUWLCjAsi3DFLkpLI7iuyeLPSuxIFKC/GX9SMr0qpvLhaIV2bRvQrXsLfvj0C2oNOwmfBHqklHsuOJdmF/+bk3o0IhhMIj2jFtnZ2dTOTCfo92BqKrM/GUGTQSeQ7JNJr1UHdeEsKuMaodKl1GnTHa+1nXfe/oFYXMVQNUJiGtJh6ON8sImVrGPa0q3M/vwjvvh+AVu+fYFdpWEkSSErpyltO/bj3CF1GbM+WiOBIzXNtnFvMKmgjGhMIy0lGU/9hkR2bkONxVDVCHOmrkA3XB/s//avFkURAR8duqTw7Mvv8Pmnn/PCI/9iUN+O1KkFq3JV4nENNbqSkuIjcSPi7+cQzS6BtNqteODxZ3jq/57gsduvpOcxZ3JmnxacfedN3HTpRVx53V2cc8fVZByiHtUUkuwjUrCRKy+7mEuvvp41u0JuucWqmuCK10/9bucSH3EzF11yGcvrnsPx7TPxeH0EfB6kv6GsmCDKiFoed111GRddchlvjdrNkw9dRdMuJ3FOs3IuuOBibr7nedoNbYLPo1C/93BGv3g3X8zdzVU3XcyzV13EZVfdzLhoK9KTAgQDAbLE3dxz/cVcc+N9ZJ3/OI3r5vDpazdyy2XncPGlN1CRVgufz4tCEQ9cfT2PPPUyJ184hEa9L6a7vogbrr+BO/7zJo37DUQW3UXcm9WX7K0fcsGFF/PEj7u55opBJKVk0OOMa/hwWWtaNKyDJHjJXfw5N956F5/PCHFG52Qa9DuNF++8icm7dP59XX8ev/U6brjpVpaojagfdEt5KrJU9Zx8eD2yW/bN68N3GPo8/hGCIOFLrsMl/MCFV17DlVdfTbDL8dT2ehL2zx8i4pFFXr3vCi68+BJeGLMBSfHg8/rwB5Np3u1sHjk7k3+/OIK2x19D2oyHOO/8C7n/zVlkZNd257HfiyxJiJKCz+c96D7ZRx2CiM/vx1NVWlLxBjn7ks4ox/SneWYKmR0GUKsoxHmDmyJgMv7pq1mmB/jx42e44647WLozhk1V8GDVi7thxZkaacRp/Rq5da/rtOHpK2pz8QUXcMU9I7nunB6kpLZnaGeHf117Bdfd8QLHP3AvmakH36//8MJh25LFtLroQR599DEef+xxXr60FpsLQzjA2w9fy4UXXcwPWxtxUeeUGjlWrWnqdD6G16+5mmuvfZPTBremVtNBXNzHy803XMvVN91PcsuWJKckoSgeggEfgiAge3wE/R4EwcNFT3/Aty8+xM033sAbc6O0ad6Q0y67mfwR93LFpZfx2Kd5JGel4zkaXk5EmWBSwA0mFSR8fh8eparEbA1w6BO/Ow6maeIgIMuiG/mlm279XK8XpYYfYk0nfrctA01zUwqIsoJHlt3IVcs9FpYlAduy3HQUgCQreD0KjmVgWgKyIh10R90/TPzuWKiqhmU7rq+kJCMrMgIOpmGg6waCJLmKW/Eg2AaqbuHxecEyMQwDwxZQJHGfn6Blmm6qDUfAV1Wf1TJ0NF3HRkIWQfZ4wXavN20Jn09BEgUsw438FWUPHo+yL2rfsS00zY1yF2UZr9eDYKmsmvA2k/2ncsuxTfGIDoZhoGsGguKOLbaJZlh4vT6wDDdK3Rbw+nzIouNGo4sSYtVzcgQJWXLvwRak/ZbMPNwTv7u7nCpxTa+ql+tHqQHZOhgcXonfHbSqlFuOIOBR5KpdS3e30rEdRAFMy0FRZAxdRdMsPF4FBwGPImHZVNUFtzH3zfua1Wt/xOGd+N3B0A0EUUKSJQTHwTDdzBgerxccG13VED0+PLKIocVdN5uqDACK4kGqlk3Cti33BEVWqoL+HExdRzPctcbrdU82TMPNWOEgICuK+9wOkylSU4nfTcPAQUCSJUQcTMvCshxEwUHXTQRR+MUYHSwOVeJ3x3bXM9txUDxeZFnCNt0UUI7grmOiKCLLIqbl4PHI2KaBaYtuXXnHXZ81w0BRquqv42AYOppmICuye73irfG68zWe+N2x3XvyeJAEB90wESXJjSmp/tmDwKHXgkLVxFZkBMF9aIFgkEDAX+PG5qFAlBT8gQDBYBC/11WEoiihKErVoiNUOcq7O4E+j3tkJ0oKHs/Bjwo7IAQJn9/tcyAQwOv1VE1KCY/XR1JysttXnw9ZEpEUL8FgAEWSUDxeAsEkUpPdZ+jxuBPUHwgQCCaRkhR035gEAdnjJZiUTHJSAH8ggCL/fH1Ksh+PIiNJEh6fj+SUFIIB3y9SRAmi28+k5CQCfh+SKGKoFUyetIYLu9RBkUSEvX1OSSbo9yFLErLiJRhw3+Jkj5dAUjIpKUl4PTKSrKAoirtgiVLVoiNWyaZnv8bmkYAgiHj9AVJTU0lLTcb7d8nWEYeA1+8nEAwQDPhRFMV96VEUFFnB4/EgKx7XqV6S8PmDpKaluEGBfh9y1QukKAruLvm+eZ/gtxFQPB5kuWqREwQUxYPP50MUBERRwhcI4JHdcVS8/n26yl+lk6pLtihK7nfuM5iq9E8wSDDgd68RBBSPG9QZCLj6558wRfauv6LgGpayrOD1elA8XoJJ7ri6+vXIHAxBlPatwZ6q+5QVd+1JCgbw+33uGifJeD0KAgKS7HFPtoS964yf1JQUd05LIqIk4fX5SUlNIbBvLTwyx+cXCCLevQFCgujqtxoyNgGE9RvWO0uXLsU50rO8HiCqqrJp0yaaNm1KUlJS9eajEk3T2LhxI02aNCE5Obl68xGNZWhopoOsKIfUOAyHw3z77bdcdNFFeL3e6s0J/gSqqvL5559z9dVXV29KcJDQdZ3p06fTp0+fmkuxkuCgYts2GzZsoG7duqSmph7UtEh/B2PHjqV///6kpqZWb0rwG8yePZu2bduSmZlZvemIRMjLz3Nk6RAdpx8GqKrK3Llz6dGjxz9G8Wqaxty5c+nWrVtish8kKisrue+++3jxxRfx+XzVmxP8CeLxOHfffTevv/569aYEBwld13n//fe58MILSUtLq96c4DDEcRzmzZtHq1atyMjIOOINzldeeYVLL72U9PT06k0JfoMRI0YwdOjQGndDOFQceh/Ov5ma9uE8HPlDH84Ef5rD3YfzSOLw8uE8Ojm8fTgT7I+a8uH8uzhUPpxHEzXuw3mIObJfmRIcVjjV8p/93bhlKg+f/iRIkCBBggT/VA6ZwenYFrFomLLSEsrKK4ipelVOQAfT0KkoLyeum9UvO6KwTYNoJEokEiGmamiqSiwaIRwOE4nG0DQdXVMJlZVSUlpGZTSO4zgYaoyy0lJKSkqJxN1o8b8bx7bQ1DiRcIRoLI6mG1imiWnZOI5FOBTCsH5Oiu3YJpGSHZRG1QPO9ajGwsQ1fZ9RaBoGhmG6tW5tC9PQMcwDTVbuoKlx4rE4luNG35lqmNVrd7n//w/DcRy0WJjS0hJKSsqIqfoRmVPvkOPYaKqOZbtyZxp6lUwmxq4msG0TNR4jHA4TDkeIxWKomoZhWji2jaFrxFUdBwfbNIirOpahEiovo7SklHA0jlmtoIFlGkTDFZSUlLg/peXopoUardz3/6pu7s0Dj20ZRMKVRKIxDgPVe2hwbHRNQ9U0V986NoauEgmHiUQiROPqUTMWlumuK7+1rjqOgxYNE9WMfTLxj8Gx0VQNw9CJx6L75qGq6b85Xv8Lh6yWuqXHmT/iRT6btY6dq2YzZnkxA3u0Q7ANKsuKueOKcylv2p9uDWvWObYma6mrke28ct+zrN21g3UbN5GT42Pk59/yzbffsHJrHuURhxQrlzsefhstksfbn06l73H9KZz3Bc98OIXS3av48od5DDq29y+is/9X/qiW+v4wtRgzRrzNl9NWsG3TevLMDDKj85lVmkHjNImP7rqOWOsTqOOz3ITpjsmedbPZJdQlK9mLqesYVek3RFFw0/RoGrruJh93HIH8BV/x/PgwA7s2RJYEwqEdvD9hG11a1cMxVJZM/JpdKa3ISRLRNR1dN3DATWMkuClN9KqJIYgO5cXzeGXEZnp1aQqWQSxUyKTZa+jQoRm2UZUOybKrUiCB9V+/2zu3xAOMzDysa6kDjm0w+62H+GZ5HtsXjGXydujTvulhGTF9WNVSt1Tefv4TGvTsSLIsU7x1Ga/NLKVHs1qIghv97zg2luXKvW0aqJr7kmjbNoLotuvaL+X/7y7scLjWUreMAkZ++jXffvcV89dtJz+vhHXffUbtjr3xexxGvvUMCwqT6dyqLgVrp/DuMpm20Yk8/NF8KnbO58uZezime0s8np9zB1q6yk/ffM6MOQtYvHgW734xjeHDevL5Q7cxNz/G5BGvoTfsQdPaKcgixEq2cv81l7Mhcyg9mqRSFQz/t1OTtdQtQ2X2p4/x/rpU+rbJRhZMprz7Al/NWMWKBZOZsnQHvbp3xHMQSy4f6lrqe1E3z+CLecW0apqNIgnYto3jgCi4bguGbvD9c48S7tiXBh4B23HrNZiGu+ZYto0DCFW5Xg8lh6KW+sPPTqJ7qzjffDeeTz/6mo07d6B7atOobsZBz1Rw8CT4D7BME7FBP6676jJOOuNklO0r0EyLeLSCcS/cRu9erYhqR3YJOD1eyu4Sg7POOY/zzzuX9NRmnHrmaWQKAr1PPpfBPZuzZf5kznrgIc6/4GLOzl7Fos2FRJwMbrzjds444ywasQb9MCiFZxpx9uzaRrN+Z3LBBecxqInAy6+/z3uvvcSYFQXEKiuYPeoLnn/6Cd77cgKaaRHwyHh8EAvtYsTbL/LM088y4qdZqLpBpDyPN199iaeefZ6fZk3kp8nLUeNx9KodTXCIhkvZsD2fuOZWLirYuYWCUIxYRREfvPoyTz37PF9NnsH3ExahxcIsm/wVzzz9FC+8/j554Ri67l4XLtrK55/9RNwSMQ0ZPZrHR9+O5o2XnuGpZ59j1a4KDF0jd81MXnr6P7z48mvMn/oVK3eUHPDu7OGNA46NmnUMN1x1OWdddAaVm9ZimEf2CcIhwdJZt2odoVgc3TAoL8pj3Y49hHYvYMyyAkzbRg9t5dsfpxFX4yyd8DlP/ecpXn3rM0a++za7y3VCu9fxwSsv8tQzz/PpqIXENPdFKcGvEaUsTr3wfJqkyHQcdgannzyQVo1CLCooJhYLM2PNCmZMmkJE1Vk3awKNmqSwetkGbr/xCs6/4GqkzcvJjccxTMPNB2yaiIqPsy6+mltuvokLjm1B047HYBdv4puSDtx45cU88OjdfDtqLpqmY2hhRn72EZk9uxBT9+qiox+1bDNfjlnH2g9epbQiimUaFGzbSIu+p3LFNTeRkzeDpWH1qNjZ10N5bN21B1W3sM0IEz78mLJKFdu2WDbuG5ZuC2FqcVRVZc3UEYxdWUw8Vs6XH77JU08/x1fjxvDTdxOIqn//unzQ0cMsX7EZO6UtF1xwDhVFIkPOPJN+nRsddGOTQ2lweoOp9Bvcj/Jlk3j+iZdI6n0aGDF2LB3LnEZXM6RtncPK/++vEq8sZuasmcxbsAZR8eL3+/H5fPj9bu638uIiWmcl4/X66NyxDVtLKug8+BRSypfx8hNPsCXz7MMmgMuxbdYunsnsOQsoEVO54KTu9Dj1Ioa0zcQ0DOSstlxzzWWwZiTjtoYoWj+Xtbt2MeLZR7BaDOHqqy4huWgZc3eUMOn5W5A7nMJN11+JOuMzPpu99lfH5Y5tUb51GePGjWXs+PEs35SHrsVZ8Ok9FDY+jn9dfxWpG77mzbHL2DH/a16dUsaV117HGf0b8cHI1WimRbSykLeeew29diPE6B5GjppPRWgnb34whTOuuInz+mTy+nvfUbZzOf9+9AuGXXw9F501lM9ef5+V2wqPEsNAQJR9DD//VPbM/J7H7n+WFgOG7EvKn+D3sawiZkwcx5ixY5g6dwmGaVCet5zpq3ajWzax8h2MmTiTnSum8uC3W7jqln9x/pC6vPDOW+wqKueFp56nTr8zuObyc9GWvMOUbeUkytjvH1GSXR3p9eH3B0hKTqXBsacxZV4e4V2zqdXqTHKkPHZXlLFg8S6Oa5hC/ysfo2l2Mk48n3jtbNIjBYz56Ue+++47Ro4aR0Q1kRUFEYfxE9dy4ql90cMh5KYtCHoVUlIboeftJGKorJo4gh3JA+nXPAuvLB4Va9Af4lhsWb6QpMHXcemJCqsKy6vckByWzZ7EpInj2Cg0oMVRWCHL1CuZM2oUe0rD2JbOutkTWbylBMex2bVsFI98s57uDb0sfus2dgU7cMVVV1K3ZCkfjJ9BWfjoLWcpSgp+f2DfPPQd5KT/ezlkBqdj2ximQ5New7j15ispXzyawh2reeA/P3JB51R25JdQlLeTiHZka2bZl0SHdh3o0K451Z+XgFvFx3IccCAWrUSRJHRNJ7VhR2688xYaFEwgZlm/vPBvwnEcGrboQPv27ajlU0hKCpKUkkay34PiC9C3b0+yGzSkVeem5BXaWDZosRgr9jSgT+921G/QmNOvvZlutTRmz4tw3jFtyaqTzQkXn0md3zge8mU0oH279nRo355GWSkYRozF8/dww/GdqFMniwHnXUIDL2xctYmux59KVnY9WnUbxkMXd0e2NVb/9C6hZsO4eFgnvFWJeUVRoukJ59GsXh0adT4Gv1pGyZZ1SK2G0aJBNvXqN+KS45ui7L9LRyaOg6qZNBtwCvfdcw2bF8zCTlg9B4aTRKt2HWjfvj1tWjTBcRw3ITTuuDo4WJbBrp3r6XryVTSqW4ec1gPo36A2plZAobcNx3XIoUGjxvQbfgzj5uej/xMdif8KgkxSWnuKZk5h7phxtOnahWPbpDB7ziI2KH1JTXIrxxiRAp555FVOOvsM0mrlMGjQIPdn4DFuQm7HIla6nJ1WE7rWT3OPoy0LxwHbsbEkkXjBUl4euZZebZIoLSunJD+XmOG6/BzN2HqM+TOX0adHFg37HM9nP6wjrJo4OLTo0I3OHVohVORRpB6d+kJEgKo1eG8UguMU8uyTn/DII3dRJ93LtMm7GNa7I3Xr1aPfKafQOjlYY8nQ/0kcsiU2Wl7EA7c8yQ5NJphZH59UTFQ36DqwA1MmjGbMvPWsWTCLwsoje9s6kJxBTsMcsmql/FeVCxdZlshq0pix83cRjVUyftoGOtXP4INH7mBuIWRkZlEvXaTMPDyUnuL1UbtuAxrUzybgEQHHDR6y3Vp/giC4//6va2RFpnnSTrZuLSceC7N40tfMzYV2rR1W7S7GNHU2Tp1C0X52EgRRIlirLk2bNadpk8bUSk9BEr20bK4wM7cY0zTJmzeFHRrUy6nF9kVLUDWd4p2beO3TOWiCQqvjL8Ne/CWzNpSwT10KAqLgirrbZ0jOyiacN4eKiEo8XM70qQWYh4ed/7/jOFhqJRedejuFgp+M+i3R1QJMK3GkfiDIShINGjehefMW5NStg9frQc5qjFZcSCwep2L3bkKWQ61aDVg1cypRzSRals+y4lJEKQNf2Ra2lkWJRyrJXbScfl1q/0oXJPht/MEk+huz+WhKEu3b1KNL91b8+Mln1B92Aj4J4qXbuPnCq+l9zQMMbFePQCCJ9IxaZGdnUzsznaDPg6mpTP74B1oeN5QUn0xanbpY8ydSEo6Rv30aDdv3gIhO21bZzJk2iWlzlrF+8XSKo/Hq3TnqiBauYPbaElaMG8XEGWsomfAKuSVhJEmhVt0cWrTuzHGdU5m1NXrUZPmwbbuqpLaPJk0FQtEImhZjV0kJFiAIdbjm6qE89swPRFSbzl0CrNu+G1VV2bVsEVvj8Z/XkwR/mUNmcPqSU7j99v48fulJnH7BDdQfcgutOxzDgw/9mwfuu5+7Lz2e4eddRtPaR27VFknxUbR6KkMGDWTwSWeyuzSKKCv4fD4UWUTxB2k74Bzs7/7F0BNORT3lKXo1zeD8W65jzIPnM3Do6azPPo+Gft/f/jYlSgq2ofLUNcMYOGgwt32+lpSmxzHu/vN58PtNBJOTkSUBAQF/MIjH4yUQ8JNaK4tLH3iUsU9dwoDjjufz1QEGts7irIff4u0rT6HfMYOYndqe5n4P/mDQLQNYdbMeb1XJMdE9avN6/aSmpnDcv15j+h2n0bf/QL4KtaRTlo/WQ69kWMZihh57DGdf9x/OPLkLqcEksnOac88TDzHt6btYHYakYBBF8RIMuHIlKV6S/D4ymvfj4St7cvZJgzn+9Gto0bMO0tFQqgzXwBY8Ad585URuOn0wg0+5kn6nXoEvURHpjxEkgklu2VZhn0wGyMzsw6D415w45Dge/WYJdZLTaNLjFO5su5aBffsy/JZPaJuchhJM58GHruDVm85gwHGnsrzWhZzashZH4enkwUMQ8fsDbplBARRvkLMv70fmkIE0Tk8mvf1AmsQdzj+uIQIGP/7nJtaFo7z4yI2cf/EFzNkW+1UmCsOMMocWnNKjgVv3ulZr3niwMycPOZaL/z2Pm8/rQU6XYdx99/08/OBD3Hj5GQw591qapCf/7bq3ZnHYtGgp7S+7j3vvu5/773uA129swvo95TjA/10znGMGDuGnki5c0jntqNCJkkdh9lfPcMKwIdz+6TpOuPXfPH7jhQwccjb55ZAS9OENpNDrlJt4dGgJV788l2Pv/pA1HzzI0EHH8v4mk+a+AP6jcRKLMsGkoBtMKkj4/f6qcp81w6FL/O44GKbhRnciIsnyvtq5juNgmyaOKNV4FG1NJn63LXNfJLUoySiyDNjYtoMgikiigG1ZGIaBXXW8rigytmm4aUAcx63tLUsHNRruryR+d2wL0zQxTRtBEpEkCREHwzCRFA+OZSIrHkQRDN1AlKR9Ubo4NqZhYNk/1+11bHdsbEdAkgREUUbEBlFCEt1ISKtqZ1eSZHBsLNsCQUTEqYoWdJBlEQQZRRYwDQPTtBAlGVmRq45J3N1X27YQRAnHtpEkEcsGT1U/DAvs+C7eeW4E5910HZITZ+wzd1Hrouc4qUejA5psh3/idwfLMDAsNyJTVhS3Ru6B3Nwh5rBK/O7Y6IaFLMuIooBlupHmgiBgWyaGaSEIAoIA6p4NPPnFRu6+/ng8dpQrzruHp775gKYpMpbppmGRFQWl6rv+Tg7vxO8OpmEiiG7NasFxMC0Ty3JQPAqCY6PrBqLiQZFETF3FsJyq5yAiyzJStXXDsd1MAoIkV/miOW7aNdPNLqAoHqR9NdgdLNPap3sOlzlSU4nf9+pZUZIQAcuysGwHUXDQDct1HxFEPF6PW2/9IPF3JX63LXNfuj1JlhAFAcvUseyqDBKijCzY2KKEYFvYiMiigGEamKa7fgiiiCTJNW6fVKfGE7/v1XeKjAhu0J0o/Wo+HSxq5lv3R9Uk9/n8+Hxe16ja1yQgKcohf5gHG1GS8fn9+94SRFFAFCVXIYqiG8whyXh9fvw+Hx7FTeUhVe2C+v1+93cHcZL/VQRRQvF48Qf8+LxeFFl2++n3o8gSHq+3ahEVUDweJElCqTJqZFnB5w8QDLq7FqIgIFU5JQcDboCAR5GRFc8vjCD3JcRV+IIoIsvu9+0d12AwgNfrw+uREUUJj9dHIBjE5/NW/V3ZNaxkGY/H7bPH40GSZDyK+0IliO5/K/5s+vetz0N33sk99z3Ino6X0rtN9gEZm0cGApLiqZIrX9VLTPXPJPgVgoinau5SNTddg8adD4FAYF+QSzCrCQNrbeTm2+7kllvu5PR77qVRioKsuPNkn/z/zcbm4Y+ArChIVbvKCAKyrOCtMngEUcLr86FUrQ+yx9WVPl/Vich+1g1BFN3v3Df2ArLiwe93da+8z9h02/5b9xzt7L1XscolSpJlPB4FWfEQCLjrl8/nPajG5t+Ju+a6etBTtT54fQECgSoZ8shIigdFkpAVDx5FRpQkvF4fwWCg6jOeI94+2S979V2VLCiKst/5dLAQVqxa5YwdPRq7KtHx0Y6maezcuZO6deuSlJRUvfmoZO89Z2dnk5ycXL35H4nj2GjxGFrVrqvH5/tTkXnhcJi5c+cyaNAgvImj6v8JVVWZMmUKJ598cvWmwxg376YejxHTTQTA6w/i81Yp78MMXddZuXIlrVq1qrmcfgkOKrZts2PHDtLT00lNTT2oeTj/DubPn0/btm1JTU2t3pTgN1i5ciUNGjQgM7Nm85MfKoRlG/KcnExP9d8ftcTjcebOnUvPnj3/MYpXVVXmzp1L9+7dE5P9IFFRUcF9993HSy+9hM/nq96c4E8Qj8e56667eOONN6o3JThI6LrOe++9x4UXXkh6enr15gSHIY7jMHfuXFq1akVmZuYRb3C+/PLLXHrppQfdle1oZsSIEQwdOvSQuyHUFMKabaVOq5yUmvfhPEyoSR/Ow5W/4sOZ4Pc5/H04jxwOKx/Oo5TD24czwf6oKR/Ov4u/y4fzSKbGfTgPMUf2K1OCfwju8eWfTcrsOM5RUSkjQYIECRIcShwcx/nn1VavYf4Gg9PB1FUqyorJL9hDSVkF5tGS68syiFRWUllRSSQaIx6PEamsJBQKUVkZJq5qGLpGeUkh+fkFFJdVYtkOuhqlaE8B+fl7qIxpf0vuM9sy3ZrQ+0kO7jg2lmlg7qftr+Ng6G4d9N+7W8e20WJhNi6YSlnMzdFqWwbRsDuuFRWVxOIq0Ugl4Uh8X3oUx7HRwyXMW53/D8yf5mCbOnsK8skvyCe/oIBQJO7mT03wx9gWsWgUTTcTC05N49iosSiVFRVUhCoIhyPEYq5vteM4mLpGNBrDdtzMGdFIDMsyCJUWUZCfT3FZJbrxywS6jm0RrSx35T8/n/z8AsJxA1OLsqcgn7z8AipjKpZlEa0Msacgnz1FpcRU/Xd10dGHg2loRCorqaioIByJoler/na0YZkGmqZj2TamoRGLa/ud445lsHDlNlT9KJcJxyIeUzF0jWgkTMXeNVXVamS9kG689d5Ha6V6D5l/iGObVBav48mHXyelbhaTP3iaescMJ/0Q5bgyDIPc3FwaNGiA3++v3vw/oceKePmu21m6bRer166jdmM/Iz/6go8//pBl2/IJRUXq+Su56vp/k92oFq8++jhN+59I2ez3ef6H9STrO3j+vXGcMLQfykEsQ7j3nuvVq/ebx7+GWsaX/3mI5n2OddNj6DqG4S64tqmzac4XzLOa0jzVTVOiqvGqFBoiAg6m6aaecBwb27YwdB3dMNxUFKLoBumoGppugCAioDPrmzdYLXagWaYbySvsSy2lVaVQAsfSyV37Lf+elszJvRvjVyQsYw/fvvMxn3/xATPW7iR/d4h6tXfy5vgwXZtn4Dg2Ag5auJw1Oypo0SgD0zDQNRXDst3UK4Bp6K7ysax99dxt20JTNUzT/dxvBYDE43GmTJnCiSeeiKIo1Zv/XhwHS63grEseQhRibNu8lbicTsO66QccFHUo0XWd8ePHc9ppp1Vv+lsw1Qgv3nslK+hI16YZSKK7UOl7Zdp2cGwTTdWxqlKt4NjomoqmGTj/3955h0dVbX34PedMTSYJhHQSIIQk1NA7gtIU1M/eKAqKgIoKiiKiIrarKCioCBZsgKAgImJAioKEXkJHektvM5Nk6infH2fAK3rv5btfKvI+Dw9wysw5e3ZZe++1fktT0RB0aZ6AtAqCLsFSXciyzI4dO0hLSyM4OPji09WGpiqsWfYlixZ8wVertnMuO4vo3FVsNaWQGGrlyI8zeP7rQ/Tr3ha16AijnlpC/2vqMWL8HKIjjcyZ9iGNuvciMth0Qc9XVWSObFzPr9szOXToEAvnzCWmd3/ylkzm40zg8FJmb4deLcJ5b/IkCizh7Fk+i0NhXWkZE1Rj2oimaZw+fZqIiAhsNlsljNEa+WfWMmHqEo4dzuCzjxcQldaThhFBlaLWkZGRQZs2baqx/mnk/LaRGZv8tE+wsviVpyiIbEvjmBAUvxePx4uqafqCj+Jn36HTxMZGYDZXni7lfyIzM5OkpKTKizcpOc4jzy6jZ5qPLxcs4/0Zc/nt3Cl85mga169X4W2hyg1O1edi3+rFFCTfzDXNImnSuh2KsS71gqpm0K5Ug7M0h/SVW3lw7Di6dO5EeHAkycmNOLlzDz2HP06fFtGc3LuKsnYPMrhnc9pEZ7P8pI26spd+9wyhWYMIzm79htY9b8BqrrjyuBSD01dWyM/fLqVpj96kvzOVZavXsez7ZezLVWgZJTPxxals+HU7JPaksbaPV1+ezvKVqzlZGkxaYhjLZ7zG5h9XcS66OUcXfcC3P/3Msu+WsutkGZ3apOKxn+GFF15i5ZqVbD8r0KGhm+eeep2d+/cjJ3Sjdf0gUP2U2c8y8x8v883yVew67qB1UhhvPvMS+09m0XFgXxKCLSBYSWnZDPux3STe/DB39GpBefEhVq/czPpVy/hp1QbqpHYkSixhWUY+nVI13vzoW1Yumcf3K9Kpm9qNmCCFncs/4I1ZC1m7bivlv2Ug1E+jbP8KpkyfzZp124hp3YO40L/2ba7RBicairecT5af4qlHBhAZnUjLlHhd7uNfGNDVSU0zOB1HfmDehpMUHM2jd5/OGHDz5TOT+H7NWr774QeOOM0U7viWj+ctZvPeIrp1aYXqKeD1l6awdMVKjhblc3DrCRqG+5j6yUrSly2kXdersVn+ui5VBTXV4BQEaNCkBaHuExwP6c6j9/RDs4jMXlXI1c2j+Pqjpew6cpIuA/riObaeDWpz+tXLp1HP6+neKhnfwdVkhbUlNSYYTVVQFBVBEIlKbELLli1IaWBm+34HN/ZuxgdT5vHkixNIa9uBn96dTePOjbFEpNG/RzvqhZj5ZH0+13dKxGyomrHwP1H5BqdCQfZudstdGHlLb7pH5rJol5fenVIqZeuzJhic+af28uNhH9r6GRQ3u5U+HZKxqkV88Ook5i1bzZ6jDpZ9m8lVVzdjxU+ZdOiQgjUgX1gdVLrBWZrF+19u55ZBN9GxbStWLNnBsKdH0yk1AVNAs7QiqYx69W9RZD+OIjs7Vy5i2Y/pzHt/KifKKn7ptrrwleSw4Kv5fL1kCZpkxmrRtb6sVisGScRtt5PQoC5ms4k6TVPIOe2kx813khxuwFV0ksP25khixa1u/l/xeZwc3L6DxGvuZvxTYwk5voqfCusx8o4eDBwziZuSVZ4a9QY97x3D+HGj8e5ayKrDeezYuImGtz9Ez1iRI5m7CW9zA08//SQNHBks2pvLspcfo/s9D/H0k08Sd/xLvj9oYmCftlw74jlua603Jp/LyceTnyW+9/1MeuYp2lmP8crSswwa3J1Wdz1H27q6jJUoGQkKDsJsNhNkDcJsNoKqkmsP45Enn2bkHW2Y//4n2Evy2L73BGWOXJauO8VjE6fwxJBufDn3a05uXca0nxUmPDeJcSMHsuTH9ZzMyuf773+m0+0PM2pIf44fz7qodGoRgoBQ8jOLvlvDxjVfMnnGt3j9V1Jb/kdUmTXf/MhVt40hOTSHg3YPHreTA1u20vaWB3hmwjjyVk3ngO1qnnn2GZr517PqjJOfpgwnsus9PP/cJNoJp1i25zC5Z4+x+dcdjHjsacKCqs/YrNEIIuZAH2mxWLFabdQJT6V04y/k2vPJqxPP4C7hrN2Vx5Gd27h9QCohqb3p0SQWSfOyM1egRYLE6s/f45233+adGe+yNdulC75LApnpy4i/5kbCRA9n/WHYbFYsIaEkmbNxCY3p36cjwRaJ03szGNgz+e+XglTTOL7mcz7++GNmrSuid6fUqjcKqhJV5cSaj/jFcBU39u5EZIiJVXOnUdzwJl6c8iI3ppSxbt1OnKUOdu87Sqnbc3lvqQcQJaOuH262YLFaAxn/Kr4tVEPdEhBNZtoMGML99w1hyIjhzFi04+KLai2G4HBuGHgD1w8YyMUTZUEA0WTA79MDYFSnHVOwCVEUKM0+yMzZi7j3mUewWqpXpsoaEkaLlCbEREeSmBRNiUPDZrNhs9kwaz4O5mez9LP3efvdWewr9OMoLiM4oj4dU2IJtpoIsoXQskUzoqMjadw0nrPnCvhl7QlWfP4Bb02fwfYsCU31YbFYCQsLC2gXgtfl4mBJAm3bphAbE03r1mmc3rwLc1AQQTYbln/jdiEZTTTv1pWE+DjimqZic9s5b1+JokRij2tpGBNJfGo7zLKD08dPktjjOmJjYomNb0KPhEhMJgs33HY9h1Z+wTdrthMbV0tVDAQByRLKvM8/ZezDo7h/2GiM+ZkUXe7+SBWA7LGzfK9Cw0iR+OgQvl/5G16/giU4hKaJDYiJiaFDs6YkNk4hKjKKZmlJnCt2sO6XXHp2aElUdCxtr+5FI7MJQTAS0/Jq4qLCsZquGJyXitVm47rwTE5sTSchpQ19+nXiQMYvbMksoFNMKJJBQpXLmTd1Mg0HDCWpXl2uuWsYw4YNY9iwe0kLNwIaPncxPx/WGNg1EVGSsCCjqSqaqlIimzGZRFAVdqfPZWVRMtelRGIxVsOQWM0kdL+N22+/nT5NJbbvPxNwL7pcUTFHNeC3A4dAEFFkhSPHy2jfqx3RkZGkdemNzWqmwheTrwDVYXBKRhMNU5NxnDqKy+2h4OR+miVHX3xZLUXAHBxKZHQ0dcP0XOP6Uf1vyWAkIjaFlV//QJHTwfqvf6J960bkHc5gwqRpXHX/C7Svb6meyi4E/qBnftITD+gp/fTDCqWlHlTJRKv4WO4cPZFXXphIn3YtSWschsGg51X//X79/3rquRD63JDMzcPH8trLL9G/UxOSGsQhCeAqL0cORPoYTEbaRWazc88pystK2bFtN0nXdEIvxn8/27rwnULAsheE328RhAvbUefT4cUmxJO3dgWFpW7suSdYl1eMrAnk5vu5e9RY7uxan+lzVtfOgCNNQ/a6mPjY65wucuLMP43TEERwBW+PXI4UH1iKLzySIzu2UYyJUxsWUu72XlSnz9d0vT6JgonefaNZt+MQHo+LPWvXcNbvR7vQhi76kiv8W4zmIK6+sT1fLVhMYoumRKR2wLr9MzLpQViwEdVdwDvjHqQs7R7u6NGMIGsQoWF1iYqOJioyghCbFUH1k/3rN6hJXalfJxjBHEHXRkXsOpJLwYm9HLF1Ii7Ez9rPXuezTCPjht1AWLCFv9uMTBBFgmxhxNWPp1nzxuSdPoH3jzFYlxWCaCSh9QD+cVs4k6Z9Rl6ZnxZJQaxfswuPz8eh7Wtxe3z8TfLgBMbIquugqty0kYxWYlv0pm/UER4c9Qif7TLxwoDGF19WKxENFqyeLEY+MJwHRj7G4XwnotFEdEI8NpOIZLIQm9qV4fEHGT3yYfbE3ssNbSJZv2IZJarMN+89z9MTX+Gw21vl/Z4omYltlITFbCUuKYlgi4QgGqgTWZ+Y8GDiml3N1pnjmZup8PL7r7HsrSe4b8SjFNfvSlJ4MPUTG2MwiEgGE1ENEwm1SgiiRGh4HI2i6zHwiRlsnT2BIffdz96QXrRvFEHHq/vy6wfj+XRTLrKqYQ2tx50TXuL0sre494GH2Wdqz7O3tiY4LI6G4Rf5SQoi9WLiqWMxICBgstSlfoQNURAwGoNJaBSPJSiUlEaRGE02msToGZYkYxANE2JJ7HQjI68zM3bEUB57YzldomyYDJAYb2TGU2N48ZMMnnq0fxU2xQpEEDFYbEx7dSCvjn2Q0VM+Z8iIMdgsltr5PlWGxt7NRxn5+DhGPDCChx5+gqHdIshWReJSUrCaJARJol5cA+qFGBFEkeC6cUTbgug34XOKVrzD0MH3skVqTLeEOGyh4TSOr4ehWmaQtYugOlHER9iQRAHRYKJex1upU6c/rZpEYjLHck3/Nlwz+CbMIrj2LWdnicb25R/zzMSnWbzh0J+iq2W/zKZDKjdd3xWLJCBKQQx68Q3mv/IYo5+dzRMT7sHmOsbqrcewH/uVFyc/y0tTv8Pl+zu5nQgYTSGc/XYyI4bfxysLz/LA8Fux/uuNpFqOgDm4Lo3rR5LSewRjW+Tz1ZpddB/+PPEn53P3nffw3cm6NGvRCLPZTFKjWMyG6vPfrBIMQaQkx+lpO0WJxKR4gkyVFyRVLcLvmqogKwqqqgVyZlddMENlCr9rqqJHaqPnIjdIEgK6FqQgiIiiHrkqy3oEtiBKGA0Ssl+PdtVXS0SkCnbWvRThd01VUVQNQdAgsDIpCHrEnn5EQ5ZVJIMBETXwnnoeXkkEVQVR/P0eBBHxwv0CIhp+2Y+m6bltjQYJVZFRVE3/TFGPdlcVBVnWo8ZFScIg6RHuqiZi/IOPgobsV/RIclFAUWRAQJQkNFVBVfXgAVXVkCQBRQWjQT8nq+A+vY3nZu9i4tP3oJXnM2X8C4ya/hGt44KQZQUEUc85/C/yytZ84XcNRZYDUlaC3sb+kD+65lCThN9lvx9BkvT6qKkXpMAEQQjUaVBVBQ0RgyigqgoqIpKg4fP70TQBUQRB0HPXC4KAIIoV2p7/G2q68PuF9ivq5aYqegCQaDAgCrrvv4qEyaj3Gz6/fGHVWZL+XLc1TVec0BAvtGFNVfAF/GykwOfKsq7Eof9Oen8jVPNvdZ6qEH5XFRlZVvQFjkBZ/qs+7/9LTRB+V1Xd7hBFCU1TUFUwGERkvx9F0RAlMdBf6mOHKIqVEKx16VS68Lum4pdV3eYAZEVBEEWkSnrnyvnU/4AgShiNJsxmMyZjzcw9/N8giBImsznwXgZd6kcUkQJGkX6NiNH0+zWCIGA0mbGYzZhNJozVFEmsG/4SkmS48LyCoD+7QdKPm80mDJKIKBkwWyxYLGaMBglRlDAY/niP9If7RURJ0h2SLZYL7y0ZjJhMJiTx/GAhIEoGTGYzFsv5MhSRJMNFxqZ+rSFQxsCF5xYCPpsGgxFJkvTyDBj2nK97BglrXAsGX21m2D13MnTE4/zP06/SNCYYyWDEbLFceNfai16+ZrNZdwCvocZmTcNgNP5eHwV9Mmww6HVLr9P/NCgLen01SCKCeL5+mzGZzBiNv99XHe25tnGh/QaKSpQkjCbjhTI3GE2YAj7comTAYrHofajpr+v2H36n88dEKdAezBgkvd8yne+LTSaMBqnGGJtVxfn+1hwYf2p3n/ef0ccGfdyQJANGowFB0Mdki9WCyWTCZDL+03WXd3kgiL/bHIK+MFFZxiaAsHHrDu2zj2ejVqiod83F6/VSVFREaGgoNpse9Xy54/P5KCws/Fu9839C0xQ8bo++UiuImM0WzCbjJfvblZWVcerUKVJSUjCZqjfIq7bj9XrZt28fHTp0uPjUFSoIv9/PmTNniIqKIiREdy+5Qs1G0zRyc3OxWq2EhobWeuPnt99+IzY2tvIkfi5DTp06RWhoaIXvxlYXQnZOjmYyGv82Mzu3201GRgYdO3YkLCzs4tOXJR6Ph40bN9KhQwfq1Klz8ekr/BfY7XaeeeYZ3n777QrXc/274XK5GD9+PLNmzbr41BUqCK/Xy0cffcTgwYOpW7fuxaevUANRVZWMjAyaNm1KeHh4pWypVyVvv/029957L/Xq1bv41BX+BfPmzaNfv35ER18egdVCcUmxFmILqVIfzuqkMn04ayqX4sN5hf8bNd+Hs/ZQk3w4L1dqug/nFf5MVfhwViU1wYeztlHpPpxVTO1eo79CjUJTNbS/SkxbTeiBAzXnea5whStc4QpX+LtSLQanqsgUZZ9kZ+Y+yuXLR/RLkT0UZOeQk51DXkEhLlcp+Tk5ZGVlkZOTS7G9FK+7jKN7trFp02aO59pRNQ2fy8mBXdvI2LSZk7kOlBpgJGmqTFlJEdlZ2eTm5lNS6kHx+/D5FTRN4fTBvZS41QvyTZoqU3x0A4fzyy5Zu7K86BzHzpVceF+/z4uzzKPnUFcV3GVOXL5LrR8aHlcRJ84UoKh69J3Pmcfy9K0EZD7/dqiyj707t3Asu7hG1KmaiKapuB1FeAL9kLe0mJJSN6qqofjc2O2lfyo7vf86wZlCF/ZzR8j3+P9w/gqXjqp4KcrLIzsri+ysbPLzCykqLMLrV9BUBZejBHupB03TkH1uCkvKkX1u9u/YyqZNWzib77igJHAeRfZx+EAmW7dtZcvWLWzJPIjXr1BacJpNGRls3nmAMo+uFEKgnWSf2M+pgrK/ZV+hyn6KCwtweWuXJJSmqZQHxqjs7FzsZe4qEa1XFZlzh/dT5PRefKr2ofgpKirF5yklPy830A5zKHG6/tTvVQTVYnBqqoKjMIf0uW+R46ldlfzf4XOd5NWHn2DBwoUs+e47HM5TLP3qSyaOe5QZny9k9cZMTu9dwxPvrcWAmwkjx3Km1M+B5e/yUfohRG8e/3jqaTy+6h/AZJ+bVR++zhuz5/PNkm/4afcZsnZ9zheZOXh8HpbP/Ae7zpRhL3Hg8cloiozfGEaQpKDIMh5XGQ6HE4/Pr680KjJuVxkldidenxefXyZ/3xo+/G4PfkUFVMqdJ3ltwSb8iobs87Dx24/4NceLqip4XOWU2J14vD58PhlNU/F53TjtdsrdXhRVxmnfyxfLtuHxy/i8HnwKhNiCkBUZj9tDqcOOs8yFoqoBWSUvZU4HpeVuvF4fsnKpxm1tQENTZM7sXspn6Tv/NChfQUdVFI78MI30HBeaprD5w7GMefdHPH6ZosMbmDx9BR6vD6/Hhd3uwO31Ifu9ZK6aR/o+B7/9+DHbSpw47SWUlbtRFFUX3vf7KCt14ixz45cVFEXB6/Hgdrn+pBn5d0ZVCli1ZBEvT3ycNz6ex7L0X/h6wkNkFTjx+zx89OoTvL1gI35F4eT2JbyxNo+8Na/z2Y4CjP4zPPPKp5R5/phBS1VkinJzOXf6DKeO7ub9mZ/jdhfw2ogx5PmN7Fj0EvMzjuCXFdBUnFmZPP7gI3y5rRj/5dQFXBIq7vI8HrrvLn49nH/JiwU1AVX2sejF8bw950s+nPkKjz/3Fg6PH1VR8LhKsTtK8fr8qKqK3+fD43bhcnvxBf7tsNtxebyomoamqXhcZdgdTjxeL16fjKLI+HxeXOVufH4/fr+PUqeD0lIH374+hUNZ5Whq4D67A4/Xh1qDdvguCftxHnvqM8ry9vLt4oWMfmAcc+bNY/PBs5ePwSkaTITHJtIk2oz/MppS+txO/OYI7r57EEMGDaJOWBNuu+sOUmPi6HvrYK7rmsrJ7Rt58oURtGjVjrF9VbYfzSG6011MeugWEpOa0ySiHH8NyHkt+z2Uu12063MnQwcPoV+izP1PfsCsccOYvuoELqeDeW8+w8iRwxn99Ft4/DIcX8vhsnLKCg7x5IghjH7wfp569VNcHi+O/KMMumcQo0ffz2tfzmHa7JV43W49SjxQBcpLHTgcDlweL25XGU5HCY4yF+WFZxhx192MfvhBJs7+nJdmfYu7zMmPsycydORoBg29n0PFZXi9XjyucpzndjBu3BuUlhYyf9EmPM6jjH3lLUaPHsnQQXewcn8hPo+bgz9/zuAhQ3hwyN0s+XQSq/ecq3LB/cpDQDRa6NA2FU1WapSrQ41C0whLbc8ni/aj+N3M/0klZ/MGcjxu9u3aSUKnNpQWZ/PQoHsY9ciDjHh2Lnllbvx+H16vH5+nnIO/zGb4Qw8x+O472Xi0AK/HRcbiGdw77EHuv/c+Vh11Uuo8xeQZ7/HY8LEcdlR/+64piIYYbr13KO0aJ3DV/9zFHTf3ple/xvySlU+5y8khGY5v3kCZx8fBDb/Su0MouVozxt7Wk+atexFblsVplwuf34fX68Xn8yNIZrr06sP11w8gLdxLwx4D8OccYWeDW+nTKY0h415j1eoMfSLhtjN3zhfcOORqZL9cJStkNQlV8ZPz03Ta90ljxa+78NaiyZCqyHhcpXTpexsPjX2W9top9pV7yDm8mkGDhvHw8CG8uWQbrvIy5s54nanP3sf7P59g0cQHePa+uxn94FAen/EtpS4vpScyGHb3YEaNHsmri5fz5IJ9lJfuZvqb0xk1aCK/OYr5fuaTDB42msFDnyCrsAS310fpsfWMGHQvI0YO57F/LKbcU8uMTsVHUWExap2WDB06mBBTLDfeeTe92iZeLrnUAwLnolgpL1Td2LOP8sZbU3l75tdoBjMWi649abVakSSR0lIHkTYbJpOZhg0akmUvJ6ZRY0oOrOTxUY9R1vqhGhPApakqS+dO5c3p73FYi2L6xFu47bmZPNqnAYqs0PnWR5j59jT6xRewaI+DgoJ88vNymTnlNfo88jrTpk9ncI9Ydp3OZ9Hzj/PI5Om8O2MmfYVTbMspDqxs/uELyd24iMkvvsALU6bw9bp9+LxuVr37KLc89ybvvTODexrlseW3An5bM5cfHZ15/53pvPXSePZuOoJXUSh3nGHKy/O5deRgjN4yzp7NobS0iG0nDEydMYu3Jt/Psi8WUXxsE1M+OcLUmR/w5rTXOblpL3lFzsvI4ARBFALapJdfO6soREkiMr45Rd9/g915Bq37tdzUqJjdhwvYf6yIXi2DWDfnSe5+egqvTH6Z0S3PMHfZ9sBKkIamOjhY1J33ZrzLtJfHMmvaJ2TtX8GnWzRefvVlpjz/KEseHc7xs7ns21vI2NdfJiW0dgd/VCSiaMBi1TU1LRYrwbZQ6nS8gXW/HMN56EfikgbQ2FrEEXse23Y7aBceQlr/24kND0Yp3IUrPpWoooNMeGo848aN48mJL1Dq9iMZDAhoLN+Yy619W6J4XFC3HkFmIyEhYUj5hZT53Kz9/F0s3YcTGxqKSRL/dhMzv8vB+/NO0LH7cFxbNnCmtHZtE2uaypw3n+f555/jbEw3kpUiJj81i+defZWXp76BkP4O6w9kc/bQIZLvmMTQ9sEU5ufT/7EpvPXOB7Q6+R3LduXw4ftzGPLc68x85x2uFTdz5EwBdnshO4/LjH99LL4ty0j3d+fNaVOZ9fY49pXa8fh9vDHzG4a98AYfvDeL/iE/88UeBz5/7THazyNKRqwWq64lbLXq2s2VYJ9Vi8F5OWOLasiYh8bwyKhbMV5UugICFrMVj6qiaRrFRQWEmI2UO0uJad2f6bOmU//U1xQpgcwPNYAB94xhzMMP0jzMSHBwMMEhoQRbjBgtVlKbJhMVF0d0XDilLhVVBZ/bzTlXAsmp8cTE1ad9r360iFQ4dFShVXIjIiOjSe3SgYh/oSlXp/V1jHn4EcY8PIYBnZsgyy6OHfXSLbURERGRNGnfnQgjnD2VQ5P2HYmMjCExuQW3D0jDqPr4bdVCaHYVnVMTMAZy2YuiRMM2nakfFUFsw1RMuCnKOoMtvg2xUVHERMfQrV00f9KWv8JljyCKmOrGcXPkRk6s+4qevTrSf0Ab9m9bxxlnMPUNPo7vy2X14gXMnz+fVUc0IoK0gK+fgCiF0vu6FkRHRtAwKQ1TXhZHThwg68xB5s2bx8LFK4jp1h5Z0WjQojX1YyKwBATMr/AXCAaCQxoi/7qKH779hZatW9O7Yz3WrtjAibi+hAabkSQBX+EenvzHOoYPHkhIfBtenDyZyZMnM3nSBMxGPaNY2YnVOENakhQZyKTn1bdPFUXBH2LFfSSdj389i5C7mx2Zv3F0+1pKfP4a0/dWPhr2/GPsqdMRj6OYJkEn2LDjbO16fw3uGzOBCePHUrdgG4ez89mRVcI3C+bz5byvKI5IxKR6kcIb0KpBLHVCggmyhZAQF0tMVATNk6NwOnI5U2SmTVJDIiKjadatD8GB9I6JKc2Ija5LqbOIJqktiY2NIzq2EZ2j66EpxRSodWneOIGIyGhadkpj94FcPVPdFf6Sahti9VRxFW9BVzeWIBuhYWFYzBKSIEAgvR2AwWggtlkLPv50DcWF2Xzyw1naNIxg+cwXWLw9B1uQkbw8J0INqbAGo5ngkBBCbEGIAgiCRnGhA49fRRADKeAC6eX0dJgCRrORno2Lycg4QpmzkKVz3iGzwEDvvhHMW3cQj7uMFfOXUKRpIPCHOiCIBoLr1CMuPoH4uFjqhtowiBY6XpXIrBW78HjcbFjwFWcVgcQWqRz/6XuKy92c3pnO1EV78AtGkvoMpUnRz8xfvV9PWaf/ABdEk4XAc4bGNyEobyUHs+yUFp5kybp8akixVyj6b3Tx0Sv8joAoWRl4Vw9e/GAFrRrXJ6ZtX86mf4ES3xFrUB26Xd+FyA7/w5hHx9Au1kJM/QR9ciJoqFopC2d/jcPl4/iWpWgt25LatBvJMZHc/cAjjLhnAG4lhrohlkC62Cs/xp8J9CGBorEE2bguZj9fHY6nZZNIWrRNY+UXn9G8/9VYJHAcWsGD4z9i0EMPkBgZhNkaTJ269YiOjiYivA5BFiOyz8vX8zfTru9VhFgMhMU2JHTL1xw+V8iW9A9o3aETptBkhtx+LXWCrQiaH79oweepXSt8/x802cvh1Z/Sv2sUpc5CGnZuxaY16/HUIjc30WDEagsjIjICGy4KtDrcnGrgmttH8NgjwwmTbMTFhusZhUThQrrZC9m/BAFRCKFVpJuvNx7GW+5gxZzPKZMVVAhkz5NITEpld/o35JY4yT+2kd25hSDWobF2hp92n8LtyOaHRRu5rWskUm3K1vRP9sk/Hao0pAnPTHjRbDJXeRYDxe/DU15KZFJrQk1VN+P3+/2cPn2a+Pj4ChfsVvzlHNi8lfRf17Ml8yCt2rTHatAoK3NRP6U50aEWguvG4t6zlEWrttD9/klc0yKOBimN2bl8Pt+u2kTKwNF0Ton7i1SO/z3n3zkuLu6SNSM1xU9hzjnWpn/Hxi3bOCc1on2zFDYs/Ij8kKYkGD00aNOFiGAot5dgqZdItMmNJaEVHTp1Y+/Kz1j0w3pszfsxsFMyCc27kLHgA75bvYGGfa+jcZ0GNE2woQTF0SIpCoMIXo8Ll2ymZVIskqbgLi8jrEFTWrfpwpFlH7Lgx1+o2+l6mkVHck2f3kSox/j4k3lknlUYNaQfQQYNjFHccHN/Tv7yI9bklqg+kU7tG2L3WOiSGoXqd1NcqtKhc2eaJobx5Sdz2bDjGN2SZbQGPUhLjLqkBud2u1mzZg0DBgzAaDRefLqGIOBz2SkTImjWKLrGdoQ+n4/09HRuuummi09VCQJgDo9k//H63HxzR0IsNkqdBbS/9haS64cT3SiNs+u+ZN5365CSejGgR3MkvwtjvSTiTF4SWkWx4L05bD5t5OnH7iUhIYmUKJVP537GpgM5DB01hGibEZdXpFVKPKbAyntVIssyO3bsIC0tjeDg4ItPVzMKjmI79RqlEBNqxSgJREWZkRu05eq2yVjq1MN31s71t/cjKkhk83dfke0XOX3sALv27CEyqR0RNhP/vAPo85RyuFTk2m6tCTYbEUyhdG4dzPuzP+e4uwEPDe5PXHwjmjdvQcuWzYiNsBGd3JU2jer9aWequtA0jdOnTxMREYHNZqvwMVrxOtm/I59+t9xFl07tSE7tQNnZ/TRonoatEsbkjIwM2rRpU2H1T1MVSvKySF/1I79u2kZ4+1u4rWdbOl/djcUfvc+KtZtof/Ng2jQMx+ty0aBJMiEWA2V2B9GpbQkLNuN2lmCMbcqN11/F5oVzWLx6C8kD7yY8pB4dE4Nx+22kNo4jon5jmpjO8dEn89h2NoQeqfVp2rEH11/XgXXzP2Bx+iaSrh3FdW0bEWSpuEQ6mZmZJCUlVV52JsVLdpGfTp1TMRkECgocNGubSpjVUimrkdUm/K5pKpqqgShWaa7hyhR+11TlQjSwnkdc1P28tPMzKQFNVVECW+aCqOcZV1VFj24NbP+Kolihi7//jfC7pqmoioqiqgiCGHgmDUVRESUJTVWRJAOCAIoiIwi6/5Pe0PRtK03T30eSRDRNvbDVoM80JQT0zxYCuatVVdFXO0QRApGDGgJiYMDUQK8rAf9fRVZQNe3PZa2/AASeSRQFVA0MgedQVJDLz/DuC9O47tFniTaX88kLk+g4djp90upfksFZW4TfVVXRy/BCvvqaR00QftfbroYh4PsnKzJCoC0SaLOqpiGIYiDXsIamCQioKBf0ZwUkgwFR0KPfVVWvv+dzhOt18fd84VVJzRZ+1/uV8779oKEqKqqmIUkGQEWRFQTJEGj3fhRV72v0eyTEi/zNdA1efSfm/PiiKnJAoULPo/3P96iqgqYJiH+Rl726qHTh90AZaYKAJOp9paooCJJUKWNyhQu/axpqYMw9v8tmMEi6SoSiB6MKooQkChfGJkHQ/62BflzV3WMkEWS/Psbo14now5CAIOpjkHJhnBYCK5/6NbJ8/rtEDJJUYcYmVSH8rmnIiook6TaH3g7FP7WniuJ/AY9wTI0j9AsNAAAAAElFTkSuQmCC;" vertex="1" parent="1">
          <mxGeometry x="-4574.73" y="128" width="1396.73" height="184" as="geometry" />
        </mxCell>
        <mxCell id="ZweK4gNvfimo4R74DKea-3" value="" style="childLayout=tableLayout;recursiveResize=0;shadow=0;fillColor=none;strokeColor=#C0C0C0;" vertex="1" parent="1">
          <mxGeometry x="-4586" y="347" width="1408" height="370" as="geometry" />
        </mxCell>
        <mxCell id="ZweK4gNvfimo4R74DKea-4" value="" style="shape=tableRow;horizontal=0;startSize=0;swimlaneHead=0;swimlaneBody=0;top=0;left=0;bottom=0;right=0;dropTarget=0;collapsible=0;recursiveResize=0;expand=0;fontStyle=0;fillColor=none;strokeColor=default;" vertex="1" parent="ZweK4gNvfimo4R74DKea-3">
          <mxGeometry width="1408" height="68" as="geometry" />
        </mxCell>
        <mxCell id="ZweK4gNvfimo4R74DKea-5" value="ID_STUDENT_" style="connectable=0;recursiveResize=0;strokeColor=default;fillColor=none;align=center;whiteSpace=wrap;html=1;fontSize=11;" vertex="1" parent="ZweK4gNvfimo4R74DKea-4">
          <mxGeometry width="156" height="68" as="geometry">
            <mxRectangle width="156" height="68" as="alternateBounds" />
          </mxGeometry>
        </mxCell>
        <mxCell id="ZweK4gNvfimo4R74DKea-6" value="ID_COURSE" style="connectable=0;recursiveResize=0;strokeColor=default;fillColor=none;align=center;whiteSpace=wrap;html=1;fontSize=11;" vertex="1" parent="ZweK4gNvfimo4R74DKea-4">
          <mxGeometry x="156" width="157" height="68" as="geometry">
            <mxRectangle width="157" height="68" as="alternateBounds" />
          </mxGeometry>
        </mxCell>
        <mxCell id="ZweK4gNvfimo4R74DKea-7" value="COURSE_NAME" style="connectable=0;recursiveResize=0;strokeColor=default;fillColor=none;align=center;whiteSpace=wrap;html=1;fontSize=11;" vertex="1" parent="ZweK4gNvfimo4R74DKea-4">
          <mxGeometry x="313" width="156" height="68" as="geometry">
            <mxRectangle width="156" height="68" as="alternateBounds" />
          </mxGeometry>
        </mxCell>
        <mxCell id="ZweK4gNvfimo4R74DKea-16" value="ID_INSTRUCTOR" style="connectable=0;recursiveResize=0;strokeColor=default;fillColor=none;align=center;whiteSpace=wrap;html=1;fontSize=11;" vertex="1" parent="ZweK4gNvfimo4R74DKea-4">
          <mxGeometry x="469" width="157" height="68" as="geometry">
            <mxRectangle width="157" height="68" as="alternateBounds" />
          </mxGeometry>
        </mxCell>
        <mxCell id="ZweK4gNvfimo4R74DKea-19" value="INSTRUCTOR_NAME" style="connectable=0;recursiveResize=0;strokeColor=default;fillColor=none;align=center;whiteSpace=wrap;html=1;fontSize=11;" vertex="1" parent="ZweK4gNvfimo4R74DKea-4">
          <mxGeometry x="626" width="158" height="68" as="geometry">
            <mxRectangle width="158" height="68" as="alternateBounds" />
          </mxGeometry>
        </mxCell>
        <mxCell id="ZweK4gNvfimo4R74DKea-22" value="INSTRUCTOR_LOCATION" style="connectable=0;recursiveResize=0;strokeColor=default;fillColor=none;align=center;whiteSpace=wrap;html=1;fontSize=11;" vertex="1" parent="ZweK4gNvfimo4R74DKea-4">
          <mxGeometry x="784" width="155" height="68" as="geometry">
            <mxRectangle width="155" height="68" as="alternateBounds" />
          </mxGeometry>
        </mxCell>
        <mxCell id="ZweK4gNvfimo4R74DKea-25" value="GRADE" style="connectable=0;recursiveResize=0;strokeColor=default;fillColor=none;align=center;whiteSpace=wrap;html=1;fontSize=11;" vertex="1" parent="ZweK4gNvfimo4R74DKea-4">
          <mxGeometry x="939" width="158" height="68" as="geometry">
            <mxRectangle width="158" height="68" as="alternateBounds" />
          </mxGeometry>
        </mxCell>
        <mxCell id="ZweK4gNvfimo4R74DKea-28" value="STUDENT_NAME" style="connectable=0;recursiveResize=0;strokeColor=default;fillColor=none;align=center;whiteSpace=wrap;html=1;fontSize=11;" vertex="1" parent="ZweK4gNvfimo4R74DKea-4">
          <mxGeometry x="1097" width="155" height="68" as="geometry">
            <mxRectangle width="155" height="68" as="alternateBounds" />
          </mxGeometry>
        </mxCell>
        <mxCell id="ZweK4gNvfimo4R74DKea-31" value="MAJOR" style="connectable=0;recursiveResize=0;strokeColor=default;fillColor=none;align=center;whiteSpace=wrap;html=1;fontSize=11;" vertex="1" parent="ZweK4gNvfimo4R74DKea-4">
          <mxGeometry x="1252" width="156" height="68" as="geometry">
            <mxRectangle width="156" height="68" as="alternateBounds" />
          </mxGeometry>
        </mxCell>
        <mxCell id="ZweK4gNvfimo4R74DKea-8" style="shape=tableRow;horizontal=0;startSize=0;swimlaneHead=0;swimlaneBody=0;top=0;left=0;bottom=0;right=0;dropTarget=0;collapsible=0;recursiveResize=0;expand=0;fontStyle=0;fillColor=none;strokeColor=default;" vertex="1" parent="ZweK4gNvfimo4R74DKea-3">
          <mxGeometry y="68" width="1408" height="60" as="geometry" />
        </mxCell>
        <mxCell id="ZweK4gNvfimo4R74DKea-9" value="33" style="connectable=0;recursiveResize=0;strokeColor=default;fillColor=none;align=center;whiteSpace=wrap;html=1;" vertex="1" parent="ZweK4gNvfimo4R74DKea-8">
          <mxGeometry width="156" height="60" as="geometry">
            <mxRectangle width="156" height="60" as="alternateBounds" />
          </mxGeometry>
        </mxCell>
        <mxCell id="ZweK4gNvfimo4R74DKea-10" value="ET01" style="connectable=0;recursiveResize=0;strokeColor=default;fillColor=none;align=center;whiteSpace=wrap;html=1;" vertex="1" parent="ZweK4gNvfimo4R74DKea-8">
          <mxGeometry x="156" width="157" height="60" as="geometry">
            <mxRectangle width="157" height="60" as="alternateBounds" />
          </mxGeometry>
        </mxCell>
        <mxCell id="ZweK4gNvfimo4R74DKea-11" value="Database System" style="connectable=0;recursiveResize=0;strokeColor=default;fillColor=none;align=center;whiteSpace=wrap;html=1;" vertex="1" parent="ZweK4gNvfimo4R74DKea-8">
          <mxGeometry x="313" width="156" height="60" as="geometry">
            <mxRectangle width="156" height="60" as="alternateBounds" />
          </mxGeometry>
        </mxCell>
        <mxCell id="ZweK4gNvfimo4R74DKea-17" value="10" style="connectable=0;recursiveResize=0;strokeColor=default;fillColor=none;align=center;whiteSpace=wrap;html=1;" vertex="1" parent="ZweK4gNvfimo4R74DKea-8">
          <mxGeometry x="469" width="157" height="60" as="geometry">
            <mxRectangle width="157" height="60" as="alternateBounds" />
          </mxGeometry>
        </mxCell>
        <mxCell id="ZweK4gNvfimo4R74DKea-20" value="Ivar" style="connectable=0;recursiveResize=0;strokeColor=default;fillColor=none;align=center;whiteSpace=wrap;html=1;" vertex="1" parent="ZweK4gNvfimo4R74DKea-8">
          <mxGeometry x="626" width="158" height="60" as="geometry">
            <mxRectangle width="158" height="60" as="alternateBounds" />
          </mxGeometry>
        </mxCell>
        <mxCell id="ZweK4gNvfimo4R74DKea-23" value="TW2-705" style="connectable=0;recursiveResize=0;strokeColor=default;fillColor=none;align=center;whiteSpace=wrap;html=1;" vertex="1" parent="ZweK4gNvfimo4R74DKea-8">
          <mxGeometry x="784" width="155" height="60" as="geometry">
            <mxRectangle width="155" height="60" as="alternateBounds" />
          </mxGeometry>
        </mxCell>
        <mxCell id="ZweK4gNvfimo4R74DKea-26" value="A" style="connectable=0;recursiveResize=0;strokeColor=default;fillColor=none;align=center;whiteSpace=wrap;html=1;" vertex="1" parent="ZweK4gNvfimo4R74DKea-8">
          <mxGeometry x="939" width="158" height="60" as="geometry">
            <mxRectangle width="158" height="60" as="alternateBounds" />
          </mxGeometry>
        </mxCell>
        <mxCell id="ZweK4gNvfimo4R74DKea-29" value="Donavan" style="connectable=0;recursiveResize=0;strokeColor=default;fillColor=none;align=center;whiteSpace=wrap;html=1;" vertex="1" parent="ZweK4gNvfimo4R74DKea-8">
          <mxGeometry x="1097" width="155" height="60" as="geometry">
            <mxRectangle width="155" height="60" as="alternateBounds" />
          </mxGeometry>
        </mxCell>
        <mxCell id="ZweK4gNvfimo4R74DKea-32" value="IT" style="connectable=0;recursiveResize=0;strokeColor=default;fillColor=none;align=center;whiteSpace=wrap;html=1;" vertex="1" parent="ZweK4gNvfimo4R74DKea-8">
          <mxGeometry x="1252" width="156" height="60" as="geometry">
            <mxRectangle width="156" height="60" as="alternateBounds" />
          </mxGeometry>
        </mxCell>
        <mxCell id="ZweK4gNvfimo4R74DKea-34" style="shape=tableRow;horizontal=0;startSize=0;swimlaneHead=0;swimlaneBody=0;top=0;left=0;bottom=0;right=0;dropTarget=0;collapsible=0;recursiveResize=0;expand=0;fontStyle=0;fillColor=none;strokeColor=default;" vertex="1" parent="ZweK4gNvfimo4R74DKea-3">
          <mxGeometry y="128" width="1408" height="61" as="geometry" />
        </mxCell>
        <mxCell id="ZweK4gNvfimo4R74DKea-35" value="40" style="connectable=0;recursiveResize=0;strokeColor=default;fillColor=none;align=center;whiteSpace=wrap;html=1;" vertex="1" parent="ZweK4gNvfimo4R74DKea-34">
          <mxGeometry width="156" height="61" as="geometry">
            <mxRectangle width="156" height="61" as="alternateBounds" />
          </mxGeometry>
        </mxCell>
        <mxCell id="ZweK4gNvfimo4R74DKea-36" value="ET01" style="connectable=0;recursiveResize=0;strokeColor=default;fillColor=none;align=center;whiteSpace=wrap;html=1;" vertex="1" parent="ZweK4gNvfimo4R74DKea-34">
          <mxGeometry x="156" width="157" height="61" as="geometry">
            <mxRectangle width="157" height="61" as="alternateBounds" />
          </mxGeometry>
        </mxCell>
        <mxCell id="ZweK4gNvfimo4R74DKea-37" value="Database System" style="connectable=0;recursiveResize=0;strokeColor=default;fillColor=none;align=center;whiteSpace=wrap;html=1;" vertex="1" parent="ZweK4gNvfimo4R74DKea-34">
          <mxGeometry x="313" width="156" height="61" as="geometry">
            <mxRectangle width="156" height="61" as="alternateBounds" />
          </mxGeometry>
        </mxCell>
        <mxCell id="ZweK4gNvfimo4R74DKea-38" value="8" style="connectable=0;recursiveResize=0;strokeColor=default;fillColor=none;align=center;whiteSpace=wrap;html=1;" vertex="1" parent="ZweK4gNvfimo4R74DKea-34">
          <mxGeometry x="469" width="157" height="61" as="geometry">
            <mxRectangle width="157" height="61" as="alternateBounds" />
          </mxGeometry>
        </mxCell>
        <mxCell id="ZweK4gNvfimo4R74DKea-39" value="Elkan" style="connectable=0;recursiveResize=0;strokeColor=default;fillColor=none;align=center;whiteSpace=wrap;html=1;" vertex="1" parent="ZweK4gNvfimo4R74DKea-34">
          <mxGeometry x="626" width="158" height="61" as="geometry">
            <mxRectangle width="158" height="61" as="alternateBounds" />
          </mxGeometry>
        </mxCell>
        <mxCell id="ZweK4gNvfimo4R74DKea-40" value="TW2-705" style="connectable=0;recursiveResize=0;strokeColor=default;fillColor=none;align=center;whiteSpace=wrap;html=1;" vertex="1" parent="ZweK4gNvfimo4R74DKea-34">
          <mxGeometry x="784" width="155" height="61" as="geometry">
            <mxRectangle width="155" height="61" as="alternateBounds" />
          </mxGeometry>
        </mxCell>
        <mxCell id="ZweK4gNvfimo4R74DKea-41" value="AB" style="connectable=0;recursiveResize=0;strokeColor=default;fillColor=none;align=center;whiteSpace=wrap;html=1;" vertex="1" parent="ZweK4gNvfimo4R74DKea-34">
          <mxGeometry x="939" width="158" height="61" as="geometry">
            <mxRectangle width="158" height="61" as="alternateBounds" />
          </mxGeometry>
        </mxCell>
        <mxCell id="ZweK4gNvfimo4R74DKea-42" value="Jarred" style="connectable=0;recursiveResize=0;strokeColor=default;fillColor=none;align=center;whiteSpace=wrap;html=1;" vertex="1" parent="ZweK4gNvfimo4R74DKea-34">
          <mxGeometry x="1097" width="155" height="61" as="geometry">
            <mxRectangle width="155" height="61" as="alternateBounds" />
          </mxGeometry>
        </mxCell>
        <mxCell id="ZweK4gNvfimo4R74DKea-43" value="IT" style="connectable=0;recursiveResize=0;strokeColor=default;fillColor=none;align=center;whiteSpace=wrap;html=1;" vertex="1" parent="ZweK4gNvfimo4R74DKea-34">
          <mxGeometry x="1252" width="156" height="61" as="geometry">
            <mxRectangle width="156" height="61" as="alternateBounds" />
          </mxGeometry>
        </mxCell>
        <mxCell id="ZweK4gNvfimo4R74DKea-44" style="shape=tableRow;horizontal=0;startSize=0;swimlaneHead=0;swimlaneBody=0;top=0;left=0;bottom=0;right=0;dropTarget=0;collapsible=0;recursiveResize=0;expand=0;fontStyle=0;fillColor=none;strokeColor=default;" vertex="1" parent="ZweK4gNvfimo4R74DKea-3">
          <mxGeometry y="189" width="1408" height="60" as="geometry" />
        </mxCell>
        <mxCell id="ZweK4gNvfimo4R74DKea-45" value="34" style="connectable=0;recursiveResize=0;strokeColor=default;fillColor=none;align=center;whiteSpace=wrap;html=1;" vertex="1" parent="ZweK4gNvfimo4R74DKea-44">
          <mxGeometry width="156" height="60" as="geometry">
            <mxRectangle width="156" height="60" as="alternateBounds" />
          </mxGeometry>
        </mxCell>
        <mxCell id="ZweK4gNvfimo4R74DKea-46" value="ET03" style="connectable=0;recursiveResize=0;strokeColor=default;fillColor=none;align=center;whiteSpace=wrap;html=1;" vertex="1" parent="ZweK4gNvfimo4R74DKea-44">
          <mxGeometry x="156" width="157" height="60" as="geometry">
            <mxRectangle width="157" height="60" as="alternateBounds" />
          </mxGeometry>
        </mxCell>
        <mxCell id="ZweK4gNvfimo4R74DKea-47" value="Ethical Hacking" style="connectable=0;recursiveResize=0;strokeColor=default;fillColor=none;align=center;whiteSpace=wrap;html=1;" vertex="1" parent="ZweK4gNvfimo4R74DKea-44">
          <mxGeometry x="313" width="156" height="60" as="geometry">
            <mxRectangle width="156" height="60" as="alternateBounds" />
          </mxGeometry>
        </mxCell>
        <mxCell id="ZweK4gNvfimo4R74DKea-48" value="3" style="connectable=0;recursiveResize=0;strokeColor=default;fillColor=none;align=center;whiteSpace=wrap;html=1;" vertex="1" parent="ZweK4gNvfimo4R74DKea-44">
          <mxGeometry x="469" width="157" height="60" as="geometry">
            <mxRectangle width="157" height="60" as="alternateBounds" />
          </mxGeometry>
        </mxCell>
        <mxCell id="ZweK4gNvfimo4R74DKea-49" value="Hugo" style="connectable=0;recursiveResize=0;strokeColor=default;fillColor=none;align=center;whiteSpace=wrap;html=1;" vertex="1" parent="ZweK4gNvfimo4R74DKea-44">
          <mxGeometry x="626" width="158" height="60" as="geometry">
            <mxRectangle width="158" height="60" as="alternateBounds" />
          </mxGeometry>
        </mxCell>
        <mxCell id="ZweK4gNvfimo4R74DKea-50" value="TW2-704" style="connectable=0;recursiveResize=0;strokeColor=default;fillColor=none;align=center;whiteSpace=wrap;html=1;" vertex="1" parent="ZweK4gNvfimo4R74DKea-44">
          <mxGeometry x="784" width="155" height="60" as="geometry">
            <mxRectangle width="155" height="60" as="alternateBounds" />
          </mxGeometry>
        </mxCell>
        <mxCell id="ZweK4gNvfimo4R74DKea-51" value="AB" style="connectable=0;recursiveResize=0;strokeColor=default;fillColor=none;align=center;whiteSpace=wrap;html=1;" vertex="1" parent="ZweK4gNvfimo4R74DKea-44">
          <mxGeometry x="939" width="158" height="60" as="geometry">
            <mxRectangle width="158" height="60" as="alternateBounds" />
          </mxGeometry>
        </mxCell>
        <mxCell id="ZweK4gNvfimo4R74DKea-52" value="Luka" style="connectable=0;recursiveResize=0;strokeColor=default;fillColor=none;align=center;whiteSpace=wrap;html=1;" vertex="1" parent="ZweK4gNvfimo4R74DKea-44">
          <mxGeometry x="1097" width="155" height="60" as="geometry">
            <mxRectangle width="155" height="60" as="alternateBounds" />
          </mxGeometry>
        </mxCell>
        <mxCell id="ZweK4gNvfimo4R74DKea-53" value="IT" style="connectable=0;recursiveResize=0;strokeColor=default;fillColor=none;align=center;whiteSpace=wrap;html=1;" vertex="1" parent="ZweK4gNvfimo4R74DKea-44">
          <mxGeometry x="1252" width="156" height="60" as="geometry">
            <mxRectangle width="156" height="60" as="alternateBounds" />
          </mxGeometry>
        </mxCell>
        <mxCell id="ZweK4gNvfimo4R74DKea-54" style="shape=tableRow;horizontal=0;startSize=0;swimlaneHead=0;swimlaneBody=0;top=0;left=0;bottom=0;right=0;dropTarget=0;collapsible=0;recursiveResize=0;expand=0;fontStyle=0;fillColor=none;strokeColor=default;" vertex="1" parent="ZweK4gNvfimo4R74DKea-3">
          <mxGeometry y="249" width="1408" height="61" as="geometry" />
        </mxCell>
        <mxCell id="ZweK4gNvfimo4R74DKea-55" value="6" style="connectable=0;recursiveResize=0;strokeColor=default;fillColor=none;align=center;whiteSpace=wrap;html=1;" vertex="1" parent="ZweK4gNvfimo4R74DKea-54">
          <mxGeometry width="156" height="61" as="geometry">
            <mxRectangle width="156" height="61" as="alternateBounds" />
          </mxGeometry>
        </mxCell>
        <mxCell id="ZweK4gNvfimo4R74DKea-56" value="ET02" style="connectable=0;recursiveResize=0;strokeColor=default;fillColor=none;align=center;whiteSpace=wrap;html=1;" vertex="1" parent="ZweK4gNvfimo4R74DKea-54">
          <mxGeometry x="156" width="157" height="61" as="geometry">
            <mxRectangle width="157" height="61" as="alternateBounds" />
          </mxGeometry>
        </mxCell>
        <mxCell id="ZweK4gNvfimo4R74DKea-57" value="Internet of Things" style="connectable=0;recursiveResize=0;strokeColor=default;fillColor=none;align=center;whiteSpace=wrap;html=1;" vertex="1" parent="ZweK4gNvfimo4R74DKea-54">
          <mxGeometry x="313" width="156" height="61" as="geometry">
            <mxRectangle width="156" height="61" as="alternateBounds" />
          </mxGeometry>
        </mxCell>
        <mxCell id="ZweK4gNvfimo4R74DKea-58" value="5" style="connectable=0;recursiveResize=0;strokeColor=default;fillColor=none;align=center;whiteSpace=wrap;html=1;" vertex="1" parent="ZweK4gNvfimo4R74DKea-54">
          <mxGeometry x="469" width="157" height="61" as="geometry">
            <mxRectangle width="157" height="61" as="alternateBounds" />
          </mxGeometry>
        </mxCell>
        <mxCell id="ZweK4gNvfimo4R74DKea-59" value="Amar" style="connectable=0;recursiveResize=0;strokeColor=default;fillColor=none;align=center;whiteSpace=wrap;html=1;" vertex="1" parent="ZweK4gNvfimo4R74DKea-54">
          <mxGeometry x="626" width="158" height="61" as="geometry">
            <mxRectangle width="158" height="61" as="alternateBounds" />
          </mxGeometry>
        </mxCell>
        <mxCell id="ZweK4gNvfimo4R74DKea-60" value="TW2-702" style="connectable=0;recursiveResize=0;strokeColor=default;fillColor=none;align=center;whiteSpace=wrap;html=1;" vertex="1" parent="ZweK4gNvfimo4R74DKea-54">
          <mxGeometry x="784" width="155" height="61" as="geometry">
            <mxRectangle width="155" height="61" as="alternateBounds" />
          </mxGeometry>
        </mxCell>
        <mxCell id="ZweK4gNvfimo4R74DKea-61" value="B" style="connectable=0;recursiveResize=0;strokeColor=default;fillColor=none;align=center;whiteSpace=wrap;html=1;" vertex="1" parent="ZweK4gNvfimo4R74DKea-54">
          <mxGeometry x="939" width="158" height="61" as="geometry">
            <mxRectangle width="158" height="61" as="alternateBounds" />
          </mxGeometry>
        </mxCell>
        <mxCell id="ZweK4gNvfimo4R74DKea-62" value="Kai" style="connectable=0;recursiveResize=0;strokeColor=default;fillColor=none;align=center;whiteSpace=wrap;html=1;" vertex="1" parent="ZweK4gNvfimo4R74DKea-54">
          <mxGeometry x="1097" width="155" height="61" as="geometry">
            <mxRectangle width="155" height="61" as="alternateBounds" />
          </mxGeometry>
        </mxCell>
        <mxCell id="ZweK4gNvfimo4R74DKea-63" value="IT" style="connectable=0;recursiveResize=0;strokeColor=default;fillColor=none;align=center;whiteSpace=wrap;html=1;" vertex="1" parent="ZweK4gNvfimo4R74DKea-54">
          <mxGeometry x="1252" width="156" height="61" as="geometry">
            <mxRectangle width="156" height="61" as="alternateBounds" />
          </mxGeometry>
        </mxCell>
        <mxCell id="ZweK4gNvfimo4R74DKea-64" style="shape=tableRow;horizontal=0;startSize=0;swimlaneHead=0;swimlaneBody=0;top=0;left=0;bottom=0;right=0;dropTarget=0;collapsible=0;recursiveResize=0;expand=0;fontStyle=0;fillColor=none;strokeColor=default;" vertex="1" parent="ZweK4gNvfimo4R74DKea-3">
          <mxGeometry y="310" width="1408" height="60" as="geometry" />
        </mxCell>
        <mxCell id="ZweK4gNvfimo4R74DKea-65" value="1" style="connectable=0;recursiveResize=0;strokeColor=default;fillColor=none;align=center;whiteSpace=wrap;html=1;" vertex="1" parent="ZweK4gNvfimo4R74DKea-64">
          <mxGeometry width="156" height="60" as="geometry">
            <mxRectangle width="156" height="60" as="alternateBounds" />
          </mxGeometry>
        </mxCell>
        <mxCell id="ZweK4gNvfimo4R74DKea-66" value="ET03" style="connectable=0;recursiveResize=0;strokeColor=default;fillColor=none;align=center;whiteSpace=wrap;html=1;" vertex="1" parent="ZweK4gNvfimo4R74DKea-64">
          <mxGeometry x="156" width="157" height="60" as="geometry">
            <mxRectangle width="157" height="60" as="alternateBounds" />
          </mxGeometry>
        </mxCell>
        <mxCell id="ZweK4gNvfimo4R74DKea-67" value="Ethical Hacking" style="connectable=0;recursiveResize=0;strokeColor=default;fillColor=none;align=center;whiteSpace=wrap;html=1;" vertex="1" parent="ZweK4gNvfimo4R74DKea-64">
          <mxGeometry x="313" width="156" height="60" as="geometry">
            <mxRectangle width="156" height="60" as="alternateBounds" />
          </mxGeometry>
        </mxCell>
        <mxCell id="ZweK4gNvfimo4R74DKea-68" value="1" style="connectable=0;recursiveResize=0;strokeColor=default;fillColor=none;align=center;whiteSpace=wrap;html=1;" vertex="1" parent="ZweK4gNvfimo4R74DKea-64">
          <mxGeometry x="469" width="157" height="60" as="geometry">
            <mxRectangle width="157" height="60" as="alternateBounds" />
          </mxGeometry>
        </mxCell>
        <mxCell id="ZweK4gNvfimo4R74DKea-69" value="Welber" style="connectable=0;recursiveResize=0;strokeColor=default;fillColor=none;align=center;whiteSpace=wrap;html=1;" vertex="1" parent="ZweK4gNvfimo4R74DKea-64">
          <mxGeometry x="626" width="158" height="60" as="geometry">
            <mxRectangle width="158" height="60" as="alternateBounds" />
          </mxGeometry>
        </mxCell>
        <mxCell id="ZweK4gNvfimo4R74DKea-70" value="TW2-704" style="connectable=0;recursiveResize=0;strokeColor=default;fillColor=none;align=center;whiteSpace=wrap;html=1;" vertex="1" parent="ZweK4gNvfimo4R74DKea-64">
          <mxGeometry x="784" width="155" height="60" as="geometry">
            <mxRectangle width="155" height="60" as="alternateBounds" />
          </mxGeometry>
        </mxCell>
        <mxCell id="ZweK4gNvfimo4R74DKea-71" value="A" style="connectable=0;recursiveResize=0;strokeColor=default;fillColor=none;align=center;whiteSpace=wrap;html=1;" vertex="1" parent="ZweK4gNvfimo4R74DKea-64">
          <mxGeometry x="939" width="158" height="60" as="geometry">
            <mxRectangle width="158" height="60" as="alternateBounds" />
          </mxGeometry>
        </mxCell>
        <mxCell id="ZweK4gNvfimo4R74DKea-72" value="Bernando" style="connectable=0;recursiveResize=0;strokeColor=default;fillColor=none;align=center;whiteSpace=wrap;html=1;" vertex="1" parent="ZweK4gNvfimo4R74DKea-64">
          <mxGeometry x="1097" width="155" height="60" as="geometry">
            <mxRectangle width="155" height="60" as="alternateBounds" />
          </mxGeometry>
        </mxCell>
        <mxCell id="ZweK4gNvfimo4R74DKea-73" value="IT" style="connectable=0;recursiveResize=0;strokeColor=default;fillColor=none;align=center;whiteSpace=wrap;html=1;" vertex="1" parent="ZweK4gNvfimo4R74DKea-64">
          <mxGeometry x="1252" width="156" height="60" as="geometry">
            <mxRectangle width="156" height="60" as="alternateBounds" />
          </mxGeometry>
        </mxCell>
        <mxCell id="ZweK4gNvfimo4R74DKea-74" value="" style="childLayout=tableLayout;recursiveResize=0;shadow=0;fillColor=none;strokeColor=default;" vertex="1" parent="1">
          <mxGeometry x="-4533.73" y="1366" width="333" height="47" as="geometry" />
        </mxCell>
        <mxCell id="ZweK4gNvfimo4R74DKea-75" value="" style="shape=tableRow;horizontal=0;startSize=0;swimlaneHead=0;swimlaneBody=0;top=0;left=0;bottom=0;right=0;dropTarget=0;collapsible=0;recursiveResize=0;expand=0;fontStyle=0;fillColor=none;" vertex="1" parent="ZweK4gNvfimo4R74DKea-74">
          <mxGeometry width="333" height="47" as="geometry" />
        </mxCell>
        <mxCell id="ZweK4gNvfimo4R74DKea-77" value="&lt;u&gt;ID_COURSE&lt;/u&gt;" style="connectable=0;recursiveResize=0;strokeColor=#6c8ebf;fillColor=#dae8fc;align=center;whiteSpace=wrap;html=1;" vertex="1" parent="ZweK4gNvfimo4R74DKea-75">
          <mxGeometry width="167" height="47" as="geometry">
            <mxRectangle width="167" height="47" as="alternateBounds" />
          </mxGeometry>
        </mxCell>
        <mxCell id="ZweK4gNvfimo4R74DKea-78" value="COURSE_NAME" style="connectable=0;recursiveResize=0;strokeColor=default;fillColor=none;align=center;whiteSpace=wrap;html=1;" vertex="1" parent="ZweK4gNvfimo4R74DKea-75">
          <mxGeometry x="167" width="166" height="47" as="geometry">
            <mxRectangle width="166" height="47" as="alternateBounds" />
          </mxGeometry>
        </mxCell>
        <mxCell id="ZweK4gNvfimo4R74DKea-139" style="rounded=0;orthogonalLoop=1;jettySize=auto;html=1;exitX=0.25;exitY=0;exitDx=0;exitDy=0;entryX=0.75;entryY=0;entryDx=0;entryDy=0;endSize=5;edgeStyle=elbowEdgeStyle;elbow=vertical;" edge="1" parent="ZweK4gNvfimo4R74DKea-74" source="ZweK4gNvfimo4R74DKea-75" target="ZweK4gNvfimo4R74DKea-75">
          <mxGeometry relative="1" as="geometry">
            <Array as="points">
              <mxPoint x="167" y="-24" />
            </Array>
          </mxGeometry>
        </mxCell>
        <mxCell id="ZweK4gNvfimo4R74DKea-93" value="" style="childLayout=tableLayout;recursiveResize=0;shadow=0;fillColor=none;strokeColor=#C0C0C0;" vertex="1" parent="1">
          <mxGeometry x="-4538.73" y="1487" width="499" height="47" as="geometry" />
        </mxCell>
        <mxCell id="ZweK4gNvfimo4R74DKea-94" value="" style="shape=tableRow;horizontal=0;startSize=0;swimlaneHead=0;swimlaneBody=0;top=0;left=0;bottom=0;right=0;dropTarget=0;collapsible=0;recursiveResize=0;expand=0;fontStyle=0;fillColor=none;" vertex="1" parent="ZweK4gNvfimo4R74DKea-93">
          <mxGeometry width="499" height="47" as="geometry" />
        </mxCell>
        <mxCell id="ZweK4gNvfimo4R74DKea-95" value="&lt;u&gt;ID_STUDENT&lt;/u&gt;" style="connectable=0;recursiveResize=0;strokeColor=#6c8ebf;fillColor=#dae8fc;align=center;whiteSpace=wrap;html=1;" vertex="1" parent="ZweK4gNvfimo4R74DKea-94">
          <mxGeometry width="167" height="47" as="geometry">
            <mxRectangle width="167" height="47" as="alternateBounds" />
          </mxGeometry>
        </mxCell>
        <mxCell id="ZweK4gNvfimo4R74DKea-96" value="STUDENT_NAME" style="connectable=0;recursiveResize=0;strokeColor=default;fillColor=none;align=center;whiteSpace=wrap;html=1;" vertex="1" parent="ZweK4gNvfimo4R74DKea-94">
          <mxGeometry x="167" width="166" height="47" as="geometry">
            <mxRectangle width="166" height="47" as="alternateBounds" />
          </mxGeometry>
        </mxCell>
        <mxCell id="ZweK4gNvfimo4R74DKea-103" value="MAJOR" style="connectable=0;recursiveResize=0;strokeColor=default;fillColor=none;align=center;whiteSpace=wrap;html=1;" vertex="1" parent="ZweK4gNvfimo4R74DKea-94">
          <mxGeometry x="333" width="166" height="47" as="geometry">
            <mxRectangle width="166" height="47" as="alternateBounds" />
          </mxGeometry>
        </mxCell>
        <mxCell id="ZweK4gNvfimo4R74DKea-144" style="edgeStyle=elbowEdgeStyle;rounded=0;orthogonalLoop=1;jettySize=auto;html=1;exitX=0.25;exitY=0;exitDx=0;exitDy=0;entryX=0.5;entryY=0;entryDx=0;entryDy=0;elbow=vertical;" edge="1" parent="ZweK4gNvfimo4R74DKea-93" source="ZweK4gNvfimo4R74DKea-94" target="ZweK4gNvfimo4R74DKea-94">
          <mxGeometry relative="1" as="geometry">
            <Array as="points">
              <mxPoint x="187" y="-41" />
            </Array>
          </mxGeometry>
        </mxCell>
        <mxCell id="ZweK4gNvfimo4R74DKea-145" style="edgeStyle=elbowEdgeStyle;rounded=0;orthogonalLoop=1;jettySize=auto;html=1;exitX=0.5;exitY=0;exitDx=0;exitDy=0;entryX=0.852;entryY=-0.017;entryDx=0;entryDy=0;entryPerimeter=0;elbow=vertical;" edge="1" parent="ZweK4gNvfimo4R74DKea-93" source="ZweK4gNvfimo4R74DKea-94" target="ZweK4gNvfimo4R74DKea-94">
          <mxGeometry relative="1" as="geometry">
            <Array as="points">
              <mxPoint x="337" y="-41" />
            </Array>
          </mxGeometry>
        </mxCell>
        <mxCell id="ZweK4gNvfimo4R74DKea-98" value="" style="childLayout=tableLayout;recursiveResize=0;shadow=0;fillColor=none;strokeColor=#C0C0C0;" vertex="1" parent="1">
          <mxGeometry x="-4530.73" y="1596" width="333" height="47" as="geometry" />
        </mxCell>
        <mxCell id="ZweK4gNvfimo4R74DKea-99" value="" style="shape=tableRow;horizontal=0;startSize=0;swimlaneHead=0;swimlaneBody=0;top=0;left=0;bottom=0;right=0;dropTarget=0;collapsible=0;recursiveResize=0;expand=0;fontStyle=0;fillColor=none;" vertex="1" parent="ZweK4gNvfimo4R74DKea-98">
          <mxGeometry width="333" height="47" as="geometry" />
        </mxCell>
        <mxCell id="ZweK4gNvfimo4R74DKea-100" value="&lt;u&gt;ID_INSTRUCTOR&lt;/u&gt;" style="connectable=0;recursiveResize=0;strokeColor=#6c8ebf;fillColor=#dae8fc;align=center;whiteSpace=wrap;html=1;" vertex="1" parent="ZweK4gNvfimo4R74DKea-99">
          <mxGeometry width="167" height="47" as="geometry">
            <mxRectangle width="167" height="47" as="alternateBounds" />
          </mxGeometry>
        </mxCell>
        <mxCell id="ZweK4gNvfimo4R74DKea-101" value="INSTRUCTOR_NAME" style="connectable=0;recursiveResize=0;strokeColor=default;fillColor=none;align=center;whiteSpace=wrap;html=1;" vertex="1" parent="ZweK4gNvfimo4R74DKea-99">
          <mxGeometry x="167" width="166" height="47" as="geometry">
            <mxRectangle width="166" height="47" as="alternateBounds" />
          </mxGeometry>
        </mxCell>
        <mxCell id="ZweK4gNvfimo4R74DKea-153" style="edgeStyle=elbowEdgeStyle;rounded=0;orthogonalLoop=1;jettySize=auto;html=1;exitX=0.25;exitY=0;exitDx=0;exitDy=0;entryX=0.75;entryY=0;entryDx=0;entryDy=0;elbow=vertical;" edge="1" parent="ZweK4gNvfimo4R74DKea-98" source="ZweK4gNvfimo4R74DKea-99" target="ZweK4gNvfimo4R74DKea-99">
          <mxGeometry relative="1" as="geometry">
            <Array as="points">
              <mxPoint x="173" y="-26" />
            </Array>
          </mxGeometry>
        </mxCell>
        <mxCell id="ZweK4gNvfimo4R74DKea-125" style="edgeStyle=orthogonalEdgeStyle;rounded=0;orthogonalLoop=1;jettySize=auto;html=1;exitX=0.5;exitY=1;exitDx=0;exitDy=0;entryX=0.5;entryY=1;entryDx=0;entryDy=0;" edge="1" parent="1" source="ZweK4gNvfimo4R74DKea-105" target="ZweK4gNvfimo4R74DKea-112">
          <mxGeometry relative="1" as="geometry">
            <Array as="points">
              <mxPoint x="-4488.73" y="1044" />
              <mxPoint x="-3391.73" y="1044" />
            </Array>
          </mxGeometry>
        </mxCell>
        <mxCell id="ZweK4gNvfimo4R74DKea-146" style="edgeStyle=orthogonalEdgeStyle;rounded=0;orthogonalLoop=1;jettySize=auto;html=1;exitX=0.5;exitY=0;exitDx=0;exitDy=0;entryX=0.5;entryY=0;entryDx=0;entryDy=0;endArrow=none;startFill=0;" edge="1" parent="1" source="ZweK4gNvfimo4R74DKea-105" target="ZweK4gNvfimo4R74DKea-106">
          <mxGeometry relative="1" as="geometry">
            <Array as="points">
              <mxPoint x="-4488.73" y="842" />
              <mxPoint x="-4331.73" y="842" />
            </Array>
          </mxGeometry>
        </mxCell>
        <mxCell id="ZweK4gNvfimo4R74DKea-105" value="ID_STUDENT_" style="connectable=1;recursiveResize=0;strokeColor=#6c8ebf;fillColor=#dae8fc;align=center;whiteSpace=wrap;html=1;fontSize=11;" vertex="1" parent="1">
          <mxGeometry x="-4566.73" y="865" width="156" height="68" as="geometry">
            <mxRectangle width="156" height="68" as="alternateBounds" />
          </mxGeometry>
        </mxCell>
        <mxCell id="ZweK4gNvfimo4R74DKea-127" style="edgeStyle=orthogonalEdgeStyle;rounded=0;orthogonalLoop=1;jettySize=auto;html=1;exitX=0.5;exitY=1;exitDx=0;exitDy=0;entryX=0.5;entryY=1;entryDx=0;entryDy=0;" edge="1" parent="1" source="ZweK4gNvfimo4R74DKea-106" target="ZweK4gNvfimo4R74DKea-107">
          <mxGeometry relative="1" as="geometry" />
        </mxCell>
        <mxCell id="ZweK4gNvfimo4R74DKea-106" value="ID_COURSE" style="connectable=1;recursiveResize=0;strokeColor=#6c8ebf;fillColor=#dae8fc;align=center;whiteSpace=wrap;html=1;fontSize=11;" vertex="1" parent="1">
          <mxGeometry x="-4410.73" y="865" width="157" height="68" as="geometry">
            <mxRectangle width="157" height="68" as="alternateBounds" />
          </mxGeometry>
        </mxCell>
        <mxCell id="ZweK4gNvfimo4R74DKea-147" style="edgeStyle=orthogonalEdgeStyle;rounded=0;orthogonalLoop=1;jettySize=auto;html=1;exitX=0.5;exitY=0;exitDx=0;exitDy=0;entryX=0.5;entryY=0;entryDx=0;entryDy=0;" edge="1" parent="1" source="ZweK4gNvfimo4R74DKea-107" target="ZweK4gNvfimo4R74DKea-109">
          <mxGeometry relative="1" as="geometry" />
        </mxCell>
        <mxCell id="ZweK4gNvfimo4R74DKea-107" value="COURSE_NAME" style="connectable=1;recursiveResize=0;strokeColor=default;fillColor=none;align=center;whiteSpace=wrap;html=1;fontSize=11;" vertex="1" parent="1">
          <mxGeometry x="-4253.73" y="865" width="156" height="68" as="geometry">
            <mxRectangle width="156" height="68" as="alternateBounds" />
          </mxGeometry>
        </mxCell>
        <mxCell id="ZweK4gNvfimo4R74DKea-128" style="edgeStyle=orthogonalEdgeStyle;rounded=0;orthogonalLoop=1;jettySize=auto;html=1;exitX=0.5;exitY=1;exitDx=0;exitDy=0;entryX=0.5;entryY=1;entryDx=0;entryDy=0;" edge="1" parent="1" source="ZweK4gNvfimo4R74DKea-108" target="ZweK4gNvfimo4R74DKea-109">
          <mxGeometry relative="1" as="geometry" />
        </mxCell>
        <mxCell id="ZweK4gNvfimo4R74DKea-108" value="ID_INSTRUCTOR" style="connectable=1;recursiveResize=0;strokeColor=#6c8ebf;fillColor=#dae8fc;align=center;whiteSpace=wrap;html=1;fontSize=11;" vertex="1" parent="1">
          <mxGeometry x="-4097.73" y="865" width="157" height="68" as="geometry">
            <mxRectangle width="157" height="68" as="alternateBounds" />
          </mxGeometry>
        </mxCell>
        <mxCell id="ZweK4gNvfimo4R74DKea-118" style="edgeStyle=orthogonalEdgeStyle;rounded=0;orthogonalLoop=1;jettySize=auto;html=1;exitX=0.5;exitY=0;exitDx=0;exitDy=0;entryX=0.5;entryY=0;entryDx=0;entryDy=0;" edge="1" parent="1" source="ZweK4gNvfimo4R74DKea-109" target="ZweK4gNvfimo4R74DKea-110">
          <mxGeometry relative="1" as="geometry" />
        </mxCell>
        <mxCell id="ZweK4gNvfimo4R74DKea-109" value="INSTRUCTOR_NAME" style="connectable=1;recursiveResize=0;strokeColor=default;fillColor=none;align=center;whiteSpace=wrap;html=1;fontSize=11;" vertex="1" parent="1">
          <mxGeometry x="-3940.73" y="865" width="158" height="68" as="geometry">
            <mxRectangle width="158" height="68" as="alternateBounds" />
          </mxGeometry>
        </mxCell>
        <mxCell id="ZweK4gNvfimo4R74DKea-119" style="edgeStyle=orthogonalEdgeStyle;rounded=0;orthogonalLoop=1;jettySize=auto;html=1;exitX=0.5;exitY=0;exitDx=0;exitDy=0;entryX=0.5;entryY=0;entryDx=0;entryDy=0;" edge="1" parent="1" source="ZweK4gNvfimo4R74DKea-110" target="ZweK4gNvfimo4R74DKea-111">
          <mxGeometry relative="1" as="geometry" />
        </mxCell>
        <mxCell id="ZweK4gNvfimo4R74DKea-110" value="INSTRUCTOR_LOCATION" style="connectable=1;recursiveResize=0;strokeColor=default;fillColor=none;align=center;whiteSpace=wrap;html=1;fontSize=11;" vertex="1" parent="1">
          <mxGeometry x="-3782.73" y="865" width="155" height="68" as="geometry">
            <mxRectangle width="155" height="68" as="alternateBounds" />
          </mxGeometry>
        </mxCell>
        <mxCell id="ZweK4gNvfimo4R74DKea-120" style="edgeStyle=orthogonalEdgeStyle;rounded=0;orthogonalLoop=1;jettySize=auto;html=1;exitX=0.5;exitY=0;exitDx=0;exitDy=0;entryX=0.5;entryY=0;entryDx=0;entryDy=0;" edge="1" parent="1" source="ZweK4gNvfimo4R74DKea-111" target="ZweK4gNvfimo4R74DKea-112">
          <mxGeometry relative="1" as="geometry" />
        </mxCell>
        <mxCell id="ZweK4gNvfimo4R74DKea-111" value="GRADE" style="connectable=1;recursiveResize=0;strokeColor=default;fillColor=none;align=center;whiteSpace=wrap;html=1;fontSize=11;" vertex="1" parent="1">
          <mxGeometry x="-3627.73" y="865" width="158" height="68" as="geometry">
            <mxRectangle width="158" height="68" as="alternateBounds" />
          </mxGeometry>
        </mxCell>
        <mxCell id="ZweK4gNvfimo4R74DKea-121" style="edgeStyle=orthogonalEdgeStyle;rounded=0;orthogonalLoop=1;jettySize=auto;html=1;exitX=0.5;exitY=0;exitDx=0;exitDy=0;entryX=0.5;entryY=0;entryDx=0;entryDy=0;" edge="1" parent="1" source="ZweK4gNvfimo4R74DKea-112" target="ZweK4gNvfimo4R74DKea-113">
          <mxGeometry relative="1" as="geometry" />
        </mxCell>
        <mxCell id="ZweK4gNvfimo4R74DKea-126" style="edgeStyle=orthogonalEdgeStyle;rounded=0;orthogonalLoop=1;jettySize=auto;html=1;exitX=0.5;exitY=1;exitDx=0;exitDy=0;entryX=0.5;entryY=1;entryDx=0;entryDy=0;" edge="1" parent="1">
          <mxGeometry relative="1" as="geometry">
            <mxPoint x="-3392.23" y="932" as="sourcePoint" />
            <mxPoint x="-3236.73" y="932" as="targetPoint" />
            <Array as="points">
              <mxPoint x="-3391.73" y="1044" />
              <mxPoint x="-3236.73" y="1044" />
            </Array>
          </mxGeometry>
        </mxCell>
        <mxCell id="ZweK4gNvfimo4R74DKea-112" value="STUDENT_NAME" style="connectable=1;recursiveResize=0;strokeColor=default;fillColor=none;align=center;whiteSpace=wrap;html=1;fontSize=11;" vertex="1" parent="1">
          <mxGeometry x="-3469.73" y="865" width="155" height="68" as="geometry">
            <mxRectangle width="155" height="68" as="alternateBounds" />
          </mxGeometry>
        </mxCell>
        <mxCell id="ZweK4gNvfimo4R74DKea-113" value="MAJOR" style="connectable=1;recursiveResize=0;strokeColor=default;fillColor=none;align=center;whiteSpace=wrap;html=1;fontSize=11;" vertex="1" parent="1">
          <mxGeometry x="-3314.73" y="865" width="156" height="68" as="geometry">
            <mxRectangle width="156" height="68" as="alternateBounds" />
          </mxGeometry>
        </mxCell>
        <mxCell id="ZweK4gNvfimo4R74DKea-129" value="&lt;font style=&quot;font-size: 13px;&quot;&gt;Partial Dependency&lt;/font&gt;" style="text;html=1;align=center;verticalAlign=middle;whiteSpace=wrap;rounded=0;" vertex="1" parent="1">
          <mxGeometry x="-4158.73" y="1056" width="655" height="39" as="geometry" />
        </mxCell>
        <mxCell id="ZweK4gNvfimo4R74DKea-130" value="&lt;font style=&quot;font-size: 13px;&quot;&gt;Partial Dependency&lt;/font&gt;" style="text;html=1;align=center;verticalAlign=middle;whiteSpace=wrap;rounded=0;" vertex="1" parent="1">
          <mxGeometry x="-4356.73" y="969" width="198" height="22" as="geometry" />
        </mxCell>
        <mxCell id="ZweK4gNvfimo4R74DKea-131" value="&lt;font style=&quot;font-size: 13px;&quot;&gt;Partial Dependency&lt;/font&gt;" style="text;html=1;align=center;verticalAlign=middle;whiteSpace=wrap;rounded=0;" vertex="1" parent="1">
          <mxGeometry x="-4039.73" y="966" width="198" height="22" as="geometry" />
        </mxCell>
        <mxCell id="ZweK4gNvfimo4R74DKea-133" value="&lt;h1 style=&quot;margin-top: 0px;&quot;&gt;&lt;span style=&quot;background-color: transparent; color: light-dark(rgb(0, 0, 0), rgb(255, 255, 255));&quot;&gt;&lt;font&gt;1NF&lt;/font&gt;&lt;/span&gt;&lt;/h1&gt;&lt;h1 style=&quot;margin-top: 0px;&quot;&gt;&lt;span style=&quot;font-weight: 400; text-align: center;&quot;&gt;&lt;font&gt;Tabel diatas sudah 1NF karena setiap kolom sudah memiliki ssatu nilai per record&lt;/font&gt;&lt;/span&gt;&lt;/h1&gt;" style="text;html=1;whiteSpace=wrap;overflow=hidden;rounded=0;" vertex="1" parent="1">
          <mxGeometry x="-4533.73" y="731" width="1117" height="97" as="geometry" />
        </mxCell>
        <mxCell id="ZweK4gNvfimo4R74DKea-134" value="&lt;h1 style=&quot;margin-top: 0px;&quot;&gt;&lt;span style=&quot;background-color: transparent; color: light-dark(rgb(0, 0, 0), rgb(255, 255, 255));&quot;&gt;&lt;font&gt;2NF&lt;/font&gt;&lt;/span&gt;&lt;/h1&gt;&lt;h1 style=&quot;text-align: center; margin-top: 0px;&quot;&gt;&lt;span style=&quot;font-weight: 400;&quot;&gt;&lt;font&gt;Menghilangkan partial dependency&lt;/font&gt;&lt;/span&gt;&lt;/h1&gt;" style="text;html=1;whiteSpace=wrap;overflow=hidden;rounded=0;" vertex="1" parent="1">
          <mxGeometry x="-4559.73" y="1236" width="450" height="97" as="geometry" />
        </mxCell>
        <mxCell id="ZweK4gNvfimo4R74DKea-135" value="&lt;h1 style=&quot;margin-top: 0px;&quot;&gt;&lt;span style=&quot;font-weight: normal;&quot;&gt;&lt;font&gt;Partial Dependencies:&lt;/font&gt;&lt;/span&gt;&lt;/h1&gt;&lt;div&gt;&lt;span style=&quot;font-weight: normal;&quot;&gt;&lt;font style=&quot;font-size: 24px;&quot;&gt;(&lt;u&gt;ID_STUDENT_&lt;/u&gt;-&amp;gt; STUDENT_NAME, MAJOR)&lt;/font&gt;&lt;/span&gt;&lt;/div&gt;&lt;div&gt;&lt;span style=&quot;font-weight: normal;&quot;&gt;&lt;font style=&quot;font-size: 24px;&quot;&gt;(&lt;u&gt;ID_COURSE&lt;/u&gt;) -&amp;gt; COURSE_NAME&lt;/font&gt;&lt;/span&gt;&lt;/div&gt;&lt;div&gt;&lt;span style=&quot;font-size: 24px;&quot;&gt;(&lt;u&gt;ID_INSTRUCTOR &lt;/u&gt;-&amp;gt; INSTRUCTOR_NAME)&lt;/span&gt;&lt;/div&gt;" style="text;html=1;whiteSpace=wrap;overflow=hidden;rounded=0;" vertex="1" parent="1">
          <mxGeometry x="-4518.73" y="1076" width="607" height="135" as="geometry" />
        </mxCell>
        <mxCell id="ZweK4gNvfimo4R74DKea-141" value="&lt;h1 style=&quot;margin-top: 0px;&quot;&gt;&lt;span style=&quot;font-weight: normal;&quot;&gt;Table name: COURSE&lt;/span&gt;&lt;/h1&gt;" style="text;html=1;whiteSpace=wrap;overflow=hidden;rounded=0;" vertex="1" parent="1">
          <mxGeometry x="-4158.73" y="1333" width="255" height="51" as="geometry" />
        </mxCell>
        <mxCell id="ZweK4gNvfimo4R74DKea-142" value="&lt;h1 style=&quot;margin-top: 0px;&quot;&gt;&lt;span style=&quot;font-weight: normal;&quot;&gt;Table name: STUDENT&lt;/span&gt;&lt;/h1&gt;" style="text;html=1;whiteSpace=wrap;overflow=hidden;rounded=0;" vertex="1" parent="1">
          <mxGeometry x="-4003.86" y="1492" width="255" height="51" as="geometry" />
        </mxCell>
        <mxCell id="ZweK4gNvfimo4R74DKea-143" value="&lt;h1 style=&quot;margin-top: 0px;&quot;&gt;&lt;span style=&quot;font-weight: normal;&quot;&gt;Table name: INSTRUCTOR&lt;/span&gt;&lt;/h1&gt;" style="text;html=1;whiteSpace=wrap;overflow=hidden;rounded=0;" vertex="1" parent="1">
          <mxGeometry x="-4150.73" y="1592" width="315" height="51" as="geometry" />
        </mxCell>
        <mxCell id="ZweK4gNvfimo4R74DKea-152" value="&lt;h1 style=&quot;margin-top: 0px;&quot;&gt;&lt;span style=&quot;font-weight: normal;&quot;&gt;Table name: GRADING&lt;/span&gt;&lt;/h1&gt;" style="text;html=1;whiteSpace=wrap;overflow=hidden;rounded=0;" vertex="1" parent="1">
          <mxGeometry x="-3972.73" y="1737" width="315" height="51" as="geometry" />
        </mxCell>
        <mxCell id="ZweK4gNvfimo4R74DKea-158" value="" style="childLayout=tableLayout;recursiveResize=0;shadow=0;fillColor=none;strokeColor=#C0C0C0;connectable=1;" vertex="1" parent="1">
          <mxGeometry x="-4549.73" y="1881" width="498" height="47" as="geometry" />
        </mxCell>
        <mxCell id="ZweK4gNvfimo4R74DKea-159" value="" style="shape=tableRow;horizontal=0;startSize=0;swimlaneHead=0;swimlaneBody=0;top=0;left=0;bottom=0;right=0;dropTarget=0;collapsible=0;recursiveResize=0;expand=0;fontStyle=0;fillColor=none;" vertex="1" parent="ZweK4gNvfimo4R74DKea-158">
          <mxGeometry width="498" height="47" as="geometry" />
        </mxCell>
        <mxCell id="ZweK4gNvfimo4R74DKea-161" value="&lt;u&gt;ID_COUSE&lt;/u&gt;" style="connectable=1;recursiveResize=0;strokeColor=#6c8ebf;fillColor=#dae8fc;align=center;whiteSpace=wrap;html=1;" vertex="1" parent="ZweK4gNvfimo4R74DKea-159">
          <mxGeometry width="166" height="47" as="geometry">
            <mxRectangle width="166" height="47" as="alternateBounds" />
          </mxGeometry>
        </mxCell>
        <mxCell id="ZweK4gNvfimo4R74DKea-162" value="&lt;u&gt;ID_INSTRUCTOR&lt;/u&gt;" style="connectable=1;recursiveResize=0;align=center;whiteSpace=wrap;html=1;fillColor=#dae8fc;strokeColor=#6c8ebf;" vertex="1" parent="ZweK4gNvfimo4R74DKea-159">
          <mxGeometry x="166" width="166" height="47" as="geometry">
            <mxRectangle width="166" height="47" as="alternateBounds" />
          </mxGeometry>
        </mxCell>
        <mxCell id="ZweK4gNvfimo4R74DKea-177" value="INSTRUCTOR_LOCATION" style="connectable=1;recursiveResize=0;align=center;whiteSpace=wrap;html=1;" vertex="1" parent="ZweK4gNvfimo4R74DKea-159">
          <mxGeometry x="332" width="166" height="47" as="geometry">
            <mxRectangle width="166" height="47" as="alternateBounds" />
          </mxGeometry>
        </mxCell>
        <mxCell id="ZweK4gNvfimo4R74DKea-180" style="edgeStyle=orthogonalEdgeStyle;rounded=0;orthogonalLoop=1;jettySize=auto;html=1;exitX=0.5;exitY=0;exitDx=0;exitDy=0;entryX=0.5;entryY=0;entryDx=0;entryDy=0;endArrow=none;startFill=0;" edge="1" parent="ZweK4gNvfimo4R74DKea-158" source="ZweK4gNvfimo4R74DKea-161" target="ZweK4gNvfimo4R74DKea-158">
          <mxGeometry relative="1" as="geometry" />
        </mxCell>
        <mxCell id="ZweK4gNvfimo4R74DKea-165" value="" style="group" vertex="1" connectable="0" parent="1">
          <mxGeometry x="-4546.73" y="1658" width="499" height="118" as="geometry" />
        </mxCell>
        <mxCell id="ZweK4gNvfimo4R74DKea-148" value="" style="childLayout=tableLayout;recursiveResize=0;shadow=0;fillColor=none;strokeColor=#C0C0C0;" vertex="1" parent="ZweK4gNvfimo4R74DKea-165">
          <mxGeometry y="71" width="499" height="47" as="geometry" />
        </mxCell>
        <mxCell id="ZweK4gNvfimo4R74DKea-149" value="" style="shape=tableRow;horizontal=0;startSize=0;swimlaneHead=0;swimlaneBody=0;top=0;left=0;bottom=0;right=0;dropTarget=0;collapsible=0;recursiveResize=0;expand=0;fontStyle=0;fillColor=none;" vertex="1" parent="ZweK4gNvfimo4R74DKea-148">
          <mxGeometry width="499" height="47" as="geometry" />
        </mxCell>
        <mxCell id="ZweK4gNvfimo4R74DKea-150" value="&lt;u&gt;ID_STUDENT&lt;/u&gt;" style="connectable=0;recursiveResize=0;strokeColor=#6c8ebf;fillColor=#dae8fc;align=center;whiteSpace=wrap;html=1;" vertex="1" parent="ZweK4gNvfimo4R74DKea-149">
          <mxGeometry width="167" height="47" as="geometry">
            <mxRectangle width="167" height="47" as="alternateBounds" />
          </mxGeometry>
        </mxCell>
        <mxCell id="ZweK4gNvfimo4R74DKea-151" value="&lt;u&gt;ID_COURSE&lt;/u&gt;" style="connectable=0;recursiveResize=0;strokeColor=#6c8ebf;fillColor=#dae8fc;align=center;whiteSpace=wrap;html=1;" vertex="1" parent="ZweK4gNvfimo4R74DKea-149">
          <mxGeometry x="167" width="166" height="47" as="geometry">
            <mxRectangle width="166" height="47" as="alternateBounds" />
          </mxGeometry>
        </mxCell>
        <mxCell id="ZweK4gNvfimo4R74DKea-154" value="GRADE" style="connectable=0;recursiveResize=0;align=center;whiteSpace=wrap;html=1;" vertex="1" parent="ZweK4gNvfimo4R74DKea-149">
          <mxGeometry x="333" width="166" height="47" as="geometry">
            <mxRectangle width="166" height="47" as="alternateBounds" />
          </mxGeometry>
        </mxCell>
        <mxCell id="ZweK4gNvfimo4R74DKea-156" style="edgeStyle=elbowEdgeStyle;rounded=0;orthogonalLoop=1;jettySize=auto;html=1;exitX=0.25;exitY=0;exitDx=0;exitDy=0;entryX=0.5;entryY=0;entryDx=0;entryDy=0;endArrow=none;startFill=0;elbow=vertical;" edge="1" parent="ZweK4gNvfimo4R74DKea-165" source="ZweK4gNvfimo4R74DKea-148" target="ZweK4gNvfimo4R74DKea-148">
          <mxGeometry relative="1" as="geometry">
            <Array as="points">
              <mxPoint x="192" y="35" />
            </Array>
          </mxGeometry>
        </mxCell>
        <mxCell id="ZweK4gNvfimo4R74DKea-157" style="edgeStyle=orthogonalEdgeStyle;rounded=0;orthogonalLoop=1;jettySize=auto;html=1;endArrow=none;startFill=1;startArrow=classic;" edge="1" parent="ZweK4gNvfimo4R74DKea-165" source="ZweK4gNvfimo4R74DKea-149">
          <mxGeometry relative="1" as="geometry">
            <mxPoint x="194" y="35" as="targetPoint" />
            <mxPoint x="374.24999999999955" y="68.00000000000023" as="sourcePoint" />
            <Array as="points">
              <mxPoint x="374" />
              <mxPoint x="194" />
            </Array>
          </mxGeometry>
        </mxCell>
        <mxCell id="ZweK4gNvfimo4R74DKea-173" value="&lt;h1 style=&quot;margin-top: 0px;&quot;&gt;&lt;span style=&quot;font-weight: normal;&quot;&gt;Table name: CLASS&lt;/span&gt;&lt;/h1&gt;" style="text;html=1;whiteSpace=wrap;overflow=hidden;rounded=0;" vertex="1" parent="1">
          <mxGeometry x="-3995.73" y="1881" width="315" height="51" as="geometry" />
        </mxCell>
        <mxCell id="ZweK4gNvfimo4R74DKea-182" style="edgeStyle=orthogonalEdgeStyle;rounded=0;orthogonalLoop=1;jettySize=auto;html=1;exitX=0.5;exitY=0;exitDx=0;exitDy=0;endArrow=none;startFill=1;startArrow=classic;" edge="1" parent="1" source="ZweK4gNvfimo4R74DKea-177">
          <mxGeometry relative="1" as="geometry">
            <mxPoint x="-4385.73" y="1861" as="targetPoint" />
            <Array as="points">
              <mxPoint x="-4134.73" y="1808" />
              <mxPoint x="-4385.73" y="1808" />
            </Array>
          </mxGeometry>
        </mxCell>
        <mxCell id="ZweK4gNvfimo4R74DKea-184" value="&lt;h1 style=&quot;margin-top: 0px;&quot;&gt;&lt;span style=&quot;font-weight: normal;&quot;&gt;Pada table CLASS, jika merujuk pada table paling awal, INSTRUCTOR_LOCATION bergantung pada ID_COURSE, maka memindahkan atribut ke table COURSE menghilangkan transitif dependency dan otomatis sudah dalam bentuk 3NF, tetapi jika INSTRUCTOR_LOCATION bergantung pada composite ID_COURSE dan ID_INSTRUCTION, maka bentuk ini sudah memenuhi 2NF dan otomatis juga 3NF&lt;/span&gt;&lt;/h1&gt;" style="text;html=1;whiteSpace=wrap;overflow=hidden;rounded=0;" vertex="1" parent="1">
          <mxGeometry x="-4553.73" y="1962" width="989" height="162" as="geometry" />
        </mxCell>
        <mxCell id="ZweK4gNvfimo4R74DKea-203" value="" style="group" vertex="1" connectable="0" parent="1">
          <mxGeometry x="-3618.73" y="1263" width="467" height="370" as="geometry" />
        </mxCell>
        <mxCell id="ZweK4gNvfimo4R74DKea-185" value="&lt;u&gt;ID_STUDENT_&lt;/u&gt;" style="connectable=0;recursiveResize=0;strokeColor=#666666;fillColor=#f5f5f5;align=center;whiteSpace=wrap;html=1;fontSize=11;fontColor=#333333;" vertex="1" parent="ZweK4gNvfimo4R74DKea-203">
          <mxGeometry width="156" height="68" as="geometry">
            <mxRectangle width="156" height="68" as="alternateBounds" />
          </mxGeometry>
        </mxCell>
        <mxCell id="ZweK4gNvfimo4R74DKea-186" value="STUDENT_NAME" style="connectable=0;recursiveResize=0;strokeColor=#666666;fillColor=#f5f5f5;align=center;whiteSpace=wrap;html=1;fontSize=11;fontColor=#333333;" vertex="1" parent="ZweK4gNvfimo4R74DKea-203">
          <mxGeometry x="156" width="155" height="68" as="geometry">
            <mxRectangle width="155" height="68" as="alternateBounds" />
          </mxGeometry>
        </mxCell>
        <mxCell id="ZweK4gNvfimo4R74DKea-187" value="MAJOR" style="connectable=0;recursiveResize=0;strokeColor=#666666;fillColor=#f5f5f5;align=center;whiteSpace=wrap;html=1;fontSize=11;fontColor=#333333;" vertex="1" parent="ZweK4gNvfimo4R74DKea-203">
          <mxGeometry x="311" width="156" height="68" as="geometry">
            <mxRectangle width="156" height="68" as="alternateBounds" />
          </mxGeometry>
        </mxCell>
        <mxCell id="ZweK4gNvfimo4R74DKea-188" value="33" style="connectable=0;recursiveResize=0;strokeColor=default;fillColor=none;align=center;whiteSpace=wrap;html=1;" vertex="1" parent="ZweK4gNvfimo4R74DKea-203">
          <mxGeometry y="68" width="156" height="60" as="geometry">
            <mxRectangle width="156" height="60" as="alternateBounds" />
          </mxGeometry>
        </mxCell>
        <mxCell id="ZweK4gNvfimo4R74DKea-189" value="Donavan" style="connectable=0;recursiveResize=0;strokeColor=default;fillColor=none;align=center;whiteSpace=wrap;html=1;" vertex="1" parent="ZweK4gNvfimo4R74DKea-203">
          <mxGeometry x="156" y="68" width="155" height="60" as="geometry">
            <mxRectangle width="155" height="60" as="alternateBounds" />
          </mxGeometry>
        </mxCell>
        <mxCell id="ZweK4gNvfimo4R74DKea-190" value="IT" style="connectable=0;recursiveResize=0;strokeColor=default;fillColor=none;align=center;whiteSpace=wrap;html=1;" vertex="1" parent="ZweK4gNvfimo4R74DKea-203">
          <mxGeometry x="311" y="68" width="156" height="60" as="geometry">
            <mxRectangle width="156" height="60" as="alternateBounds" />
          </mxGeometry>
        </mxCell>
        <mxCell id="ZweK4gNvfimo4R74DKea-191" value="40" style="connectable=0;recursiveResize=0;strokeColor=default;fillColor=none;align=center;whiteSpace=wrap;html=1;" vertex="1" parent="ZweK4gNvfimo4R74DKea-203">
          <mxGeometry y="128" width="156" height="61" as="geometry">
            <mxRectangle width="156" height="61" as="alternateBounds" />
          </mxGeometry>
        </mxCell>
        <mxCell id="ZweK4gNvfimo4R74DKea-192" value="Jarred" style="connectable=0;recursiveResize=0;strokeColor=default;fillColor=none;align=center;whiteSpace=wrap;html=1;" vertex="1" parent="ZweK4gNvfimo4R74DKea-203">
          <mxGeometry x="156" y="128" width="155" height="61" as="geometry">
            <mxRectangle width="155" height="61" as="alternateBounds" />
          </mxGeometry>
        </mxCell>
        <mxCell id="ZweK4gNvfimo4R74DKea-193" value="IT" style="connectable=0;recursiveResize=0;strokeColor=default;fillColor=none;align=center;whiteSpace=wrap;html=1;" vertex="1" parent="ZweK4gNvfimo4R74DKea-203">
          <mxGeometry x="311" y="128" width="156" height="61" as="geometry">
            <mxRectangle width="156" height="61" as="alternateBounds" />
          </mxGeometry>
        </mxCell>
        <mxCell id="ZweK4gNvfimo4R74DKea-194" value="34" style="connectable=0;recursiveResize=0;strokeColor=default;fillColor=none;align=center;whiteSpace=wrap;html=1;" vertex="1" parent="ZweK4gNvfimo4R74DKea-203">
          <mxGeometry y="189" width="156" height="60" as="geometry">
            <mxRectangle width="156" height="60" as="alternateBounds" />
          </mxGeometry>
        </mxCell>
        <mxCell id="ZweK4gNvfimo4R74DKea-195" value="Luka" style="connectable=0;recursiveResize=0;strokeColor=default;fillColor=none;align=center;whiteSpace=wrap;html=1;" vertex="1" parent="ZweK4gNvfimo4R74DKea-203">
          <mxGeometry x="156" y="189" width="155" height="60" as="geometry">
            <mxRectangle width="155" height="60" as="alternateBounds" />
          </mxGeometry>
        </mxCell>
        <mxCell id="ZweK4gNvfimo4R74DKea-196" value="IT" style="connectable=0;recursiveResize=0;strokeColor=default;fillColor=none;align=center;whiteSpace=wrap;html=1;" vertex="1" parent="ZweK4gNvfimo4R74DKea-203">
          <mxGeometry x="311" y="189" width="156" height="60" as="geometry">
            <mxRectangle width="156" height="60" as="alternateBounds" />
          </mxGeometry>
        </mxCell>
        <mxCell id="ZweK4gNvfimo4R74DKea-197" value="6" style="connectable=0;recursiveResize=0;strokeColor=default;fillColor=none;align=center;whiteSpace=wrap;html=1;" vertex="1" parent="ZweK4gNvfimo4R74DKea-203">
          <mxGeometry y="249" width="156" height="61" as="geometry">
            <mxRectangle width="156" height="61" as="alternateBounds" />
          </mxGeometry>
        </mxCell>
        <mxCell id="ZweK4gNvfimo4R74DKea-198" value="Kai" style="connectable=0;recursiveResize=0;strokeColor=default;fillColor=none;align=center;whiteSpace=wrap;html=1;" vertex="1" parent="ZweK4gNvfimo4R74DKea-203">
          <mxGeometry x="156" y="249" width="155" height="61" as="geometry">
            <mxRectangle width="155" height="61" as="alternateBounds" />
          </mxGeometry>
        </mxCell>
        <mxCell id="ZweK4gNvfimo4R74DKea-199" value="IT" style="connectable=0;recursiveResize=0;strokeColor=default;fillColor=none;align=center;whiteSpace=wrap;html=1;" vertex="1" parent="ZweK4gNvfimo4R74DKea-203">
          <mxGeometry x="311" y="249" width="156" height="61" as="geometry">
            <mxRectangle width="156" height="61" as="alternateBounds" />
          </mxGeometry>
        </mxCell>
        <mxCell id="ZweK4gNvfimo4R74DKea-200" value="1" style="connectable=0;recursiveResize=0;strokeColor=default;fillColor=none;align=center;whiteSpace=wrap;html=1;" vertex="1" parent="ZweK4gNvfimo4R74DKea-203">
          <mxGeometry y="310" width="156" height="60" as="geometry">
            <mxRectangle width="156" height="60" as="alternateBounds" />
          </mxGeometry>
        </mxCell>
        <mxCell id="ZweK4gNvfimo4R74DKea-201" value="Bernando" style="connectable=0;recursiveResize=0;strokeColor=default;fillColor=none;align=center;whiteSpace=wrap;html=1;" vertex="1" parent="ZweK4gNvfimo4R74DKea-203">
          <mxGeometry x="156" y="310" width="155" height="60" as="geometry">
            <mxRectangle width="155" height="60" as="alternateBounds" />
          </mxGeometry>
        </mxCell>
        <mxCell id="ZweK4gNvfimo4R74DKea-202" value="IT" style="connectable=0;recursiveResize=0;strokeColor=default;fillColor=none;align=center;whiteSpace=wrap;html=1;" vertex="1" parent="ZweK4gNvfimo4R74DKea-203">
          <mxGeometry x="311" y="310" width="156" height="60" as="geometry">
            <mxRectangle width="156" height="60" as="alternateBounds" />
          </mxGeometry>
        </mxCell>
        <mxCell id="ZweK4gNvfimo4R74DKea-216" value="" style="group" vertex="1" connectable="0" parent="1">
          <mxGeometry x="-3117.73" y="1264" width="315" height="370" as="geometry" />
        </mxCell>
        <mxCell id="ZweK4gNvfimo4R74DKea-204" value="&lt;u&gt;ID_INSTRUCTOR&lt;/u&gt;" style="connectable=0;recursiveResize=0;strokeColor=#666666;fillColor=#f5f5f5;align=center;whiteSpace=wrap;html=1;fontSize=11;fontColor=#333333;" vertex="1" parent="ZweK4gNvfimo4R74DKea-216">
          <mxGeometry width="157" height="68" as="geometry">
            <mxRectangle width="157" height="68" as="alternateBounds" />
          </mxGeometry>
        </mxCell>
        <mxCell id="ZweK4gNvfimo4R74DKea-205" value="INSTRUCTOR_NAME" style="connectable=0;recursiveResize=0;strokeColor=#666666;fillColor=#f5f5f5;align=center;whiteSpace=wrap;html=1;fontSize=11;fontColor=#333333;" vertex="1" parent="ZweK4gNvfimo4R74DKea-216">
          <mxGeometry x="157" width="158" height="68" as="geometry">
            <mxRectangle width="158" height="68" as="alternateBounds" />
          </mxGeometry>
        </mxCell>
        <mxCell id="ZweK4gNvfimo4R74DKea-206" value="10" style="connectable=0;recursiveResize=0;strokeColor=default;fillColor=none;align=center;whiteSpace=wrap;html=1;" vertex="1" parent="ZweK4gNvfimo4R74DKea-216">
          <mxGeometry y="68" width="157" height="60" as="geometry">
            <mxRectangle width="157" height="60" as="alternateBounds" />
          </mxGeometry>
        </mxCell>
        <mxCell id="ZweK4gNvfimo4R74DKea-207" value="Ivar" style="connectable=0;recursiveResize=0;strokeColor=default;fillColor=none;align=center;whiteSpace=wrap;html=1;" vertex="1" parent="ZweK4gNvfimo4R74DKea-216">
          <mxGeometry x="157" y="68" width="158" height="60" as="geometry">
            <mxRectangle width="158" height="60" as="alternateBounds" />
          </mxGeometry>
        </mxCell>
        <mxCell id="ZweK4gNvfimo4R74DKea-208" value="8" style="connectable=0;recursiveResize=0;strokeColor=default;fillColor=none;align=center;whiteSpace=wrap;html=1;" vertex="1" parent="ZweK4gNvfimo4R74DKea-216">
          <mxGeometry y="128" width="157" height="61" as="geometry">
            <mxRectangle width="157" height="61" as="alternateBounds" />
          </mxGeometry>
        </mxCell>
        <mxCell id="ZweK4gNvfimo4R74DKea-209" value="Elkan" style="connectable=0;recursiveResize=0;strokeColor=default;fillColor=none;align=center;whiteSpace=wrap;html=1;" vertex="1" parent="ZweK4gNvfimo4R74DKea-216">
          <mxGeometry x="157" y="128" width="158" height="61" as="geometry">
            <mxRectangle width="158" height="61" as="alternateBounds" />
          </mxGeometry>
        </mxCell>
        <mxCell id="ZweK4gNvfimo4R74DKea-210" value="3" style="connectable=0;recursiveResize=0;strokeColor=default;fillColor=none;align=center;whiteSpace=wrap;html=1;" vertex="1" parent="ZweK4gNvfimo4R74DKea-216">
          <mxGeometry y="189" width="157" height="60" as="geometry">
            <mxRectangle width="157" height="60" as="alternateBounds" />
          </mxGeometry>
        </mxCell>
        <mxCell id="ZweK4gNvfimo4R74DKea-211" value="Hugo" style="connectable=0;recursiveResize=0;strokeColor=default;fillColor=none;align=center;whiteSpace=wrap;html=1;" vertex="1" parent="ZweK4gNvfimo4R74DKea-216">
          <mxGeometry x="157" y="189" width="158" height="60" as="geometry">
            <mxRectangle width="158" height="60" as="alternateBounds" />
          </mxGeometry>
        </mxCell>
        <mxCell id="ZweK4gNvfimo4R74DKea-212" value="5" style="connectable=0;recursiveResize=0;strokeColor=default;fillColor=none;align=center;whiteSpace=wrap;html=1;" vertex="1" parent="ZweK4gNvfimo4R74DKea-216">
          <mxGeometry y="249" width="157" height="61" as="geometry">
            <mxRectangle width="157" height="61" as="alternateBounds" />
          </mxGeometry>
        </mxCell>
        <mxCell id="ZweK4gNvfimo4R74DKea-213" value="Amar" style="connectable=0;recursiveResize=0;strokeColor=default;fillColor=none;align=center;whiteSpace=wrap;html=1;" vertex="1" parent="ZweK4gNvfimo4R74DKea-216">
          <mxGeometry x="157" y="249" width="158" height="61" as="geometry">
            <mxRectangle width="158" height="61" as="alternateBounds" />
          </mxGeometry>
        </mxCell>
        <mxCell id="ZweK4gNvfimo4R74DKea-214" value="1" style="connectable=0;recursiveResize=0;strokeColor=default;fillColor=none;align=center;whiteSpace=wrap;html=1;" vertex="1" parent="ZweK4gNvfimo4R74DKea-216">
          <mxGeometry y="310" width="157" height="60" as="geometry">
            <mxRectangle width="157" height="60" as="alternateBounds" />
          </mxGeometry>
        </mxCell>
        <mxCell id="ZweK4gNvfimo4R74DKea-215" value="Welber" style="connectable=0;recursiveResize=0;strokeColor=default;fillColor=none;align=center;whiteSpace=wrap;html=1;" vertex="1" parent="ZweK4gNvfimo4R74DKea-216">
          <mxGeometry x="157" y="310" width="158" height="60" as="geometry">
            <mxRectangle width="158" height="60" as="alternateBounds" />
          </mxGeometry>
        </mxCell>
        <mxCell id="ZweK4gNvfimo4R74DKea-230" value="" style="group" vertex="1" connectable="0" parent="1">
          <mxGeometry x="-2771.73" y="1265" width="313" height="250" as="geometry" />
        </mxCell>
        <mxCell id="ZweK4gNvfimo4R74DKea-217" value="&lt;u&gt;ID_COURSE&lt;/u&gt;" style="connectable=0;recursiveResize=0;strokeColor=#666666;fillColor=#f5f5f5;align=center;whiteSpace=wrap;html=1;fontSize=11;fontColor=#333333;" vertex="1" parent="ZweK4gNvfimo4R74DKea-230">
          <mxGeometry width="157" height="68" as="geometry">
            <mxRectangle width="157" height="68" as="alternateBounds" />
          </mxGeometry>
        </mxCell>
        <mxCell id="ZweK4gNvfimo4R74DKea-218" value="COURSE_NAME" style="connectable=0;recursiveResize=0;strokeColor=#666666;fillColor=#f5f5f5;align=center;whiteSpace=wrap;html=1;fontSize=11;fontColor=#333333;" vertex="1" parent="ZweK4gNvfimo4R74DKea-230">
          <mxGeometry x="157" width="156" height="68" as="geometry">
            <mxRectangle width="156" height="68" as="alternateBounds" />
          </mxGeometry>
        </mxCell>
        <mxCell id="ZweK4gNvfimo4R74DKea-221" value="ET01" style="connectable=0;recursiveResize=0;strokeColor=default;fillColor=none;align=center;whiteSpace=wrap;html=1;" vertex="1" parent="ZweK4gNvfimo4R74DKea-230">
          <mxGeometry y="68" width="157" height="61" as="geometry">
            <mxRectangle width="157" height="61" as="alternateBounds" />
          </mxGeometry>
        </mxCell>
        <mxCell id="ZweK4gNvfimo4R74DKea-222" value="Database System" style="connectable=0;recursiveResize=0;strokeColor=default;fillColor=none;align=center;whiteSpace=wrap;html=1;" vertex="1" parent="ZweK4gNvfimo4R74DKea-230">
          <mxGeometry x="157" y="68" width="156" height="61" as="geometry">
            <mxRectangle width="156" height="61" as="alternateBounds" />
          </mxGeometry>
        </mxCell>
        <mxCell id="ZweK4gNvfimo4R74DKea-225" value="ET02" style="connectable=0;recursiveResize=0;strokeColor=default;fillColor=none;align=center;whiteSpace=wrap;html=1;" vertex="1" parent="ZweK4gNvfimo4R74DKea-230">
          <mxGeometry y="129" width="157" height="61" as="geometry">
            <mxRectangle width="157" height="61" as="alternateBounds" />
          </mxGeometry>
        </mxCell>
        <mxCell id="ZweK4gNvfimo4R74DKea-226" value="Internet of Things" style="connectable=0;recursiveResize=0;strokeColor=default;fillColor=none;align=center;whiteSpace=wrap;html=1;" vertex="1" parent="ZweK4gNvfimo4R74DKea-230">
          <mxGeometry x="157" y="129" width="156" height="61" as="geometry">
            <mxRectangle width="156" height="61" as="alternateBounds" />
          </mxGeometry>
        </mxCell>
        <mxCell id="ZweK4gNvfimo4R74DKea-227" value="ET03" style="connectable=0;recursiveResize=0;strokeColor=default;fillColor=none;align=center;whiteSpace=wrap;html=1;" vertex="1" parent="ZweK4gNvfimo4R74DKea-230">
          <mxGeometry y="190" width="157" height="60" as="geometry">
            <mxRectangle width="157" height="60" as="alternateBounds" />
          </mxGeometry>
        </mxCell>
        <mxCell id="ZweK4gNvfimo4R74DKea-228" value="Ethical Hacking" style="connectable=0;recursiveResize=0;strokeColor=default;fillColor=none;align=center;whiteSpace=wrap;html=1;" vertex="1" parent="ZweK4gNvfimo4R74DKea-230">
          <mxGeometry x="157" y="190" width="156" height="60" as="geometry">
            <mxRectangle width="156" height="60" as="alternateBounds" />
          </mxGeometry>
        </mxCell>
        <mxCell id="ZweK4gNvfimo4R74DKea-241" value="COURSE" style="shape=table;startSize=30;container=1;collapsible=1;childLayout=tableLayout;fixedRows=1;rowLines=0;fontStyle=1;align=center;resizeLast=1;" vertex="1" parent="1">
          <mxGeometry x="-2856.73" y="1881" width="249" height="90" as="geometry" />
        </mxCell>
        <mxCell id="ZweK4gNvfimo4R74DKea-242" value="" style="shape=tableRow;horizontal=0;startSize=0;swimlaneHead=0;swimlaneBody=0;fillColor=none;collapsible=0;dropTarget=0;points=[[0,0.5],[1,0.5]];portConstraint=eastwest;strokeColor=inherit;top=0;left=0;right=0;bottom=1;" vertex="1" parent="ZweK4gNvfimo4R74DKea-241">
          <mxGeometry y="30" width="249" height="30" as="geometry" />
        </mxCell>
        <mxCell id="ZweK4gNvfimo4R74DKea-243" value="PK" style="shape=partialRectangle;overflow=hidden;connectable=0;fillColor=none;strokeColor=inherit;top=0;left=0;bottom=0;right=0;fontStyle=1;" vertex="1" parent="ZweK4gNvfimo4R74DKea-242">
          <mxGeometry width="30" height="30" as="geometry">
            <mxRectangle width="30" height="30" as="alternateBounds" />
          </mxGeometry>
        </mxCell>
        <mxCell id="ZweK4gNvfimo4R74DKea-244" value="ID_COURSE" style="shape=partialRectangle;overflow=hidden;connectable=0;fillColor=none;align=left;strokeColor=inherit;top=0;left=0;bottom=0;right=0;spacingLeft=6;fontStyle=5;" vertex="1" parent="ZweK4gNvfimo4R74DKea-242">
          <mxGeometry x="30" width="219" height="30" as="geometry">
            <mxRectangle width="219" height="30" as="alternateBounds" />
          </mxGeometry>
        </mxCell>
        <mxCell id="ZweK4gNvfimo4R74DKea-245" value="" style="shape=tableRow;horizontal=0;startSize=0;swimlaneHead=0;swimlaneBody=0;fillColor=none;collapsible=0;dropTarget=0;points=[[0,0.5],[1,0.5]];portConstraint=eastwest;strokeColor=inherit;top=0;left=0;right=0;bottom=0;" vertex="1" parent="ZweK4gNvfimo4R74DKea-241">
          <mxGeometry y="60" width="249" height="30" as="geometry" />
        </mxCell>
        <mxCell id="ZweK4gNvfimo4R74DKea-246" value="" style="shape=partialRectangle;overflow=hidden;connectable=0;fillColor=none;strokeColor=inherit;top=0;left=0;bottom=0;right=0;" vertex="1" parent="ZweK4gNvfimo4R74DKea-245">
          <mxGeometry width="30" height="30" as="geometry">
            <mxRectangle width="30" height="30" as="alternateBounds" />
          </mxGeometry>
        </mxCell>
        <mxCell id="ZweK4gNvfimo4R74DKea-247" value="COURSE_NAME" style="shape=partialRectangle;overflow=hidden;connectable=0;fillColor=none;align=left;strokeColor=inherit;top=0;left=0;bottom=0;right=0;spacingLeft=6;" vertex="1" parent="ZweK4gNvfimo4R74DKea-245">
          <mxGeometry x="30" width="219" height="30" as="geometry">
            <mxRectangle width="219" height="30" as="alternateBounds" />
          </mxGeometry>
        </mxCell>
        <mxCell id="ZweK4gNvfimo4R74DKea-260" value="INSTRUCTOR" style="shape=table;startSize=30;container=1;collapsible=1;childLayout=tableLayout;fixedRows=1;rowLines=0;fontStyle=1;align=center;resizeLast=1;" vertex="1" parent="1">
          <mxGeometry x="-3029.73" y="2454" width="249" height="90" as="geometry" />
        </mxCell>
        <mxCell id="ZweK4gNvfimo4R74DKea-261" value="" style="shape=tableRow;horizontal=0;startSize=0;swimlaneHead=0;swimlaneBody=0;fillColor=none;collapsible=0;dropTarget=0;points=[[0,0.5],[1,0.5]];portConstraint=eastwest;strokeColor=inherit;top=0;left=0;right=0;bottom=1;" vertex="1" parent="ZweK4gNvfimo4R74DKea-260">
          <mxGeometry y="30" width="249" height="30" as="geometry" />
        </mxCell>
        <mxCell id="ZweK4gNvfimo4R74DKea-262" value="PK" style="shape=partialRectangle;overflow=hidden;connectable=0;fillColor=none;strokeColor=inherit;top=0;left=0;bottom=0;right=0;fontStyle=1;" vertex="1" parent="ZweK4gNvfimo4R74DKea-261">
          <mxGeometry width="30" height="30" as="geometry">
            <mxRectangle width="30" height="30" as="alternateBounds" />
          </mxGeometry>
        </mxCell>
        <mxCell id="ZweK4gNvfimo4R74DKea-263" value="ID_INSTRUCTOR" style="shape=partialRectangle;overflow=hidden;connectable=0;fillColor=none;align=left;strokeColor=inherit;top=0;left=0;bottom=0;right=0;spacingLeft=6;fontStyle=5;" vertex="1" parent="ZweK4gNvfimo4R74DKea-261">
          <mxGeometry x="30" width="219" height="30" as="geometry">
            <mxRectangle width="219" height="30" as="alternateBounds" />
          </mxGeometry>
        </mxCell>
        <mxCell id="ZweK4gNvfimo4R74DKea-264" value="" style="shape=tableRow;horizontal=0;startSize=0;swimlaneHead=0;swimlaneBody=0;fillColor=none;collapsible=0;dropTarget=0;points=[[0,0.5],[1,0.5]];portConstraint=eastwest;strokeColor=inherit;top=0;left=0;right=0;bottom=0;" vertex="1" parent="ZweK4gNvfimo4R74DKea-260">
          <mxGeometry y="60" width="249" height="30" as="geometry" />
        </mxCell>
        <mxCell id="ZweK4gNvfimo4R74DKea-265" value="" style="shape=partialRectangle;overflow=hidden;connectable=0;fillColor=none;strokeColor=inherit;top=0;left=0;bottom=0;right=0;" vertex="1" parent="ZweK4gNvfimo4R74DKea-264">
          <mxGeometry width="30" height="30" as="geometry">
            <mxRectangle width="30" height="30" as="alternateBounds" />
          </mxGeometry>
        </mxCell>
        <mxCell id="ZweK4gNvfimo4R74DKea-266" value="INSTRUCTOR_NAME" style="shape=partialRectangle;overflow=hidden;connectable=0;fillColor=none;align=left;strokeColor=inherit;top=0;left=0;bottom=0;right=0;spacingLeft=6;" vertex="1" parent="ZweK4gNvfimo4R74DKea-264">
          <mxGeometry x="30" width="219" height="30" as="geometry">
            <mxRectangle width="219" height="30" as="alternateBounds" />
          </mxGeometry>
        </mxCell>
        <mxCell id="ZweK4gNvfimo4R74DKea-279" value="STUDENT" style="shape=table;startSize=30;container=1;collapsible=1;childLayout=tableLayout;fixedRows=1;rowLines=0;fontStyle=1;align=center;resizeLast=1;" vertex="1" parent="1">
          <mxGeometry x="-3554.73" y="1879.11" width="249" height="120" as="geometry" />
        </mxCell>
        <mxCell id="ZweK4gNvfimo4R74DKea-280" value="" style="shape=tableRow;horizontal=0;startSize=0;swimlaneHead=0;swimlaneBody=0;fillColor=none;collapsible=0;dropTarget=0;points=[[0,0.5],[1,0.5]];portConstraint=eastwest;strokeColor=inherit;top=0;left=0;right=0;bottom=1;" vertex="1" parent="ZweK4gNvfimo4R74DKea-279">
          <mxGeometry y="30" width="249" height="30" as="geometry" />
        </mxCell>
        <mxCell id="ZweK4gNvfimo4R74DKea-281" value="PK" style="shape=partialRectangle;overflow=hidden;connectable=0;fillColor=none;strokeColor=inherit;top=0;left=0;bottom=0;right=0;fontStyle=1;" vertex="1" parent="ZweK4gNvfimo4R74DKea-280">
          <mxGeometry width="30" height="30" as="geometry">
            <mxRectangle width="30" height="30" as="alternateBounds" />
          </mxGeometry>
        </mxCell>
        <mxCell id="ZweK4gNvfimo4R74DKea-282" value="ID_STUDENT" style="shape=partialRectangle;overflow=hidden;connectable=0;fillColor=none;align=left;strokeColor=inherit;top=0;left=0;bottom=0;right=0;spacingLeft=6;fontStyle=5;" vertex="1" parent="ZweK4gNvfimo4R74DKea-280">
          <mxGeometry x="30" width="219" height="30" as="geometry">
            <mxRectangle width="219" height="30" as="alternateBounds" />
          </mxGeometry>
        </mxCell>
        <mxCell id="ZweK4gNvfimo4R74DKea-283" value="" style="shape=tableRow;horizontal=0;startSize=0;swimlaneHead=0;swimlaneBody=0;fillColor=none;collapsible=0;dropTarget=0;points=[[0,0.5],[1,0.5]];portConstraint=eastwest;strokeColor=inherit;top=0;left=0;right=0;bottom=0;" vertex="1" parent="ZweK4gNvfimo4R74DKea-279">
          <mxGeometry y="60" width="249" height="30" as="geometry" />
        </mxCell>
        <mxCell id="ZweK4gNvfimo4R74DKea-284" value="" style="shape=partialRectangle;overflow=hidden;connectable=0;fillColor=none;strokeColor=inherit;top=0;left=0;bottom=0;right=0;" vertex="1" parent="ZweK4gNvfimo4R74DKea-283">
          <mxGeometry width="30" height="30" as="geometry">
            <mxRectangle width="30" height="30" as="alternateBounds" />
          </mxGeometry>
        </mxCell>
        <mxCell id="ZweK4gNvfimo4R74DKea-285" value="STUDENT_NAME" style="shape=partialRectangle;overflow=hidden;connectable=0;fillColor=none;align=left;strokeColor=inherit;top=0;left=0;bottom=0;right=0;spacingLeft=6;" vertex="1" parent="ZweK4gNvfimo4R74DKea-283">
          <mxGeometry x="30" width="219" height="30" as="geometry">
            <mxRectangle width="219" height="30" as="alternateBounds" />
          </mxGeometry>
        </mxCell>
        <mxCell id="ZweK4gNvfimo4R74DKea-286" value="" style="shape=tableRow;horizontal=0;startSize=0;swimlaneHead=0;swimlaneBody=0;fillColor=none;collapsible=0;dropTarget=0;points=[[0,0.5],[1,0.5]];portConstraint=eastwest;strokeColor=inherit;top=0;left=0;right=0;bottom=0;" vertex="1" parent="ZweK4gNvfimo4R74DKea-279">
          <mxGeometry y="90" width="249" height="30" as="geometry" />
        </mxCell>
        <mxCell id="ZweK4gNvfimo4R74DKea-287" value="" style="shape=partialRectangle;overflow=hidden;connectable=0;fillColor=none;strokeColor=inherit;top=0;left=0;bottom=0;right=0;" vertex="1" parent="ZweK4gNvfimo4R74DKea-286">
          <mxGeometry width="30" height="30" as="geometry">
            <mxRectangle width="30" height="30" as="alternateBounds" />
          </mxGeometry>
        </mxCell>
        <mxCell id="ZweK4gNvfimo4R74DKea-288" value="MAJOR" style="shape=partialRectangle;overflow=hidden;connectable=0;fillColor=none;align=left;strokeColor=inherit;top=0;left=0;bottom=0;right=0;spacingLeft=6;" vertex="1" parent="ZweK4gNvfimo4R74DKea-286">
          <mxGeometry x="30" width="219" height="30" as="geometry">
            <mxRectangle width="219" height="30" as="alternateBounds" />
          </mxGeometry>
        </mxCell>
        <mxCell id="ZweK4gNvfimo4R74DKea-299" value="CLASS" style="shape=table;startSize=30;container=1;collapsible=1;childLayout=tableLayout;fixedRows=1;rowLines=0;fontStyle=1;align=center;resizeLast=1;" vertex="1" parent="1">
          <mxGeometry x="-3025.73" y="2157" width="226" height="120" as="geometry" />
        </mxCell>
        <mxCell id="ZweK4gNvfimo4R74DKea-300" value="" style="shape=tableRow;horizontal=0;startSize=0;swimlaneHead=0;swimlaneBody=0;fillColor=none;collapsible=0;dropTarget=0;points=[[0,0.5],[1,0.5]];portConstraint=eastwest;strokeColor=inherit;top=0;left=0;right=0;bottom=1;" vertex="1" parent="ZweK4gNvfimo4R74DKea-299">
          <mxGeometry y="30" width="226" height="30" as="geometry" />
        </mxCell>
        <mxCell id="ZweK4gNvfimo4R74DKea-301" value="PK" style="shape=partialRectangle;overflow=hidden;connectable=0;fillColor=none;strokeColor=inherit;top=0;left=0;bottom=0;right=0;fontStyle=1;" vertex="1" parent="ZweK4gNvfimo4R74DKea-300">
          <mxGeometry width="30" height="30" as="geometry">
            <mxRectangle width="30" height="30" as="alternateBounds" />
          </mxGeometry>
        </mxCell>
        <mxCell id="ZweK4gNvfimo4R74DKea-302" value="ID_CLASS" style="shape=partialRectangle;overflow=hidden;connectable=0;fillColor=none;align=left;strokeColor=inherit;top=0;left=0;bottom=0;right=0;spacingLeft=6;fontStyle=5;" vertex="1" parent="ZweK4gNvfimo4R74DKea-300">
          <mxGeometry x="30" width="196" height="30" as="geometry">
            <mxRectangle width="196" height="30" as="alternateBounds" />
          </mxGeometry>
        </mxCell>
        <mxCell id="ZweK4gNvfimo4R74DKea-303" value="" style="shape=tableRow;horizontal=0;startSize=0;swimlaneHead=0;swimlaneBody=0;fillColor=none;collapsible=0;dropTarget=0;points=[[0,0.5],[1,0.5]];portConstraint=eastwest;strokeColor=inherit;top=0;left=0;right=0;bottom=0;" vertex="1" parent="ZweK4gNvfimo4R74DKea-299">
          <mxGeometry y="60" width="226" height="30" as="geometry" />
        </mxCell>
        <mxCell id="ZweK4gNvfimo4R74DKea-304" value="FK" style="shape=partialRectangle;overflow=hidden;connectable=0;fillColor=none;strokeColor=inherit;top=0;left=0;bottom=0;right=0;" vertex="1" parent="ZweK4gNvfimo4R74DKea-303">
          <mxGeometry width="30" height="30" as="geometry">
            <mxRectangle width="30" height="30" as="alternateBounds" />
          </mxGeometry>
        </mxCell>
        <mxCell id="ZweK4gNvfimo4R74DKea-305" value="ID_COURSE" style="shape=partialRectangle;overflow=hidden;connectable=0;fillColor=none;align=left;strokeColor=inherit;top=0;left=0;bottom=0;right=0;spacingLeft=6;" vertex="1" parent="ZweK4gNvfimo4R74DKea-303">
          <mxGeometry x="30" width="196" height="30" as="geometry">
            <mxRectangle width="196" height="30" as="alternateBounds" />
          </mxGeometry>
        </mxCell>
        <mxCell id="ZweK4gNvfimo4R74DKea-306" style="shape=tableRow;horizontal=0;startSize=0;swimlaneHead=0;swimlaneBody=0;fillColor=none;collapsible=0;dropTarget=0;points=[[0,0.5],[1,0.5]];portConstraint=eastwest;strokeColor=inherit;top=0;left=0;right=0;bottom=0;" vertex="1" parent="ZweK4gNvfimo4R74DKea-299">
          <mxGeometry y="90" width="226" height="30" as="geometry" />
        </mxCell>
        <mxCell id="ZweK4gNvfimo4R74DKea-307" value="FK" style="shape=partialRectangle;overflow=hidden;connectable=0;fillColor=none;strokeColor=inherit;top=0;left=0;bottom=0;right=0;" vertex="1" parent="ZweK4gNvfimo4R74DKea-306">
          <mxGeometry width="30" height="30" as="geometry">
            <mxRectangle width="30" height="30" as="alternateBounds" />
          </mxGeometry>
        </mxCell>
        <mxCell id="ZweK4gNvfimo4R74DKea-308" value="ID_INSTRUCTOR" style="shape=partialRectangle;overflow=hidden;connectable=0;fillColor=none;align=left;strokeColor=inherit;top=0;left=0;bottom=0;right=0;spacingLeft=6;" vertex="1" parent="ZweK4gNvfimo4R74DKea-306">
          <mxGeometry x="30" width="196" height="30" as="geometry">
            <mxRectangle width="196" height="30" as="alternateBounds" />
          </mxGeometry>
        </mxCell>
        <mxCell id="ZweK4gNvfimo4R74DKea-309" style="edgeStyle=orthogonalEdgeStyle;rounded=0;orthogonalLoop=1;jettySize=auto;html=1;exitX=1;exitY=0.5;exitDx=0;exitDy=0;entryX=0;entryY=0.5;entryDx=0;entryDy=0;startArrow=ERone;startFill=0;endArrow=ERoneToMany;endFill=0;" edge="1" parent="1" source="ZweK4gNvfimo4R74DKea-242" target="ZweK4gNvfimo4R74DKea-303">
          <mxGeometry relative="1" as="geometry" />
        </mxCell>
        <mxCell id="ZweK4gNvfimo4R74DKea-310" style="edgeStyle=orthogonalEdgeStyle;rounded=0;orthogonalLoop=1;jettySize=auto;html=1;exitX=0;exitY=0.5;exitDx=0;exitDy=0;entryX=1;entryY=0.5;entryDx=0;entryDy=0;startArrow=ERoneToMany;startFill=0;endArrow=ERmany;endFill=0;" edge="1" parent="1" source="ZweK4gNvfimo4R74DKea-261" target="ZweK4gNvfimo4R74DKea-306">
          <mxGeometry relative="1" as="geometry" />
        </mxCell>
        <mxCell id="ZweK4gNvfimo4R74DKea-312" value="mengajar" style="edgeLabel;html=1;align=center;verticalAlign=middle;resizable=0;points=[];" vertex="1" connectable="0" parent="ZweK4gNvfimo4R74DKea-310">
          <mxGeometry x="-0.0326" y="6" relative="1" as="geometry">
            <mxPoint x="-2" y="-9" as="offset" />
          </mxGeometry>
        </mxCell>
        <mxCell id="ZweK4gNvfimo4R74DKea-311" value="diajar" style="text;html=1;align=center;verticalAlign=middle;resizable=0;points=[];autosize=1;strokeColor=none;fillColor=none;" vertex="1" parent="1">
          <mxGeometry x="-2932.73" y="2053" width="47" height="26" as="geometry" />
        </mxCell>
        <mxCell id="ZweK4gNvfimo4R74DKea-313" value="GRADING" style="shape=table;startSize=30;container=1;collapsible=1;childLayout=tableLayout;fixedRows=1;rowLines=0;fontStyle=1;align=center;resizeLast=1;" vertex="1" parent="1">
          <mxGeometry x="-3198.73" y="1881" width="237" height="116.21215820312455" as="geometry" />
        </mxCell>
        <mxCell id="ZweK4gNvfimo4R74DKea-314" value="" style="shape=tableRow;horizontal=0;startSize=0;swimlaneHead=0;swimlaneBody=0;fillColor=none;collapsible=0;dropTarget=0;points=[[0,0.5],[1,0.5]];portConstraint=eastwest;strokeColor=inherit;top=0;left=0;right=0;bottom=0;" vertex="1" parent="ZweK4gNvfimo4R74DKea-313">
          <mxGeometry y="30" width="237" height="28" as="geometry" />
        </mxCell>
        <mxCell id="ZweK4gNvfimo4R74DKea-315" value="PK, FK" style="shape=partialRectangle;overflow=hidden;connectable=0;fillColor=none;strokeColor=inherit;top=0;left=0;bottom=0;right=0;fontStyle=1;" vertex="1" parent="ZweK4gNvfimo4R74DKea-314">
          <mxGeometry width="68.46674804687501" height="28" as="geometry">
            <mxRectangle width="68.46674804687501" height="28" as="alternateBounds" />
          </mxGeometry>
        </mxCell>
        <mxCell id="ZweK4gNvfimo4R74DKea-316" value="ID_STUDENT" style="shape=partialRectangle;overflow=hidden;connectable=0;fillColor=none;align=left;strokeColor=inherit;top=0;left=0;bottom=0;right=0;spacingLeft=6;fontStyle=5;" vertex="1" parent="ZweK4gNvfimo4R74DKea-314">
          <mxGeometry x="68.46674804687501" width="168.533251953125" height="28" as="geometry">
            <mxRectangle width="168.533251953125" height="28" as="alternateBounds" />
          </mxGeometry>
        </mxCell>
        <mxCell id="ZweK4gNvfimo4R74DKea-326" style="shape=tableRow;horizontal=0;startSize=0;swimlaneHead=0;swimlaneBody=0;fillColor=none;collapsible=0;dropTarget=0;points=[[0,0.5],[1,0.5]];portConstraint=eastwest;strokeColor=inherit;top=0;left=0;right=0;bottom=1;" vertex="1" parent="ZweK4gNvfimo4R74DKea-313">
          <mxGeometry y="58" width="237" height="28" as="geometry" />
        </mxCell>
        <mxCell id="ZweK4gNvfimo4R74DKea-327" value="PK, FK" style="shape=partialRectangle;overflow=hidden;connectable=0;fillColor=none;strokeColor=inherit;top=0;left=0;bottom=0;right=0;fontStyle=1;" vertex="1" parent="ZweK4gNvfimo4R74DKea-326">
          <mxGeometry width="68.46674804687501" height="28" as="geometry">
            <mxRectangle width="68.46674804687501" height="28" as="alternateBounds" />
          </mxGeometry>
        </mxCell>
        <mxCell id="ZweK4gNvfimo4R74DKea-328" value="ID_COURSE" style="shape=partialRectangle;overflow=hidden;connectable=0;fillColor=none;align=left;strokeColor=inherit;top=0;left=0;bottom=0;right=0;spacingLeft=6;fontStyle=5;" vertex="1" parent="ZweK4gNvfimo4R74DKea-326">
          <mxGeometry x="68.46674804687501" width="168.533251953125" height="28" as="geometry">
            <mxRectangle width="168.533251953125" height="28" as="alternateBounds" />
          </mxGeometry>
        </mxCell>
        <mxCell id="ZweK4gNvfimo4R74DKea-317" value="" style="shape=tableRow;horizontal=0;startSize=0;swimlaneHead=0;swimlaneBody=0;fillColor=none;collapsible=0;dropTarget=0;points=[[0,0.5],[1,0.5]];portConstraint=eastwest;strokeColor=inherit;top=0;left=0;right=0;bottom=0;" vertex="1" parent="ZweK4gNvfimo4R74DKea-313">
          <mxGeometry y="86" width="237" height="30" as="geometry" />
        </mxCell>
        <mxCell id="ZweK4gNvfimo4R74DKea-318" value="" style="shape=partialRectangle;overflow=hidden;connectable=0;fillColor=none;strokeColor=inherit;top=0;left=0;bottom=0;right=0;" vertex="1" parent="ZweK4gNvfimo4R74DKea-317">
          <mxGeometry width="68.46674804687501" height="30" as="geometry">
            <mxRectangle width="68.46674804687501" height="30" as="alternateBounds" />
          </mxGeometry>
        </mxCell>
        <mxCell id="ZweK4gNvfimo4R74DKea-319" value="GRADE" style="shape=partialRectangle;overflow=hidden;connectable=0;fillColor=none;align=left;strokeColor=inherit;top=0;left=0;bottom=0;right=0;spacingLeft=6;" vertex="1" parent="ZweK4gNvfimo4R74DKea-317">
          <mxGeometry x="68.46674804687501" width="168.533251953125" height="30" as="geometry">
            <mxRectangle width="168.533251953125" height="30" as="alternateBounds" />
          </mxGeometry>
        </mxCell>
        <mxCell id="ZweK4gNvfimo4R74DKea-330" style="edgeStyle=orthogonalEdgeStyle;rounded=0;orthogonalLoop=1;jettySize=auto;html=1;exitX=1;exitY=0.5;exitDx=0;exitDy=0;entryX=0;entryY=0.5;entryDx=0;entryDy=0;startArrow=ERzeroToOne;startFill=0;endArrow=ERmany;endFill=0;" edge="1" parent="1" source="ZweK4gNvfimo4R74DKea-280" target="ZweK4gNvfimo4R74DKea-314">
          <mxGeometry relative="1" as="geometry" />
        </mxCell>
        <mxCell id="ZweK4gNvfimo4R74DKea-331" value="mengambil" style="text;html=1;align=center;verticalAlign=middle;resizable=0;points=[];autosize=1;strokeColor=none;fillColor=none;" vertex="1" parent="1">
          <mxGeometry x="-3290.73" y="1899" width="77" height="26" as="geometry" />
        </mxCell>
        <mxCell id="ZweK4gNvfimo4R74DKea-332" style="edgeStyle=orthogonalEdgeStyle;rounded=0;orthogonalLoop=1;jettySize=auto;html=1;exitX=0;exitY=0.5;exitDx=0;exitDy=0;entryX=1;entryY=0.5;entryDx=0;entryDy=0;startArrow=ERzeroToOne;startFill=0;endArrow=ERmany;endFill=0;" edge="1" parent="1" source="ZweK4gNvfimo4R74DKea-242" target="ZweK4gNvfimo4R74DKea-326">
          <mxGeometry relative="1" as="geometry" />
        </mxCell>
        <mxCell id="ZweK4gNvfimo4R74DKea-333" value="diambil" style="text;html=1;align=center;verticalAlign=middle;resizable=0;points=[];autosize=1;strokeColor=none;fillColor=none;" vertex="1" parent="1">
          <mxGeometry x="-2932.73" y="1899" width="56" height="26" as="geometry" />
        </mxCell>
      </root>
    </mxGraphModel>
  </diagram>
</mxfile>
